<?xml version="1.0" encoding="UTF-8"?>
<svg id="Layer_1" data-name="Layer 1" xmlns="http://www.w3.org/2000/svg" viewBox="0 0 1302.77 862.3">
  <defs>
    <style>
      .cls-1 {
        fill: #6200ff;
      }

      .cls-1, .cls-2, .cls-3, .cls-4, .cls-5, .cls-6, .cls-7, .cls-8, .cls-9, .cls-10, .cls-11, .cls-12, .cls-13, .cls-14, .cls-15, .cls-16, .cls-17, .cls-18, .cls-19, .cls-20, .cls-21, .cls-22 {
        stroke-width: 0px;
      }

      .cls-2 {
        fill: #7a53f7;
      }

      .cls-3 {
        fill: #7644f7;
      }

      .cls-4 {
        fill: #0b5d8f;
      }

      .cls-5 {
        fill: #ccc;
      }

      .cls-6 {
        fill: #bdccd4;
      }

      .cls-7 {
        fill: #b3b3b3;
      }

      .cls-8 {
        fill: #7d4aff;
      }

      .cls-9 {
        fill: #7d64ff;
      }

      .cls-10 {
        fill: #009db9;
      }

      .cls-11 {
        fill: #00a3b9;
      }

      .cls-12 {
        fill: #ff5e4a;
      }

      .cls-13 {
        fill: #ff8d4a;
      }

      .cls-14 {
        fill: #7347ff;
      }

      .cls-15 {
        fill: #ffae46;
      }

      .cls-16 {
        fill: #ff9c46;
      }

      .cls-17 {
        fill: #ffe459;
      }

      .cls-18 {
        fill: #ffbf4a;
      }

      .cls-19 {
        fill: #ffd44a;
      }

      .cls-20 {
        fill: #e6e6e6;
      }

      .cls-21 {
        fill: #00d4b9;
      }

      .cls-22 {
        fill: #00acb9;
      }
    </style>
  </defs>
  <rect class="cls-4" x=".49" width="1302.77" height="862.3"/>
  <circle class="cls-14" cx="610.04" cy="295.92" r="71.54"/>
  <path class="cls-1" d="m617.57,359.83c-3.45,10.46-6.43,21.15-8.92,32.06-38.01-17.47-65.31-54.25-69.32-97.78.23-2.4.53-4.77.91-7.11.69,0,1.37.06,2.04.17-.16,1.83-.23,3.7-.23,5.57,0,8.36,1.41,16.38,3.99,23.78,9.04,25.96,32.47,44.44,59.93,44.44,3.96,0,7.83-.38,11.6-1.13Z"/>
  <path class="cls-12" d="m869.05,134.95c-.64,14.57-2.14,28.89-4.43,42.93-1.71,10.48-3.87,20.79-6.46,30.92-2.66,10.44-5.77,20.67-9.31,30.69-4.02,11.39-8.59,22.48-13.68,33.26-7.98,16.9-17.24,33.01-27.64,48.17-25.63,37.39-58.18,69.03-95.64,92.77-4.73,2.98-9.54,5.85-14.4,8.56-20.28,5.49-39.45,13.95-57.09,24.89-.92.57-1.84,1.15-2.76,1.74-.92.58-1.83,1.18-2.74,1.78-1.29.85-2.58,1.72-3.85,2.6-1.28.88-2.55,1.78-3.8,2.69-.3.21-.59.43-.88.64-1.85,1.35-3.68,2.73-5.49,4.15-.61.47-1.21.94-1.81,1.42-.86.67-1.7,1.35-2.54,2.05-.85.68-1.68,1.38-2.51,2.09-.82.68-1.64,1.38-2.45,2.09-.06.05-.11.1-.16.14-.77.67-1.54,1.35-2.3,2.04-.03.01-.05.03-.06.05-.81.71-1.61,1.44-2.4,2.17-2,1.84-3.97,3.71-5.9,5.63-.04.03-.08.07-.12.11-.16.16-.33.32-.49.48l-.59.59c-.03-1.42-.04-2.85-.04-4.28v-.23c-.01-.53-.01-1.07-.01-1.6,0-5.49.12-10.97.37-16.4.79-18.38,2.97-36.38,6.38-53.9,2.9-14.83,6.69-29.31,11.32-43.36,11.03-33.56,26.82-64.73,46.5-92.59.27-.36.52-.73.78-1.09,10.11-14.19,21.22-27.52,33.24-39.86,45.99-47.22,105.12-79.96,170.96-91.34Z"/>
  <path class="cls-8" d="m664.85,266.15c-.26.36-.51.73-.78,1.09-1.04,1.47-2.06,2.94-3.07,4.43-.87,1.27-1.72,2.54-2.57,3.82-.67,1.01-1.33,2.02-1.99,3.04-.74,1.14-1.48,2.29-2.2,3.44-10.96,17.32-20.46,35.77-28.32,55.15-.66,1.62-1.31,3.24-1.94,4.87-.69,1.77-1.37,3.54-2.03,5.33-.35.93-.69,1.86-1.03,2.8-1.16,3.21-2.28,6.45-3.35,9.71-3.77.75-7.64,1.13-11.6,1.13-27.46,0-50.89-18.48-59.93-44.44-2.58-7.4-3.99-15.42-3.99-23.78,0-1.87.07-3.74.23-5.57,2.63-35.06,30.15-62.65,63.69-62.65,8.01,0,15.68,1.58,22.76,4.45,16.28,6.62,29.35,20.14,36.12,37.18Z"/>
  <path class="cls-7" d="m539.57,317.85c-4.54-.18-26.46-2.18-52.84-4.68-19.76-1.88-42.02-4.04-61.35-5.92-25.75-2.52-46.29-4.56-48.78-4.81l6.3-.25,155.92,3.5c.01,1.46.05,2.91.12,4.36.03.72.07,1.44.12,2.16.05.71.1,1.43.16,2.14.03.37.07.74.1,1.11.08.8.16,1.6.25,2.39Z"/>
  <path class="cls-5" d="m539.18,295.92c-.03.4-.07.8-.09,1.2-.05.64-.09,1.28-.13,1.93-.03.74-.07,1.48-.09,2.23-.01.4-.03.81-.03,1.21-.01.07-.01.13-.01.2-.01.71-.02,1.43-.02,2.14,0,.29,0,.58.01.86l-155.92-3.5,156.28-6.27Z"/>
  <path class="cls-20" d="m540.24,287c-.38,2.34-.68,4.71-.91,7.11-.06.6-.11,1.2-.15,1.81l-156.28,6.27-6.3.25h-.01c-.16-.01-.24-.02-.24-.02,0,0,1.11-.11,3.14-.31,21.28-2.1,144.18-14.21,159.4-15.07.56-.02.97-.04,1.23-.04h.12Z"/>
  <path class="cls-13" d="m864.62,177.88c-1.71,10.48-3.87,20.79-6.46,30.92-2.66,10.44-5.77,20.67-9.31,30.69-4.02,11.39-8.59,22.48-13.68,33.26-7.98,16.9-17.24,33.01-27.64,48.17-25.63,37.39-58.18,69.03-95.64,92.77-4.73,2.98-9.54,5.85-14.4,8.56-20.28,5.49-39.45,13.95-57.09,24.89-.92.57-1.84,1.15-2.76,1.74-.92.58-1.83,1.18-2.74,1.78-1.29.85-2.58,1.72-3.85,2.6-1.28.88-2.55,1.78-3.8,2.69-.3.21-.59.43-.88.64-1.85,1.35-3.68,2.73-5.49,4.15-.61.47-1.21.94-1.81,1.42-.86.67-1.7,1.35-2.54,2.05-.85.68-1.68,1.38-2.51,2.09-.82.68-1.64,1.38-2.45,2.09-.06.05-.11.1-.16.14-.77.67-1.54,1.35-2.3,2.04-.03.01-.05.03-.06.05-.81.71-1.61,1.44-2.4,2.17-2,1.84-3.97,3.71-5.9,5.63-.04.03-.08.07-.12.11-.01-.66-.01-1.31-.01-1.97v-.94c0-.88.01-1.76.01-2.64,0-.37.01-.73.01-1.09,1.85-151.79,116.49-276.43,263.98-294.01Z"/>
  <path class="cls-16" d="m858.16,208.8c-2.66,10.44-5.77,20.67-9.31,30.69-4.02,11.39-8.59,22.48-13.68,33.26-7.98,16.9-17.24,33.01-27.64,48.17-25.63,37.39-58.18,69.03-95.64,92.77-4.73,2.98-9.54,5.85-14.4,8.56-20.28,5.49-39.45,13.95-57.09,24.89-.92.57-1.84,1.15-2.76,1.74-.92.58-1.83,1.18-2.74,1.78-1.29.85-2.58,1.72-3.85,2.6-1.28.88-2.55,1.78-3.8,2.69-.3.21-.59.43-.88.64-1.85,1.36-3.68,2.74-5.49,4.15-.61.47-1.21.94-1.81,1.42-.85.68-1.7,1.36-2.54,2.05-.84.69-1.68,1.39-2.51,2.09-.82.69-1.64,1.39-2.45,2.09-.06.05-.11.1-.16.14-.77.67-1.54,1.35-2.3,2.04-.03.01-.05.03-.06.05-.81.71-1.61,1.44-2.4,2.17-2,1.84-3.97,3.71-5.9,5.63.15-1.6.3-3.2.48-4.79.08-.73.16-1.46.25-2.19.1-.99.22-1.98.35-2.96,16.71-134.45,122.43-241.27,256.33-259.68Z"/>
  <path class="cls-15" d="m848.85,239.49c-4.02,11.39-8.59,22.48-13.68,33.26-7.98,16.9-17.24,33.01-27.64,48.17-25.63,37.39-58.18,69.03-95.64,92.77-4.73,2.98-9.54,5.85-14.4,8.56-20.28,5.49-39.45,13.95-57.09,24.89-.92.57-1.84,1.15-2.76,1.74-.92.58-1.83,1.18-2.74,1.78-1.29.85-2.58,1.72-3.85,2.6-1.28.88-2.55,1.78-3.8,2.69-.3.21-.59.43-.88.64-1.85,1.36-3.68,2.74-5.49,4.15-.61.47-1.21.94-1.81,1.42-.85.68-1.7,1.36-2.54,2.05-.84.69-1.68,1.39-2.51,2.09-.82.69-1.64,1.39-2.45,2.09-.06.05-.11.1-.16.14-.77.67-1.54,1.35-2.3,2.04-.03.01-.05.03-.06.05-.81.71-1.61,1.44-2.4,2.17-2,1.84-3.97,3.71-5.9,5.63-.04.03-.08.07-.12.11-.16.16-.33.32-.49.48.16-.82.32-1.63.48-2.45.2-.98.4-1.95.61-2.93.2-.97.41-1.94.64-2.9.48-2.2.99-4.38,1.52-6.55,28.59-116.52,125.28-206.27,245.46-224.69Z"/>
  <path class="cls-18" d="m835.17,272.75c-7.98,16.9-17.24,33.01-27.64,48.17-25.63,37.39-58.18,69.03-95.64,92.77-4.73,2.98-9.54,5.85-14.4,8.56-20.28,5.49-39.45,13.95-57.09,24.89-.92.57-1.84,1.15-2.76,1.74-.92.58-1.83,1.18-2.74,1.78-1.29.85-2.58,1.72-3.85,2.6-1.28.88-2.55,1.78-3.8,2.69-.3.21-.59.43-.88.64-1.85,1.36-3.68,2.74-5.49,4.15-.61.47-1.21.94-1.81,1.42-.85.68-1.7,1.36-2.54,2.05-.84.69-1.68,1.39-2.51,2.09-.82.69-1.64,1.39-2.45,2.09-.06.05-.11.1-.16.14-.77.67-1.54,1.35-2.3,2.04-.03.01-.05.03-.06.05-.81.71-1.61,1.44-2.4,2.17-2,1.84-3.97,3.71-5.9,5.63-.04.03-.08.07-.12.11-.16.16-.33.32-.49.48l-.59.59c-.68.68-1.36,1.37-2.04,2.07.63-2.12,1.3-4.24,2-6.35.06-.2.13-.4.19-.6.31-.95.63-1.89.94-2.83.39-1.14.79-2.28,1.19-3.41.51-1.44,1.03-2.87,1.56-4.3,36.86-99.24,124.74-173.68,231.78-191.43Z"/>
  <path class="cls-21" d="m711.85,418.91c-.12,7.43-.55,14.78-1.29,22.04-1,9.82-2.55,19.46-4.63,28.89-2.33,10.59-5.32,20.92-8.93,30.91-6.75,18.73-15.66,36.33-26.38,52.45-13.05,19.62-28.81,37.05-46.7,51.67-1.97,1.61-3.97,3.19-6,4.73-3.84,2.93-7.77,5.73-11.79,8.4-5.07,3.38-10.28,6.54-15.62,9.48-8.01,4.42-16.3,8.34-24.84,11.7-11.32,4.48-23.07,8.01-35.18,10.49h-.01c-.33.07-.65.14-.98.2-.08.02-.16.03-.24.05-.16.03-.31.06-.47.09.98-64.59,25.96-122.94,65.86-165.35.95-1.01,1.9-2,2.86-2.99.68-.7,1.36-1.39,2.04-2.07l.59-.59c.16-.16.33-.32.49-.48.04-.04.08-.08.12-.11,1.93-1.92,3.9-3.79,5.9-5.63.79-.73,1.59-1.46,2.4-2.17.01-.02.03-.04.06-.05.76-.69,1.53-1.37,2.3-2.04.05-.04.1-.09.16-.14.81-.7,1.63-1.4,2.45-2.09.83-.7,1.67-1.4,2.51-2.09.84-.69,1.69-1.37,2.54-2.05.6-.48,1.2-.95,1.81-1.42,1.81-1.41,3.64-2.79,5.49-4.15.29-.21.58-.43.88-.64,1.25-.91,2.52-1.81,3.8-2.69,1.27-.88,2.56-1.75,3.85-2.6.91-.6,1.82-1.2,2.74-1.78.92-.59,1.84-1.17,2.76-1.74,17.64-10.94,36.81-19.4,57.09-24.89,4.74-1.28,9.52-2.39,14.36-3.34Z"/>
  <path class="cls-19" d="m807.53,320.92c-25.63,37.39-58.18,69.03-95.64,92.77-4.73,2.98-9.54,5.85-14.4,8.56-20.28,5.49-39.45,13.95-57.09,24.89-.92.57-1.84,1.15-2.76,1.74-.92.58-1.83,1.18-2.74,1.78-1.29.85-2.58,1.72-3.85,2.6-1.28.88-2.55,1.78-3.8,2.69-.3.21-.59.43-.88.64-1.85,1.36-3.68,2.74-5.49,4.15-.61.47-1.21.94-1.81,1.42-.85.68-1.7,1.36-2.54,2.05-.84.69-1.68,1.39-2.51,2.09-.82.69-1.64,1.39-2.45,2.09-.06.05-.11.1-.16.14-.77.67-1.54,1.35-2.3,2.04-.03.01-.05.03-.06.05-.81.71-1.61,1.44-2.4,2.17-2,1.84-3.97,3.71-5.9,5.63-.04.03-.08.07-.12.11-.16.16-.33.32-.49.48l-.59.59c-.68.68-1.36,1.37-2.04,2.07-.96.99-1.91,1.98-2.86,2.99,1.56-3.23,3.18-6.42,4.86-9.57.06-.13.12-.25.19-.37.31-.58.62-1.16.93-1.74.28-.52.56-1.03.85-1.54.12-.24.25-.48.39-.71,42.24-76.59,117-132.72,205.66-149.81Z"/>
  <path class="cls-22" d="m710.56,440.95c-1,9.82-2.55,19.46-4.63,28.89-2.33,10.59-5.32,20.92-8.93,30.91-6.75,18.73-15.66,36.33-26.38,52.45-13.05,19.62-28.81,37.05-46.7,51.67-1.97,1.61-3.97,3.19-6,4.73-3.84,2.93-7.77,5.73-11.79,8.4-5.07,3.38-10.28,6.54-15.62,9.48-8.01,4.42-16.3,8.34-24.84,11.7-11.32,4.48-23.07,8.01-35.18,10.49h-.01c-.33.07-.65.14-.98.2-.08.02-.16.03-.24.05,23.45-95.23,91.79-172.8,181.3-208.97Z"/>
  <path class="cls-22" d="m705.93,469.84c-2.33,10.59-5.32,20.92-8.93,30.91-6.75,18.73-15.66,36.33-26.38,52.45-13.05,19.62-28.81,37.05-46.7,51.67-1.97,1.61-3.97,3.19-6,4.73-3.84,2.93-7.77,5.73-11.79,8.4-5.07,3.38-10.28,6.54-15.62,9.48-8.01,4.42-16.3,8.34-24.84,11.7-11.32,4.48-23.07,8.01-35.18,10.49h-.01c.77-2.04,1.56-4.07,2.37-6.08,31.6-78.86,94.37-141.86,173.08-173.75Z"/>
  <path class="cls-11" d="m697,500.75c-6.75,18.73-15.66,36.33-26.38,52.45-13.05,19.62-28.81,37.05-46.7,51.67-1.97,1.61-3.97,3.19-6,4.73-3.84,2.93-7.77,5.73-11.79,8.4-5.07,3.38-10.28,6.54-15.62,9.48-8.01,4.42-16.3,8.34-24.84,11.7-11.32,4.48-23.07,8.01-35.18,10.49h-.01c-.33.07-.65.14-.98.2,1.09-2.11,2.2-4.2,3.35-6.28,35.67-65.2,93.88-116.3,164.15-142.84Z"/>
  <path class="cls-10" d="m670.62,553.2c-13.05,19.62-28.81,37.05-46.7,51.67-1.97,1.61-3.97,3.19-6,4.73-3.84,2.93-7.77,5.73-11.79,8.4-5.07,3.38-10.28,6.54-15.62,9.48-8.01,4.42-16.3,8.34-24.84,11.7-11.32,4.48-23.07,8.01-35.18,10.49,36.52-43.94,84.86-77.72,140.13-96.47Z"/>
  <path class="cls-14" d="m664.85,266.15c-.26.36-.51.73-.78,1.09-1.04,1.47-2.06,2.94-3.07,4.43-.87,1.27-1.72,2.54-2.57,3.82-.67,1.01-1.33,2.02-1.99,3.04-.74,1.14-1.48,2.29-2.2,3.44-10.96,17.32-20.46,35.77-28.32,55.15-.66,1.62-1.31,3.24-1.94,4.87-.69,1.77-1.37,3.54-2.03,5.33-.35.93-.69,1.86-1.03,2.8-1.16,3.21-2.28,6.45-3.35,9.71-3.45,10.46-6.43,21.15-8.92,32.06-38.01-17.47-65.31-54.25-69.32-97.78-.22-2.33-.37-4.69-.44-7.07.56-.02.97-.04,1.23-.04h.12c.69,0,1.37.06,2.04.17,2.63-35.06,30.15-62.65,63.69-62.65,8.01,0,15.68,1.58,22.76,4.45,16.28,6.62,29.35,20.14,36.12,37.18Z"/>
  <path class="cls-8" d="m661,271.67c-.87,1.27-1.72,2.54-2.57,3.82-.67,1.01-1.33,2.02-1.99,3.04-.74,1.14-1.48,2.29-2.2,3.44-10.96,17.32-20.46,35.77-28.32,55.15-.66,1.62-1.31,3.24-1.94,4.87-.69,1.77-1.37,3.54-2.03,5.33-.35.93-.69,1.86-1.03,2.8-4.94,1.33-10.13,2.04-15.49,2.04-32.81,0-59.42-26.6-59.42-59.42s26.61-59.42,59.42-59.42c25.4,0,47.07,15.93,55.57,38.35Z"/>
  <path class="cls-3" d="m658.43,275.49c-.67,1.01-1.33,2.02-1.99,3.04-.74,1.14-1.48,2.29-2.2,3.44-10.96,17.32-20.46,35.77-28.32,55.15-.66,1.62-1.31,3.24-1.94,4.87-.69,1.77-1.37,3.54-2.03,5.33-5.09,1.62-10.49,2.48-16.09,2.48-30.45,0-55.14-25.55-55.14-57.06s24.69-57.06,55.14-57.06c24.64,0,45.51,16.73,52.57,39.81Z"/>
  <path class="cls-2" d="m656.44,278.53c-.74,1.14-1.48,2.29-2.2,3.44-10.96,17.32-20.46,35.77-28.32,55.15-.66,1.62-1.31,3.24-1.94,4.87-5.55,2.01-11.54,3.11-17.78,3.11-28.85,0-52.24-23.39-52.24-52.24s23.39-52.23,52.24-52.23c23.87,0,44.01,16.02,50.24,37.9Z"/>
  <path class="cls-9" d="m654.24,281.97c-10.96,17.32-20.46,35.77-28.32,55.15-5.71,2.39-11.98,3.71-18.56,3.71-26.56,0-48.09-21.53-48.09-48.09s21.53-48.09,48.09-48.09c22.86,0,41.99,15.94,46.88,37.32Z"/>
  <circle class="cls-17" cx="585.23" cy="287" r="7.04"/>
  <circle class="cls-18" cx="587.61" cy="287" r="7.04"/>
  <circle class="cls-15" cx="589.54" cy="287" r="7.04"/>
  <path class="cls-6" d="m379.49,302.11l3.41.08-6.3.25h-.01c-.16-.01-.24-.02-.24-.02,0,0,1.11-.11,3.14-.31Z"/>
  <path class="cls-1" d="m608.65,391.89c-.86,3.74-1.66,7.51-2.4,11.3-35.35-11.94-61.92-45.01-66.68-85.34-.09-.79-.17-1.59-.25-2.39-.03-.37-.07-.74-.1-1.11-.06-.71-.11-1.43-.16-2.14-.05-.72-.09-1.44-.12-2.16-.07-1.45-.11-2.9-.12-4.36-.01-.28-.01-.57-.01-.86,0-.71.01-1.43.02-2.14,0-.07,0-.13.01-.2,0-.4.02-.81.03-1.21.02-.75.06-1.49.09-2.23.04-.64.07-1.29.13-1.93.02-.4.06-.8.09-1.2.04-.61.09-1.21.15-1.81,4.01,43.53,31.31,80.31,69.32,97.78Z"/>
</svg>