<?xml version="1.0" encoding="UTF-8"?>
<svg id="Layer_1" data-name="Layer 1" xmlns="http://www.w3.org/2000/svg" viewBox="0 0 595.28 841.89">
  <defs>
    <style>
      .cls-1 {
        font-size: 24px;
      }

      .cls-1, .cls-2, .cls-3 {
        fill: #fff;
      }

      .cls-1, .cls-2, .cls-3, .cls-4 {
        font-family: BaiJamjuree-Bold, 'Bai Jamjuree';
        font-weight: 700;
      }

      .cls-5 {
        letter-spacing: -.01em;
      }

      .cls-6 {
        letter-spacing: 0em;
      }

      .cls-7 {
        letter-spacing: 0em;
      }

      .cls-8 {
        letter-spacing: 0em;
      }

      .cls-9 {
        letter-spacing: 0em;
      }

      .cls-10 {
        stroke: #231f20;
        stroke-miterlimit: 10;
      }

      .cls-10, .cls-4 {
        fill: #27aae1;
      }

      .cls-11 {
        letter-spacing: 0em;
      }

      .cls-12 {
        letter-spacing: -.02em;
      }

      .cls-13 {
        letter-spacing: -.02em;
      }

      .cls-14 {
        letter-spacing: -.02em;
      }

      .cls-15 {
        letter-spacing: 0em;
      }

      .cls-2 {
        font-size: 12px;
      }

      .cls-3, .cls-4 {
        font-size: 283.83px;
      }

      .cls-16 {
        letter-spacing: -.03em;
      }

      .cls-17 {
        fill: #f3f8fd;
      }

      .cls-17, .cls-18, .cls-19, .cls-20, .cls-21, .cls-22, .cls-23, .cls-24, .cls-25, .cls-26, .cls-27, .cls-28, .cls-29, .cls-30, .cls-31, .cls-32, .cls-33, .cls-34, .cls-35, .cls-36, .cls-37, .cls-38, .cls-39, .cls-40, .cls-41, .cls-42, .cls-43, .cls-44, .cls-45, .cls-46, .cls-47, .cls-48, .cls-49, .cls-50, .cls-51, .cls-52, .cls-53, .cls-54, .cls-55, .cls-56, .cls-57, .cls-58, .cls-59, .cls-60, .cls-61, .cls-62, .cls-63, .cls-64, .cls-65, .cls-66, .cls-67, .cls-68, .cls-69, .cls-70, .cls-71, .cls-72, .cls-73, .cls-74, .cls-75, .cls-76, .cls-77, .cls-78, .cls-79, .cls-80, .cls-81, .cls-82, .cls-83, .cls-84, .cls-85, .cls-86, .cls-87, .cls-88, .cls-89, .cls-90, .cls-91, .cls-92, .cls-93, .cls-94, .cls-95, .cls-96, .cls-97, .cls-98, .cls-99, .cls-100, .cls-101, .cls-102, .cls-103, .cls-104, .cls-105, .cls-106, .cls-107, .cls-108, .cls-109, .cls-110, .cls-111, .cls-112, .cls-113, .cls-114, .cls-115, .cls-116 {
        stroke-width: 0px;
      }

      .cls-18 {
        fill: #f7fafd;
      }

      .cls-19 {
        fill: #f9fcfe;
      }

      .cls-20 {
        fill: #61b6e6;
      }

      .cls-21 {
        fill: #4bb0e4;
      }

      .cls-22 {
        fill: #48b0e4;
      }

      .cls-23 {
        fill: #5fb5e6;
      }

      .cls-24 {
        fill: #78bee9;
      }

      .cls-25 {
        fill: #53b2e5;
      }

      .cls-26 {
        fill: #74bce8;
      }

      .cls-27 {
        fill: #5cb5e6;
      }

      .cls-28 {
        fill: #76bde9;
      }

      .cls-29 {
        fill: #4db1e4;
      }

      .cls-30 {
        fill: #7abee9;
      }

      .cls-31 {
        fill: #50b2e4;
      }

      .cls-32 {
        fill: #63b7e6;
      }

      .cls-33 {
        fill: #55b3e5;
      }

      .cls-34 {
        fill: #58b3e5;
      }

      .cls-35 {
        fill: #5ab4e5;
      }

      .cls-36 {
        fill: #87c4eb;
      }

      .cls-37 {
        fill: #6cb9e7;
      }

      .cls-38 {
        fill: #45afe3;
      }

      .cls-39 {
        fill: #86c3eb;
      }

      .cls-40 {
        fill: #95c9ed;
      }

      .cls-41 {
        fill: #6ebae8;
      }

      .cls-42 {
        fill: #70bbe8;
      }

      .cls-43 {
        fill: #9accee;
      }

      .cls-44 {
        fill: #93c8ed;
      }

      .cls-45 {
        fill: #a2cfef;
      }

      .cls-46 {
        fill: #30abe2;
      }

      .cls-47 {
        fill: #38ace2;
      }

      .cls-48 {
        fill: #2cabe2;
      }

      .cls-49 {
        fill: #82c1ea;
      }

      .cls-50 {
        fill: #3cade3;
      }

      .cls-51 {
        fill: #34ace2;
      }

      .cls-52 {
        fill: #3faee3;
      }

      .cls-53 {
        fill: #42aee3;
      }

      .cls-54 {
        fill: #d0e4f6;
      }

      .cls-55 {
        fill: #c3def4;
      }

      .cls-56 {
        fill: #dcebf8;
      }

      .cls-57 {
        fill: #c8e1f5;
      }

      .cls-58 {
        fill: #cce3f6;
      }

      .cls-59 {
        fill: #cae2f5;
      }

      .cls-60 {
        fill: #d3e6f7;
      }

      .cls-61 {
        fill: #c5dff4;
      }

      .cls-62 {
        fill: #e0edf9;
      }

      .cls-63 {
        fill: #c7e0f5;
      }

      .cls-64 {
        fill: #deecf9;
      }

      .cls-65 {
        fill: #d5e7f7;
      }

      .cls-66 {
        fill: #abd3f0;
      }

      .cls-67 {
        fill: #dbeaf8;
      }

      .cls-68 {
        fill: #d2e5f6;
      }

      .cls-69 {
        fill: #d9e9f8;
      }

      .cls-70 {
        fill: #bcdbf3;
      }

      .cls-71 {
        fill: #b1d5f1;
      }

      .cls-72 {
        fill: #d7e8f7;
      }

      .cls-73 {
        fill: #a4d0ef;
      }

      .cls-74 {
        fill: #add4f1;
      }

      .cls-75 {
        fill: #afd5f1;
      }

      .cls-76 {
        fill: #a9d2f0;
      }

      .cls-77 {
        fill: #bfdcf4;
      }

      .cls-78 {
        fill: #a6d0ef;
      }

      .cls-79 {
        fill: #bedcf3;
      }

      .cls-80 {
        fill: #a7d1f0;
      }

      .cls-81 {
        fill: #cee4f6;
      }

      .cls-82 {
        fill: #b4d7f2;
      }

      .cls-83 {
        fill: #89c4eb;
      }

      .cls-84 {
        fill: #b8d9f2;
      }

      .cls-85 {
        fill: #9cccee;
      }

      .cls-86 {
        fill: #a0ceef;
      }

      .cls-87 {
        fill: #8fc7ec;
      }

      .cls-88 {
        fill: #b6d8f2;
      }

      .cls-89 {
        fill: #c1ddf4;
      }

      .cls-90 {
        fill: #72bce8;
      }

      .cls-91 {
        fill: #65b7e7;
      }

      .cls-92 {
        fill: #b3d6f1;
      }

      .cls-93 {
        fill: #badaf3;
      }

      .cls-94 {
        fill: #8dc6ec;
      }

      .cls-95 {
        fill: #8bc5ec;
      }

      .cls-96 {
        fill: #98cbee;
      }

      .cls-97 {
        fill: #97caed;
      }

      .cls-98 {
        fill: #7ec0ea;
      }

      .cls-99 {
        fill: #91c8ec;
      }

      .cls-100 {
        fill: #9ecdee;
      }

      .cls-101 {
        fill: #84c2ea;
      }

      .cls-102 {
        fill: #7cbfe9;
      }

      .cls-103 {
        fill: #80c1ea;
      }

      .cls-104 {
        fill: #f1f6fc;
      }

      .cls-105 {
        fill: #edf4fb;
      }

      .cls-106 {
        fill: #e8f1fa;
      }

      .cls-107 {
        fill: #e4effa;
      }

      .cls-108 {
        fill: #eff5fc;
      }

      .cls-109 {
        fill: #e2eef9;
      }

      .cls-110 {
        fill: #ebf3fb;
      }

      .cls-111 {
        fill: #fcfdfe;
      }

      .cls-112 {
        fill: #e9f2fb;
      }

      .cls-113 {
        fill: #e6f0fa;
      }

      .cls-114 {
        fill: #f5f9fd;
      }

      .cls-115 {
        fill: #69b9e7;
      }

      .cls-116 {
        fill: #67b8e7;
      }

      .cls-117 {
        letter-spacing: -.03em;
      }
    </style>
  </defs>
  <rect class="cls-10" width="595.28" height="841.89"/>
  <text class="cls-1" transform="translate(36.62 46.89)"><tspan x="0" y="0">THEBLENDED</tspan></text>
  <text class="cls-1" transform="translate(36.91 728.46)"><tspan x="0" y="0">BLEND</tspan></text>
  <text class="cls-2" transform="translate(36.91 756.52)"><tspan x="0" y="0">Simply sele</tspan><tspan class="cls-11" x="66.95" y="0">c</tspan><tspan x="73.62" y="0">t the obje</tspan><tspan class="cls-11" x="129.44" y="0">c</tspan><tspan class="cls-6" x="136.11" y="0">t</tspan><tspan x="140.96" y="0">s, and go </tspan><tspan class="cls-13" x="196.8" y="0">t</tspan><tspan x="201.52" y="0">o Obje</tspan><tspan class="cls-15" x="238.58" y="0">c</tspan><tspan class="cls-9" x="245.25" y="0">t &gt; Blend &gt; Ma</tspan><tspan class="cls-16" x="327.73" y="0">k</tspan><tspan class="cls-7" x="334.07" y="0">e, or use the </tspan><tspan class="cls-16" x="409.36" y="0">k</tspan><tspan class="cls-7" x="415.71" y="0">eyboa</tspan><tspan class="cls-14" x="451.21" y="0">r</tspan><tspan class="cls-8" x="455.61" y="0">d shor</tspan><tspan class="cls-12" x="491.85" y="0">t</tspan><tspan class="cls-7" x="496.58" y="0">cut </tspan><tspan x="0" y="14.4">Command + O</tspan><tspan class="cls-6" x="79.7" y="14.4">p</tspan><tspan x="86.88" y="14.4">tion + B ( Ctrl + </tspan><tspan class="cls-117" x="177.85" y="14.4">A</tspan><tspan x="185.71" y="14.4">lt + B </tspan><tspan class="cls-117" x="219.74" y="14.4">f</tspan><tspan x="223.98" y="14.4">or Wind</tspan><tspan class="cls-5" x="267.58" y="14.4">o</tspan><tspan x="274.57" y="14.4">ws users).</tspan></text>
  <g>
    <text class="cls-4" transform="translate(133.14 600.87) scale(1.14 1)"><tspan x="0" y="0">B</tspan></text>
    <path class="cls-48" d="m267.06,483.07c6.9,0,12.51-1.94,16.83-5.82,4.31-3.88,6.47-9.03,6.47-15.47v-9.65c0-5.29-2.27-9.51-6.8-12.63-4.53-3.12-10.58-4.68-18.13-4.68h-66.37v48.25h67.98Zm-103.92,108.99c-5.83-4.92-8.74-11.35-8.74-19.3v-172h112.66c20.5,0,36.96,4.26,49.37,12.77,12.41,8.51,18.61,19.97,18.61,34.34v14.19c0,6.24-1.78,12.21-5.34,17.88-3.56,5.68-8.58,10.32-15.05,13.91v.28c10.36,3.22,18.72,8.42,25.09,15.61,6.36,7.19,9.55,15.23,9.55,24.13v14.76c0,15.52-6.42,27.86-19.26,37.04-12.84,9.18-30.16,13.77-51.96,13.77h-92.26c-9.28,0-16.83-2.46-22.66-7.38Zm111.69-26.68c9.49,0,16.83-1.65,22.01-4.97,5.18-3.31,7.77-7.99,7.77-14.05v-12.49c0-5.49-2.27-9.93-6.8-13.34-4.53-3.41-10.58-5.11-18.13-5.11h-80.61v49.95h75.75Z"/>
    <path class="cls-46" d="m268.22,481.65c6.9,0,12.51-1.94,16.83-5.82,4.31-3.88,6.47-9.03,6.47-15.47v-9.65c0-5.29-2.27-9.51-6.8-12.63-4.53-3.12-10.57-4.68-18.13-4.68h-66.35v48.25h67.97Zm-103.89,108.99c-5.83-4.92-8.74-11.35-8.74-19.3v-172h112.63c20.5,0,36.95,4.26,49.36,12.77,12.41,8.51,18.61,19.97,18.61,34.34v14.19c0,6.24-1.78,12.21-5.34,17.88-3.56,5.68-8.58,10.32-15.05,13.91v.28c10.36,3.22,18.72,8.42,25.08,15.61,6.36,7.19,9.55,15.23,9.55,24.13v14.76c0,15.52-6.42,27.86-19.26,37.04-12.84,9.18-30.16,13.77-51.95,13.77h-92.24c-9.28,0-16.83-2.46-22.66-7.38Zm111.66-26.68c9.49,0,16.83-1.65,22.01-4.97,5.18-3.31,7.77-7.99,7.77-14.05v-12.49c0-5.49-2.27-9.93-6.8-13.34-4.53-3.41-10.57-5.11-18.13-5.11h-80.59v49.95h75.74Z"/>
    <path class="cls-51" d="m269.38,480.22c6.9,0,12.51-1.94,16.83-5.82,4.31-3.88,6.47-9.03,6.47-15.47v-9.65c0-5.29-2.27-9.51-6.79-12.63-4.53-3.12-10.57-4.68-18.12-4.68h-66.33v48.25h67.95Zm-103.87,108.99c-5.82-4.92-8.74-11.35-8.74-19.3v-172h112.61c20.49,0,36.94,4.26,49.35,12.77,12.4,8.51,18.61,19.97,18.61,34.34v14.19c0,6.24-1.78,12.21-5.34,17.88-3.56,5.68-8.57,10.32-15.05,13.91v.28c10.35,3.22,18.71,8.42,25.08,15.61,6.36,7.19,9.54,15.23,9.54,24.13v14.76c0,15.52-6.42,27.86-19.25,37.04-12.84,9.18-30.15,13.77-51.93,13.77h-92.22c-9.28,0-16.83-2.46-22.65-7.38Zm111.63-26.68c9.49,0,16.83-1.65,22-4.97,5.18-3.31,7.77-7.99,7.77-14.05v-12.49c0-5.49-2.27-9.93-6.79-13.34-4.53-3.41-10.57-5.11-18.12-5.11h-80.57v49.95h75.72Z"/>
    <path class="cls-47" d="m270.53,478.79c6.9,0,12.51-1.94,16.82-5.82,4.31-3.88,6.47-9.03,6.47-15.47v-9.65c0-5.29-2.26-9.51-6.79-12.63-4.53-3.12-10.57-4.68-18.12-4.68h-66.32v48.25h67.94Zm-103.84,108.99c-5.82-4.92-8.73-11.35-8.73-19.3v-172h112.58c20.49,0,36.93,4.26,49.33,12.77,12.4,8.51,18.6,19.97,18.6,34.34v14.19c0,6.24-1.78,12.21-5.34,17.88-3.56,5.68-8.57,10.32-15.04,13.91v.28c10.35,3.22,18.71,8.42,25.07,15.61,6.36,7.19,9.54,15.23,9.54,24.13v14.76c0,15.52-6.42,27.86-19.25,37.04-12.83,9.18-30.14,13.77-51.92,13.77h-92.2c-9.28,0-16.82-2.46-22.65-7.38Zm111.61-26.68c9.49,0,16.82-1.65,22-4.97,5.18-3.31,7.76-7.99,7.76-14.05v-12.49c0-5.49-2.26-9.93-6.79-13.34-4.53-3.41-10.57-5.11-18.12-5.11h-80.55v49.95h75.7Z"/>
    <path class="cls-50" d="m271.69,477.37c6.9,0,12.5-1.94,16.82-5.82,4.31-3.88,6.47-9.03,6.47-15.47v-9.65c0-5.29-2.26-9.51-6.79-12.63-4.53-3.12-10.57-4.68-18.11-4.68h-66.3v48.25h67.92Zm-103.82,108.99c-5.82-4.92-8.73-11.35-8.73-19.3v-172h112.55c20.48,0,36.92,4.26,49.32,12.77,12.4,8.51,18.6,19.97,18.6,34.34v14.19c0,6.24-1.78,12.21-5.34,17.88-3.56,5.68-8.57,10.32-15.04,13.91v.28c10.35,3.22,18.7,8.42,25.07,15.61,6.36,7.19,9.54,15.23,9.54,24.13v14.76c0,15.52-6.42,27.86-19.24,37.04-12.83,9.18-30.13,13.77-51.91,13.77h-92.18c-9.27,0-16.82-2.46-22.64-7.38Zm111.58-26.68c9.49,0,16.82-1.65,21.99-4.97,5.17-3.31,7.76-7.99,7.76-14.05v-12.49c0-5.49-2.26-9.93-6.79-13.34-4.53-3.41-10.57-5.11-18.11-5.11h-80.53v49.95h75.68Z"/>
    <path class="cls-52" d="m272.85,475.94c6.9,0,12.5-1.94,16.81-5.82,4.31-3.88,6.47-9.03,6.47-15.47v-9.65c0-5.29-2.26-9.51-6.79-12.63-4.53-3.12-10.56-4.68-18.11-4.68h-66.29v48.25h67.9Zm-103.79,108.99c-5.82-4.92-8.73-11.35-8.73-19.3v-172h112.52c20.48,0,36.91,4.26,49.31,12.77,12.39,8.51,18.59,19.97,18.59,34.34v14.19c0,6.24-1.78,12.21-5.34,17.88-3.56,5.68-8.57,10.32-15.04,13.91v.28c10.35,3.22,18.7,8.42,25.06,15.61,6.36,7.19,9.54,15.23,9.54,24.13v14.76c0,15.52-6.42,27.86-19.24,37.04-12.83,9.18-30.13,13.77-51.9,13.77h-92.15c-9.27,0-16.81-2.46-22.63-7.38Zm111.55-26.68c9.48,0,16.81-1.65,21.99-4.97,5.17-3.31,7.76-7.99,7.76-14.05v-12.49c0-5.49-2.26-9.93-6.79-13.34-4.53-3.41-10.56-5.11-18.11-5.11h-80.51v49.95h75.66Z"/>
    <path class="cls-53" d="m274,474.52c6.89,0,12.5-1.94,16.81-5.82,4.31-3.88,6.46-9.03,6.46-15.47v-9.65c0-5.29-2.26-9.51-6.79-12.63-4.53-3.12-10.56-4.68-18.1-4.68h-66.27v48.25h67.89Zm-103.77,108.99c-5.82-4.92-8.73-11.35-8.73-19.3v-172h112.5c20.47,0,36.9,4.26,49.3,12.77,12.39,8.51,18.59,19.97,18.59,34.34v14.19c0,6.24-1.78,12.21-5.33,17.88-3.56,5.68-8.57,10.32-15.03,13.91v.28c10.34,3.22,18.69,8.42,25.05,15.61,6.35,7.19,9.54,15.23,9.54,24.13v14.76c0,15.52-6.41,27.86-19.23,37.04-12.82,9.18-30.12,13.77-51.88,13.77h-92.13c-9.27,0-16.81-2.46-22.63-7.38Zm111.53-26.68c9.48,0,16.81-1.65,21.98-4.97,5.17-3.31,7.76-7.99,7.76-14.05v-12.49c0-5.49-2.26-9.93-6.79-13.34-4.53-3.41-10.56-5.11-18.1-5.11h-80.49v49.95h75.64Z"/>
    <path class="cls-38" d="m275.16,473.09c6.89,0,12.49-1.94,16.81-5.82,4.31-3.88,6.46-9.03,6.46-15.47v-9.65c0-5.29-2.26-9.51-6.79-12.63-4.52-3.12-10.56-4.68-18.1-4.68h-66.25v48.25h67.87Zm-103.74,108.99c-5.82-4.92-8.73-11.35-8.73-19.3v-172h112.47c20.47,0,36.89,4.26,49.29,12.77,12.39,8.51,18.58,19.97,18.58,34.34v14.19c0,6.24-1.78,12.21-5.33,17.88-3.56,5.68-8.56,10.32-15.03,13.91v.28c10.34,3.22,18.69,8.42,25.05,15.61,6.35,7.19,9.53,15.23,9.53,24.13v14.76c0,15.52-6.41,27.86-19.23,37.04-12.82,9.18-30.11,13.77-51.87,13.77h-92.11c-9.27,0-16.81-2.46-22.62-7.38Zm111.5-26.68c9.48,0,16.81-1.65,21.98-4.97,5.17-3.31,7.76-7.99,7.76-14.05v-12.49c0-5.49-2.26-9.93-6.79-13.34-4.53-3.41-10.56-5.11-18.1-5.11h-80.47v49.95h75.63Z"/>
    <path class="cls-22" d="m276.32,471.66c6.89,0,12.49-1.94,16.8-5.82,4.31-3.88,6.46-9.03,6.46-15.47v-9.65c0-5.29-2.26-9.51-6.79-12.63-4.52-3.12-10.56-4.68-18.09-4.68h-66.24v48.25h67.85Zm-103.72,108.99c-5.82-4.92-8.72-11.35-8.72-19.3v-172h112.44c20.46,0,36.89,4.26,49.28,12.77,12.38,8.51,18.58,19.97,18.58,34.34v14.19c0,6.24-1.78,12.21-5.33,17.88-3.55,5.68-8.56,10.32-15.02,13.91v.28c10.34,3.22,18.69,8.42,25.04,15.61,6.35,7.19,9.53,15.23,9.53,24.13v14.76c0,15.52-6.41,27.86-19.22,37.04-12.82,9.18-30.1,13.77-51.86,13.77h-92.09c-9.26,0-16.8-2.46-22.62-7.38Zm111.47-26.68c9.48,0,16.8-1.65,21.97-4.97,5.17-3.31,7.75-7.99,7.75-14.05v-12.49c0-5.49-2.26-9.93-6.79-13.34-4.52-3.41-10.56-5.11-18.09-5.11h-80.46v49.95h75.61Z"/>
    <path class="cls-21" d="m277.48,470.24c6.89,0,12.49-1.94,16.8-5.82,4.31-3.88,6.46-9.03,6.46-15.47v-9.65c0-5.29-2.26-9.51-6.78-12.63-4.52-3.12-10.55-4.68-18.09-4.68h-66.22v48.25h67.84Zm-103.69,108.99c-5.81-4.92-8.72-11.35-8.72-19.3v-172h112.42c20.46,0,36.88,4.26,49.26,12.77,12.38,8.51,18.57,19.97,18.57,34.34v14.19c0,6.24-1.78,12.21-5.33,17.88-3.55,5.68-8.56,10.32-15.02,13.91v.28c10.34,3.22,18.68,8.42,25.04,15.61,6.35,7.19,9.53,15.23,9.53,24.13v14.76c0,15.52-6.41,27.86-19.22,37.04-12.81,9.18-30.1,13.77-51.85,13.77h-92.06c-9.26,0-16.8-2.46-22.61-7.38Zm111.45-26.68c9.47,0,16.8-1.65,21.97-4.97,5.17-3.31,7.75-7.99,7.75-14.05v-12.49c0-5.49-2.26-9.93-6.78-13.34-4.52-3.41-10.55-5.11-18.09-5.11h-80.44v49.95h75.59Z"/>
    <path class="cls-29" d="m278.63,468.81c6.89,0,12.48-1.94,16.79-5.82,4.3-3.88,6.46-9.03,6.46-15.47v-9.65c0-5.29-2.26-9.51-6.78-12.63-4.52-3.12-10.55-4.68-18.09-4.68h-66.21v48.25h67.82Zm-103.67,108.99c-5.81-4.92-8.72-11.35-8.72-19.3v-172h112.39c20.45,0,36.87,4.26,49.25,12.77,12.38,8.51,18.57,19.97,18.57,34.34v14.19c0,6.24-1.78,12.21-5.33,17.88-3.55,5.68-8.56,10.32-15.02,13.91v.28c10.33,3.22,18.68,8.42,25.03,15.61,6.35,7.19,9.53,15.23,9.53,24.13v14.76c0,15.52-6.41,27.86-19.22,37.04-12.81,9.18-30.09,13.77-51.83,13.77h-92.04c-9.26,0-16.79-2.46-22.61-7.38Zm111.42-26.68c9.47,0,16.79-1.65,21.96-4.97,5.17-3.31,7.75-7.99,7.75-14.05v-12.49c0-5.49-2.26-9.93-6.78-13.34-4.52-3.41-10.55-5.11-18.09-5.11h-80.42v49.95h75.57Z"/>
    <path class="cls-31" d="m279.79,467.38c6.89,0,12.48-1.94,16.79-5.82,4.3-3.88,6.46-9.03,6.46-15.47v-9.65c0-5.29-2.26-9.51-6.78-12.63-4.52-3.12-10.55-4.68-18.08-4.68h-66.19v48.25h67.8Zm-103.64,108.99c-5.81-4.92-8.72-11.35-8.72-19.3v-172h112.36c20.45,0,36.86,4.26,49.24,12.77,12.38,8.51,18.57,19.97,18.57,34.34v14.19c0,6.24-1.78,12.21-5.33,17.88-3.55,5.68-8.56,10.32-15.01,13.91v.28c10.33,3.22,18.67,8.42,25.02,15.61,6.35,7.19,9.52,15.23,9.52,24.13v14.76c0,15.52-6.41,27.86-19.21,37.04-12.81,9.18-30.08,13.77-51.82,13.77h-92.02c-9.26,0-16.79-2.46-22.6-7.38Zm111.39-26.68c9.47,0,16.79-1.65,21.96-4.97,5.17-3.31,7.75-7.99,7.75-14.05v-12.49c0-5.49-2.26-9.93-6.78-13.34-4.52-3.41-10.55-5.11-18.08-5.11h-80.4v49.95h75.55Z"/>
    <path class="cls-25" d="m280.95,465.96c6.88,0,12.48-1.94,16.79-5.82,4.3-3.88,6.46-9.03,6.46-15.47v-9.65c0-5.29-2.26-9.51-6.78-12.63-4.52-3.12-10.55-4.68-18.08-4.68h-66.17v48.25h67.79Zm-103.62,108.99c-5.81-4.92-8.72-11.35-8.72-19.3v-172h112.34c20.44,0,36.85,4.26,49.23,12.77,12.37,8.51,18.56,19.97,18.56,34.34v14.19c0,6.24-1.78,12.21-5.33,17.88-3.55,5.68-8.55,10.32-15.01,13.91v.28c10.33,3.22,18.67,8.42,25.02,15.61,6.34,7.19,9.52,15.23,9.52,24.13v14.76c0,15.52-6.4,27.86-19.21,37.04-12.81,9.18-30.08,13.77-51.81,13.77h-92c-9.26,0-16.79-2.46-22.6-7.38Zm111.37-26.68c9.47,0,16.79-1.65,21.95-4.97,5.16-3.31,7.75-7.99,7.75-14.05v-12.49c0-5.49-2.26-9.93-6.78-13.34-4.52-3.41-10.55-5.11-18.08-5.11h-80.38v49.95h75.54Z"/>
    <path class="cls-33" d="m282.1,464.53c6.88,0,12.48-1.94,16.78-5.82,4.3-3.88,6.45-9.03,6.45-15.47v-9.65c0-5.29-2.26-9.51-6.78-12.63-4.52-3.12-10.54-4.68-18.07-4.68h-66.16v48.25h67.77Zm-103.59,108.99c-5.81-4.92-8.71-11.35-8.71-19.3v-172h112.31c20.44,0,36.84,4.26,49.22,12.77,12.37,8.51,18.56,19.97,18.56,34.34v14.19c0,6.24-1.78,12.21-5.32,17.88-3.55,5.68-8.55,10.32-15.01,13.91v.28c10.33,3.22,18.66,8.42,25.01,15.61,6.34,7.19,9.52,15.23,9.52,24.13v14.76c0,15.52-6.4,27.86-19.2,37.04-12.8,9.18-30.07,13.77-51.8,13.77h-91.98c-9.25,0-16.78-2.46-22.59-7.38Zm111.34-26.68c9.46,0,16.78-1.65,21.95-4.97,5.16-3.31,7.75-7.99,7.75-14.05v-12.49c0-5.49-2.26-9.93-6.78-13.34-4.52-3.41-10.54-5.11-18.07-5.11h-80.36v49.95h75.52Z"/>
    <path class="cls-34" d="m283.26,463.11c6.88,0,12.47-1.94,16.78-5.82,4.3-3.88,6.45-9.03,6.45-15.47v-9.65c0-5.29-2.26-9.51-6.78-12.63-4.52-3.12-10.54-4.68-18.07-4.68h-66.14v48.25h67.76Zm-103.57,108.99c-5.81-4.92-8.71-11.35-8.71-19.3v-172h112.28c20.43,0,36.83,4.26,49.2,12.77,12.37,8.51,18.55,19.97,18.55,34.34v14.19c0,6.24-1.77,12.21-5.32,17.88-3.55,5.68-8.55,10.32-15,13.91v.28c10.32,3.22,18.66,8.42,25.01,15.61,6.34,7.19,9.52,15.23,9.52,24.13v14.76c0,15.52-6.4,27.86-19.2,37.04-12.8,9.18-30.06,13.77-51.78,13.77h-91.95c-9.25,0-16.78-2.46-22.59-7.38Zm111.31-26.68c9.46,0,16.78-1.65,21.94-4.97,5.16-3.31,7.74-7.99,7.74-14.05v-12.49c0-5.49-2.26-9.93-6.78-13.34-4.52-3.41-10.54-5.11-18.07-5.11h-80.34v49.95h75.5Z"/>
    <path class="cls-35" d="m284.42,461.68c6.88,0,12.47-1.94,16.77-5.82,4.3-3.88,6.45-9.03,6.45-15.47v-9.65c0-5.29-2.26-9.51-6.77-12.63-4.52-3.12-10.54-4.68-18.06-4.68h-66.13v48.25h67.74Zm-103.54,108.99c-5.81-4.92-8.71-11.35-8.71-19.3v-172h112.25c20.43,0,36.82,4.26,49.19,12.77,12.36,8.51,18.55,19.97,18.55,34.34v14.19c0,6.24-1.77,12.21-5.32,17.88-3.55,5.68-8.55,10.32-15,13.91v.28c10.32,3.22,18.65,8.42,25,15.61,6.34,7.19,9.52,15.23,9.52,24.13v14.76c0,15.52-6.4,27.86-19.19,37.04-12.8,9.18-30.05,13.77-51.77,13.77h-91.93c-9.25,0-16.77-2.46-22.58-7.38Zm111.29-26.68c9.46,0,16.77-1.65,21.93-4.97,5.16-3.31,7.74-7.99,7.74-14.05v-12.49c0-5.49-2.26-9.93-6.77-13.34-4.52-3.41-10.54-5.11-18.06-5.11h-80.32v49.95h75.48Z"/>
    <path class="cls-27" d="m285.58,460.25c6.88,0,12.47-1.94,16.77-5.82,4.3-3.88,6.45-9.03,6.45-15.47v-9.65c0-5.29-2.26-9.51-6.77-12.63-4.51-3.12-10.54-4.68-18.06-4.68h-66.11v48.25h67.72Zm-103.52,108.99c-5.8-4.92-8.71-11.35-8.71-19.3v-172h112.23c20.42,0,36.81,4.26,49.18,12.77,12.36,8.51,18.54,19.97,18.54,34.34v14.19c0,6.24-1.77,12.2-5.32,17.88-3.55,5.68-8.55,10.32-15,13.91v.28c10.32,3.22,18.65,8.42,24.99,15.61,6.34,7.19,9.51,15.23,9.51,24.13v14.76c0,15.52-6.4,27.86-19.19,37.04-12.79,9.18-30.05,13.77-51.76,13.77h-91.91c-9.25,0-16.77-2.46-22.57-7.38Zm111.26-26.68c9.46,0,16.77-1.65,21.93-4.97,5.16-3.31,7.74-7.99,7.74-14.05v-12.49c0-5.49-2.26-9.93-6.77-13.34-4.52-3.41-10.54-5.11-18.06-5.11h-80.3v49.95h75.46Z"/>
    <path class="cls-23" d="m286.73,458.83c6.88,0,12.46-1.94,16.77-5.82,4.3-3.88,6.45-9.03,6.45-15.47v-9.65c0-5.29-2.26-9.51-6.77-12.63-4.51-3.12-10.53-4.68-18.06-4.68h-66.09v48.25h67.71Zm-103.49,108.99c-5.8-4.92-8.71-11.35-8.71-19.3v-172h112.2c20.42,0,36.81,4.26,49.17,12.77,12.36,8.51,18.54,19.97,18.54,34.34v14.19c0,6.24-1.77,12.2-5.32,17.88-3.55,5.68-8.54,10.32-14.99,13.91v.28c10.32,3.22,18.64,8.42,24.99,15.61,6.34,7.19,9.51,15.23,9.51,24.13v14.76c0,15.52-6.4,27.86-19.18,37.04-12.79,9.18-30.04,13.77-51.75,13.77h-91.89c-9.24,0-16.77-2.46-22.57-7.38Zm111.23-26.68c9.46,0,16.77-1.65,21.92-4.97,5.16-3.31,7.74-7.99,7.74-14.05v-12.49c0-5.49-2.26-9.93-6.77-13.34-4.51-3.41-10.53-5.11-18.06-5.11h-80.28v49.95h75.45Z"/>
    <path class="cls-20" d="m287.89,457.4c6.87,0,12.46-1.94,16.76-5.82,4.3-3.88,6.45-9.03,6.45-15.47v-9.65c0-5.29-2.26-9.51-6.77-12.63-4.51-3.12-10.53-4.68-18.05-4.68h-66.08v48.25h67.69Zm-103.47,108.99c-5.8-4.92-8.7-11.35-8.7-19.3v-172h112.17c20.41,0,36.8,4.26,49.16,12.77,12.35,8.51,18.53,19.97,18.53,34.34v14.19c0,6.24-1.77,12.2-5.32,17.88-3.55,5.68-8.54,10.32-14.99,13.91v.28c10.31,3.22,18.64,8.42,24.98,15.61,6.34,7.19,9.51,15.23,9.51,24.13v14.76c0,15.52-6.4,27.86-19.18,37.04-12.79,9.18-30.03,13.77-51.73,13.77h-91.87c-9.24,0-16.76-2.46-22.56-7.38Zm111.21-26.68c9.45,0,16.76-1.65,21.92-4.97,5.16-3.31,7.74-7.99,7.74-14.05v-12.49c0-5.49-2.26-9.93-6.77-13.34-4.51-3.41-10.53-5.11-18.05-5.11h-80.26v49.95h75.43Z"/>
    <path class="cls-32" d="m289.05,455.97c6.87,0,12.46-1.94,16.76-5.82,4.29-3.88,6.44-9.03,6.44-15.47v-9.65c0-5.29-2.26-9.51-6.77-12.63-4.51-3.12-10.53-4.68-18.05-4.68h-66.06v48.25h67.67Zm-103.44,108.99c-5.8-4.92-8.7-11.35-8.7-19.3v-172h112.15c20.41,0,36.79,4.26,49.14,12.77,12.35,8.51,18.53,19.97,18.53,34.34v14.19c0,6.24-1.77,12.2-5.32,17.88-3.55,5.68-8.54,10.32-14.99,13.91v.28c10.31,3.22,18.64,8.42,24.98,15.61,6.33,7.19,9.51,15.23,9.51,24.13v14.76c0,15.52-6.39,27.86-19.17,37.04-12.78,9.18-30.03,13.77-51.72,13.77h-91.84c-9.24,0-16.76-2.46-22.56-7.38Zm111.18-26.68c9.45,0,16.76-1.65,21.91-4.97,5.16-3.31,7.73-7.99,7.73-14.05v-12.49c0-5.49-2.26-9.93-6.77-13.34-4.51-3.41-10.53-5.11-18.05-5.11h-80.24v49.95h75.41Z"/>
    <path class="cls-91" d="m290.2,454.55c6.87,0,12.45-1.94,16.75-5.82,4.29-3.88,6.44-9.03,6.44-15.47v-9.65c0-5.29-2.26-9.51-6.77-12.63-4.51-3.12-10.53-4.68-18.04-4.68h-66.05v48.25h67.66Zm-103.42,108.99c-5.8-4.92-8.7-11.35-8.7-19.3v-172h112.12c20.4,0,36.78,4.26,49.13,12.77,12.35,8.51,18.53,19.97,18.53,34.34v14.19c0,6.24-1.77,12.2-5.32,17.88-3.54,5.68-8.54,10.32-14.98,13.91v.28c10.31,3.22,18.63,8.42,24.97,15.61,6.33,7.19,9.5,15.23,9.5,24.13v14.76c0,15.52-6.39,27.86-19.17,37.04-12.78,9.18-30.02,13.77-51.71,13.77h-91.82c-9.24,0-16.75-2.46-22.55-7.38Zm111.15-26.68c9.45,0,16.75-1.65,21.91-4.97,5.15-3.31,7.73-7.99,7.73-14.05v-12.49c0-5.49-2.26-9.93-6.77-13.34-4.51-3.41-10.53-5.11-18.04-5.11h-80.22v49.95h75.39Z"/>
    <path class="cls-116" d="m291.36,453.12c6.87,0,12.45-1.94,16.75-5.82,4.29-3.88,6.44-9.03,6.44-15.47v-9.65c0-5.29-2.25-9.51-6.76-12.63-4.51-3.12-10.52-4.68-18.04-4.68h-66.03v48.25h67.64Zm-103.39,108.99c-5.8-4.92-8.7-11.35-8.7-19.3v-172h112.09c20.4,0,36.77,4.26,49.12,12.77,12.35,8.51,18.52,19.97,18.52,34.34v14.19c0,6.24-1.77,12.2-5.31,17.88-3.54,5.68-8.54,10.32-14.98,13.91v.28c10.31,3.22,18.63,8.42,24.96,15.61,6.33,7.19,9.5,15.23,9.5,24.13v14.76c0,15.52-6.39,27.86-19.16,37.04-12.78,9.18-30.01,13.77-51.7,13.77h-91.8c-9.24,0-16.75-2.46-22.55-7.38Zm111.13-26.68c9.45,0,16.75-1.65,21.9-4.97,5.15-3.31,7.73-7.99,7.73-14.05v-12.49c0-5.49-2.25-9.93-6.76-13.34-4.51-3.41-10.52-5.11-18.04-5.11h-80.2v49.95h75.37Z"/>
    <path class="cls-115" d="m292.52,451.7c6.87,0,12.45-1.94,16.75-5.82,4.29-3.88,6.44-9.03,6.44-15.47v-9.65c0-5.29-2.25-9.51-6.76-12.63-4.51-3.12-10.52-4.68-18.03-4.68h-66.02v48.25h67.63Zm-103.37,108.99c-5.8-4.92-8.69-11.35-8.69-19.3v-172h112.06c20.39,0,36.76,4.26,49.11,12.77,12.34,8.51,18.52,19.97,18.52,34.34v14.19c0,6.24-1.77,12.2-5.31,17.88-3.54,5.68-8.53,10.32-14.97,13.91v.28c10.3,3.22,18.62,8.42,24.96,15.61,6.33,7.19,9.5,15.23,9.5,24.13v14.76c0,15.52-6.39,27.86-19.16,37.04-12.77,9.18-30,13.77-51.69,13.77h-91.78c-9.23,0-16.75-2.46-22.54-7.38Zm111.1-26.68c9.44,0,16.75-1.65,21.9-4.97,5.15-3.31,7.73-7.99,7.73-14.05v-12.49c0-5.49-2.25-9.93-6.76-13.34-4.51-3.41-10.52-5.11-18.03-5.11h-80.18v49.95h75.35Z"/>
    <path class="cls-37" d="m293.68,450.27c6.87,0,12.45-1.94,16.74-5.82,4.29-3.88,6.44-9.03,6.44-15.47v-9.65c0-5.29-2.25-9.51-6.76-12.63-4.51-3.12-10.52-4.68-18.03-4.68h-66v48.25h67.61Zm-103.34,108.99c-5.79-4.92-8.69-11.35-8.69-19.3v-172h112.04c20.39,0,36.75,4.26,49.1,12.77,12.34,8.51,18.51,19.97,18.51,34.34v14.19c0,6.24-1.77,12.2-5.31,17.88-3.54,5.68-8.53,10.32-14.97,13.91v.28c10.3,3.22,18.62,8.42,24.95,15.61,6.33,7.19,9.5,15.23,9.5,24.13v14.76c0,15.52-6.39,27.86-19.16,37.04-12.77,9.18-30,13.77-51.67,13.77h-91.75c-9.23,0-16.74-2.46-22.54-7.38Zm111.07-26.68c9.44,0,16.74-1.65,21.89-4.97,5.15-3.31,7.73-7.99,7.73-14.05v-12.49c0-5.49-2.25-9.93-6.76-13.34-4.51-3.41-10.52-5.11-18.03-5.11h-80.17v49.95h75.34Z"/>
    <path class="cls-41" d="m294.83,448.84c6.86,0,12.44-1.94,16.74-5.82,4.29-3.88,6.44-9.03,6.44-15.47v-9.65c0-5.29-2.25-9.51-6.76-12.63-4.51-3.12-10.52-4.68-18.02-4.68h-65.98v48.25h67.59Zm-103.32,108.99c-5.79-4.92-8.69-11.35-8.69-19.3v-172h112.01c20.38,0,36.74,4.26,49.09,12.77,12.34,8.51,18.51,19.97,18.51,34.34v14.19c0,6.24-1.77,12.2-5.31,17.88-3.54,5.68-8.53,10.32-14.97,13.91v.28c10.3,3.22,18.61,8.42,24.94,15.61,6.33,7.19,9.49,15.23,9.49,24.13v14.76c0,15.52-6.39,27.86-19.15,37.04-12.77,9.18-29.99,13.77-51.66,13.77h-91.73c-9.23,0-16.74-2.46-22.53-7.38Zm111.05-26.68c9.44,0,16.74-1.65,21.89-4.97,5.15-3.31,7.73-7.99,7.73-14.05v-12.49c0-5.49-2.25-9.93-6.76-13.34-4.51-3.41-10.52-5.11-18.02-5.11h-80.15v49.95h75.32Z"/>
    <path class="cls-42" d="m295.99,447.42c6.86,0,12.44-1.94,16.73-5.82,4.29-3.88,6.44-9.03,6.44-15.47v-9.65c0-5.29-2.25-9.51-6.76-12.63-4.5-3.12-10.51-4.68-18.02-4.68h-65.97v48.25h67.58Zm-103.3,108.99c-5.79-4.92-8.69-11.35-8.69-19.3v-172h111.98c20.38,0,36.73,4.26,49.07,12.77,12.33,8.51,18.5,19.97,18.5,34.34v14.19c0,6.24-1.77,12.2-5.31,17.88-3.54,5.68-8.53,10.32-14.96,13.91v.28c10.3,3.22,18.61,8.42,24.94,15.61,6.32,7.19,9.49,15.23,9.49,24.13v14.76c0,15.52-6.38,27.86-19.15,37.04-12.77,9.18-29.98,13.77-51.65,13.77h-91.71c-9.23,0-16.73-2.46-22.53-7.38Zm111.02-26.68c9.44,0,16.73-1.65,21.88-4.97,5.15-3.31,7.72-7.99,7.72-14.05v-12.49c0-5.49-2.25-9.93-6.76-13.34-4.51-3.41-10.51-5.11-18.02-5.11h-80.13v49.95h75.3Z"/>
    <path class="cls-90" d="m297.15,445.99c6.86,0,12.44-1.94,16.73-5.82,4.29-3.88,6.43-9.03,6.43-15.47v-9.65c0-5.29-2.25-9.51-6.76-12.63-4.5-3.12-10.51-4.68-18.02-4.68h-65.95v48.25h67.56Zm-103.27,108.99c-5.79-4.92-8.69-11.35-8.69-19.3v-172h111.96c20.37,0,36.73,4.26,49.06,12.77,12.33,8.51,18.5,19.97,18.5,34.34v14.19c0,6.24-1.77,12.2-5.31,17.88-3.54,5.68-8.53,10.32-14.96,13.91v.28c10.29,3.22,18.6,8.42,24.93,15.61,6.32,7.19,9.49,15.23,9.49,24.13v14.76c0,15.52-6.38,27.86-19.14,37.04-12.76,9.18-29.97,13.77-51.64,13.77h-91.69c-9.22,0-16.73-2.46-22.52-7.38Zm110.99-26.68c9.44,0,16.73-1.65,21.88-4.97,5.15-3.31,7.72-7.99,7.72-14.05v-12.49c0-5.49-2.25-9.93-6.76-13.34-4.5-3.41-10.51-5.11-18.02-5.11h-80.11v49.95h75.28Z"/>
    <path class="cls-26" d="m298.3,444.57c6.86,0,12.43-1.94,16.73-5.82,4.29-3.88,6.43-9.03,6.43-15.47v-9.65c0-5.29-2.25-9.51-6.75-12.63-4.5-3.12-10.51-4.68-18.01-4.68h-65.94v48.25h67.54Zm-103.25,108.99c-5.79-4.92-8.68-11.35-8.68-19.3v-172h111.93c20.37,0,36.72,4.26,49.05,12.77,12.33,8.51,18.49,19.97,18.49,34.34v14.19c0,6.24-1.77,12.2-5.31,17.88-3.54,5.68-8.52,10.32-14.96,13.91v.28c10.29,3.22,18.6,8.42,24.93,15.61,6.32,7.19,9.49,15.23,9.49,24.13v14.76c0,15.52-6.38,27.86-19.14,37.04-12.76,9.18-29.97,13.77-51.62,13.77h-91.67c-9.22,0-16.73-2.46-22.51-7.38Zm110.96-26.68c9.43,0,16.73-1.65,21.87-4.97,5.15-3.31,7.72-7.99,7.72-14.05v-12.49c0-5.49-2.25-9.93-6.75-13.34-4.5-3.41-10.51-5.11-18.01-5.11h-80.09v49.95h75.26Z"/>
    <path class="cls-28" d="m299.46,443.14c6.86,0,12.43-1.94,16.72-5.82,4.29-3.88,6.43-9.03,6.43-15.47v-9.65c0-5.29-2.25-9.51-6.75-12.63-4.5-3.12-10.51-4.68-18.01-4.68h-65.92v48.25h67.53Zm-103.22,108.99c-5.79-4.92-8.68-11.35-8.68-19.3v-172h111.9c20.36,0,36.71,4.26,49.04,12.77,12.33,8.51,18.49,19.97,18.49,34.34v14.19c0,6.24-1.77,12.2-5.31,17.88-3.54,5.68-8.52,10.32-14.95,13.91v.28c10.29,3.22,18.6,8.42,24.92,15.61,6.32,7.19,9.49,15.23,9.49,24.13v14.76c0,15.52-6.38,27.86-19.13,37.04-12.76,9.18-29.96,13.77-51.61,13.77h-91.64c-9.22,0-16.72-2.46-22.51-7.38Zm110.94-26.68c9.43,0,16.72-1.65,21.87-4.97,5.14-3.31,7.72-7.99,7.72-14.05v-12.49c0-5.49-2.25-9.93-6.75-13.34-4.5-3.41-10.51-5.11-18.01-5.11h-80.07v49.95h75.25Z"/>
    <path class="cls-24" d="m300.62,441.71c6.86,0,12.43-1.94,16.72-5.82,4.28-3.88,6.43-9.03,6.43-15.47v-9.65c0-5.29-2.25-9.51-6.75-12.63-4.5-3.12-10.5-4.68-18-4.68h-65.9v48.25h67.51Zm-103.2,108.99c-5.79-4.92-8.68-11.35-8.68-19.3v-172h111.88c20.36,0,36.7,4.26,49.03,12.77,12.32,8.51,18.49,19.97,18.49,34.34v14.19c0,6.24-1.77,12.2-5.3,17.88-3.54,5.68-8.52,10.32-14.95,13.91v.28c10.29,3.22,18.59,8.42,24.91,15.61,6.32,7.19,9.48,15.23,9.48,24.13v14.76c0,15.52-6.38,27.86-19.13,37.04-12.75,9.18-29.95,13.77-51.6,13.77h-91.62c-9.22,0-16.72-2.46-22.5-7.38Zm110.91-26.68c9.43,0,16.72-1.65,21.86-4.97,5.14-3.31,7.72-7.99,7.72-14.05v-12.49c0-5.49-2.25-9.93-6.75-13.34-4.5-3.41-10.5-5.11-18-5.11h-80.05v49.95h75.23Z"/>
    <path class="cls-30" d="m301.78,440.29c6.85,0,12.42-1.94,16.71-5.82,4.28-3.88,6.43-9.03,6.43-15.47v-9.65c0-5.29-2.25-9.51-6.75-12.63-4.5-3.12-10.5-4.68-18-4.68h-65.89v48.25h67.49Zm-103.17,108.99c-5.79-4.92-8.68-11.35-8.68-19.3v-172h111.85c20.35,0,36.69,4.26,49.01,12.77,12.32,8.51,18.48,19.97,18.48,34.34v14.19c0,6.24-1.77,12.2-5.3,17.88-3.54,5.68-8.52,10.32-14.95,13.91v.28c10.28,3.22,18.59,8.42,24.91,15.61,6.32,7.19,9.48,15.23,9.48,24.13v14.76c0,15.52-6.38,27.86-19.12,37.04-12.75,9.18-29.95,13.77-51.59,13.77h-91.6c-9.22,0-16.71-2.46-22.5-7.38Zm110.88-26.68c9.43,0,16.71-1.65,21.86-4.97,5.14-3.31,7.71-7.99,7.71-14.05v-12.49c0-5.49-2.25-9.93-6.75-13.34-4.5-3.41-10.5-5.11-18-5.11h-80.03v49.95h75.21Z"/>
    <path class="cls-102" d="m302.93,438.86c6.85,0,12.42-1.94,16.71-5.82,4.28-3.88,6.43-9.03,6.43-15.47v-9.65c0-5.29-2.25-9.51-6.75-12.63-4.5-3.12-10.5-4.68-17.99-4.68h-65.87v48.25h67.48Zm-103.15,108.99c-5.78-4.92-8.68-11.35-8.68-19.3v-172h111.82c20.35,0,36.68,4.26,49,12.77,12.32,8.51,18.48,19.97,18.48,34.34v14.19c0,6.24-1.77,12.2-5.3,17.88-3.53,5.68-8.52,10.32-14.94,13.91v.28c10.28,3.22,18.58,8.42,24.9,15.61,6.32,7.19,9.48,15.23,9.48,24.13v14.76c0,15.52-6.38,27.86-19.12,37.04-12.75,9.18-29.94,13.77-51.57,13.77h-91.58c-9.21,0-16.71-2.46-22.49-7.38Zm110.86-26.68c9.42,0,16.71-1.65,21.85-4.97,5.14-3.31,7.71-7.99,7.71-14.05v-12.49c0-5.49-2.25-9.93-6.75-13.34-4.5-3.41-10.5-5.11-17.99-5.11h-80.01v49.95h75.19Z"/>
    <path class="cls-98" d="m304.09,437.43c6.85,0,12.42-1.94,16.71-5.82,4.28-3.88,6.42-9.03,6.42-15.47v-9.65c0-5.29-2.25-9.51-6.75-12.63-4.5-3.12-10.5-4.68-17.99-4.68h-65.86v48.25h67.46Zm-103.12,108.99c-5.78-4.92-8.67-11.35-8.67-19.3v-172h111.79c20.34,0,36.67,4.26,48.99,12.77,12.31,8.51,18.47,19.97,18.47,34.34v14.19c0,6.24-1.77,12.2-5.3,17.88-3.53,5.68-8.51,10.32-14.94,13.91v.28c10.28,3.22,18.58,8.42,24.9,15.61,6.31,7.19,9.48,15.23,9.48,24.13v14.76c0,15.52-6.37,27.86-19.11,37.04-12.74,9.18-29.93,13.77-51.56,13.77h-91.56c-9.21,0-16.71-2.46-22.49-7.38Zm110.83-26.68c9.42,0,16.71-1.65,21.84-4.97,5.14-3.31,7.71-7.99,7.71-14.05v-12.49c0-5.49-2.25-9.93-6.75-13.34-4.5-3.41-10.5-5.11-17.99-5.11h-79.99v49.95h75.17Z"/>
    <path class="cls-103" d="m305.25,436.01c6.85,0,12.42-1.94,16.7-5.82,4.28-3.88,6.42-9.03,6.42-15.47v-9.65c0-5.29-2.25-9.51-6.74-12.63-4.5-3.12-10.49-4.68-17.99-4.68h-65.84v48.25h67.45Zm-103.1,108.99c-5.78-4.92-8.67-11.35-8.67-19.3v-172h111.77c20.34,0,36.66,4.26,48.98,12.77,12.31,8.51,18.47,19.97,18.47,34.34v14.19c0,6.24-1.77,12.2-5.3,17.88-3.53,5.68-8.51,10.32-14.93,13.91v.28c10.28,3.22,18.57,8.42,24.89,15.61,6.31,7.19,9.47,15.23,9.47,24.13v14.76c0,15.52-6.37,27.86-19.11,37.04-12.74,9.18-29.92,13.77-51.55,13.77h-91.53c-9.21,0-16.7-2.46-22.48-7.38Zm110.8-26.68c9.42,0,16.7-1.65,21.84-4.97,5.14-3.31,7.71-7.99,7.71-14.05v-12.49c0-5.49-2.25-9.93-6.74-13.34-4.5-3.41-10.49-5.11-17.99-5.11h-79.97v49.95h75.15Z"/>
    <path class="cls-49" d="m306.4,434.58c6.85,0,12.41-1.94,16.7-5.82,4.28-3.88,6.42-9.03,6.42-15.47v-9.65c0-5.29-2.25-9.51-6.74-12.63-4.49-3.12-10.49-4.68-17.98-4.68h-65.82v48.25h67.43Zm-103.07,108.99c-5.78-4.92-8.67-11.35-8.67-19.3v-172h111.74c20.33,0,36.65,4.26,48.97,12.77,12.31,8.51,18.46,19.97,18.46,34.34v14.19c0,6.24-1.77,12.2-5.3,17.88-3.53,5.68-8.51,10.32-14.93,13.91v.28c10.27,3.22,18.57,8.42,24.88,15.61,6.31,7.19,9.47,15.23,9.47,24.13v14.76c0,15.52-6.37,27.86-19.1,37.04-12.74,9.18-29.92,13.77-51.54,13.77h-91.51c-9.21,0-16.7-2.46-22.48-7.38Zm110.78-26.68c9.42,0,16.7-1.65,21.83-4.97,5.14-3.31,7.71-7.99,7.71-14.05v-12.49c0-5.49-2.25-9.93-6.74-13.34-4.5-3.41-10.49-5.11-17.98-5.11h-79.95v49.95h75.14Z"/>
    <path class="cls-101" d="m307.56,433.16c6.85,0,12.41-1.94,16.69-5.82,4.28-3.88,6.42-9.03,6.42-15.47v-9.65c0-5.29-2.25-9.51-6.74-12.63-4.49-3.12-10.49-4.68-17.98-4.68h-65.81v48.25h67.41Zm-103.05,108.99c-5.78-4.92-8.67-11.35-8.67-19.3v-172h111.71c20.33,0,36.65,4.26,48.95,12.77,12.3,8.51,18.46,19.97,18.46,34.34v14.19c0,6.24-1.77,12.2-5.3,17.88-3.53,5.68-8.51,10.32-14.93,13.91v.28c10.27,3.22,18.56,8.42,24.88,15.61,6.31,7.19,9.47,15.23,9.47,24.13v14.76c0,15.52-6.37,27.86-19.1,37.04-12.74,9.18-29.91,13.77-51.52,13.77h-91.49c-9.2,0-16.69-2.46-22.47-7.38Zm110.75-26.68c9.41,0,16.69-1.65,21.83-4.97,5.14-3.31,7.7-7.99,7.7-14.05v-12.49c0-5.49-2.25-9.93-6.74-13.34-4.49-3.41-10.49-5.11-17.98-5.11h-79.93v49.95h75.12Z"/>
    <path class="cls-39" d="m308.72,431.73c6.84,0,12.41-1.94,16.69-5.82,4.28-3.88,6.42-9.03,6.42-15.47v-9.65c0-5.29-2.25-9.51-6.74-12.63-4.49-3.12-10.49-4.68-17.97-4.68h-65.79v48.25h67.4Zm-103.02,108.99c-5.78-4.92-8.67-11.35-8.67-19.3v-172h111.69c20.32,0,36.64,4.26,48.94,12.77,12.3,8.51,18.45,19.97,18.45,34.34v14.19c0,6.24-1.76,12.2-5.3,17.88-3.53,5.68-8.5,10.32-14.92,13.91v.28c10.27,3.22,18.56,8.42,24.87,15.61,6.31,7.19,9.47,15.23,9.47,24.13v14.76c0,15.52-6.37,27.86-19.1,37.04-12.73,9.18-29.9,13.77-51.51,13.77h-91.47c-9.2,0-16.69-2.46-22.47-7.38Zm110.72-26.68c9.41,0,16.69-1.65,21.82-4.97,5.13-3.31,7.7-7.99,7.7-14.05v-12.49c0-5.49-2.25-9.93-6.74-13.34-4.49-3.41-10.49-5.11-17.97-5.11h-79.91v49.95h75.1Z"/>
    <path class="cls-36" d="m309.87,430.3c6.84,0,12.4-1.94,16.68-5.82,4.28-3.88,6.42-9.03,6.42-15.47v-9.65c0-5.29-2.25-9.51-6.74-12.63-4.49-3.12-10.48-4.68-17.97-4.68h-65.78v48.25h67.38Zm-103,108.99c-5.78-4.92-8.66-11.35-8.66-19.3v-172h111.66c20.32,0,36.63,4.26,48.93,12.77,12.3,8.51,18.45,19.97,18.45,34.34v14.19c0,6.24-1.76,12.2-5.29,17.88-3.53,5.68-8.5,10.32-14.92,13.91v.28c10.27,3.22,18.55,8.42,24.87,15.61,6.31,7.19,9.46,15.23,9.46,24.13v14.76c0,15.52-6.37,27.86-19.09,37.04-12.73,9.18-29.9,13.77-51.5,13.77h-91.44c-9.2,0-16.68-2.46-22.46-7.38Zm110.7-26.68c9.41,0,16.68-1.65,21.82-4.97,5.13-3.31,7.7-7.99,7.7-14.05v-12.49c0-5.49-2.25-9.93-6.74-13.34-4.49-3.41-10.48-5.11-17.97-5.11h-79.89v49.95h75.08Z"/>
    <path class="cls-83" d="m311.03,428.88c6.84,0,12.4-1.94,16.68-5.82,4.28-3.88,6.42-9.03,6.42-15.47v-9.65c0-5.29-2.25-9.51-6.74-12.63-4.49-3.12-10.48-4.68-17.96-4.68h-65.76v48.25h67.36Zm-102.97,108.99c-5.77-4.92-8.66-11.35-8.66-19.3v-172h111.63c20.31,0,36.62,4.26,48.92,12.77,12.3,8.51,18.44,19.97,18.44,34.34v14.19c0,6.24-1.76,12.2-5.29,17.88-3.53,5.68-8.5,10.32-14.92,13.91v.28c10.26,3.22,18.55,8.42,24.86,15.61,6.31,7.19,9.46,15.23,9.46,24.13v14.76c0,15.52-6.36,27.86-19.09,37.04-12.73,9.18-29.89,13.77-51.49,13.77h-91.42c-9.2,0-16.68-2.46-22.46-7.38Zm110.67-26.68c9.41,0,16.68-1.65,21.81-4.97,5.13-3.31,7.7-7.99,7.7-14.05v-12.49c0-5.49-2.25-9.93-6.74-13.34-4.49-3.41-10.48-5.11-17.96-5.11h-79.88v49.95h75.06Z"/>
    <path class="cls-95" d="m312.19,427.45c6.84,0,12.4-1.94,16.68-5.82,4.27-3.88,6.41-9.03,6.41-15.47v-9.65c0-5.29-2.25-9.51-6.74-12.63-4.49-3.12-10.48-4.68-17.96-4.68h-65.74v48.25h67.35Zm-102.95,108.99c-5.77-4.92-8.66-11.35-8.66-19.3v-172h111.6c20.31,0,36.61,4.26,48.91,12.77,12.29,8.51,18.44,19.97,18.44,34.34v14.19c0,6.24-1.76,12.2-5.29,17.88-3.53,5.68-8.5,10.32-14.91,13.91v.28c10.26,3.22,18.55,8.42,24.85,15.61,6.3,7.19,9.46,15.23,9.46,24.13v14.76c0,15.52-6.36,27.86-19.08,37.04-12.72,9.18-29.88,13.77-51.47,13.77h-91.4c-9.2,0-16.68-2.46-22.45-7.38Zm110.64-26.68c9.41,0,16.68-1.65,21.81-4.97,5.13-3.31,7.7-7.99,7.7-14.05v-12.49c0-5.49-2.25-9.93-6.74-13.34-4.49-3.41-10.48-5.11-17.96-5.11h-79.86v49.95h75.05Z"/>
    <path class="cls-94" d="m313.35,426.02c6.84,0,12.39-1.94,16.67-5.82,4.27-3.88,6.41-9.03,6.41-15.47v-9.65c0-5.29-2.24-9.51-6.73-12.63-4.49-3.12-10.48-4.68-17.96-4.68h-65.73v48.25h67.33Zm-102.92,108.99c-5.77-4.92-8.66-11.35-8.66-19.3v-172h111.58c20.31,0,36.6,4.26,48.9,12.77,12.29,8.51,18.44,19.97,18.44,34.34v14.19c0,6.24-1.76,12.2-5.29,17.88-3.53,5.68-8.5,10.32-14.91,13.91v.28c10.26,3.22,18.54,8.42,24.85,15.61,6.3,7.19,9.46,15.23,9.46,24.13v14.76c0,15.52-6.36,27.86-19.08,37.04-12.72,9.18-29.87,13.77-51.46,13.77h-91.38c-9.19,0-16.67-2.46-22.44-7.38Zm110.62-26.68c9.4,0,16.67-1.65,21.8-4.97,5.13-3.31,7.7-7.99,7.7-14.05v-12.49c0-5.49-2.24-9.93-6.73-13.34-4.49-3.41-10.48-5.11-17.96-5.11h-79.84v49.95h75.03Z"/>
    <path class="cls-87" d="m314.5,424.6c6.84,0,12.39-1.94,16.67-5.82,4.27-3.88,6.41-9.03,6.41-15.47v-9.65c0-5.29-2.24-9.51-6.73-12.63-4.49-3.12-10.47-4.68-17.95-4.68h-65.71v48.25h67.32Zm-102.9,108.99c-5.77-4.92-8.65-11.35-8.65-19.3v-172h111.55c20.3,0,36.59,4.26,48.88,12.77,12.29,8.51,18.43,19.97,18.43,34.34v14.19c0,6.24-1.76,12.2-5.29,17.88-3.53,5.68-8.49,10.32-14.91,13.91v.28c10.26,3.22,18.54,8.42,24.84,15.61,6.3,7.19,9.46,15.23,9.46,24.13v14.76c0,15.52-6.36,27.86-19.07,37.04-12.72,9.18-29.87,13.77-51.45,13.77h-91.36c-9.19,0-16.67-2.46-22.44-7.38Zm110.59-26.68c9.4,0,16.67-1.65,21.8-4.97,5.13-3.31,7.69-7.99,7.69-14.05v-12.49c0-5.49-2.24-9.93-6.73-13.34-4.49-3.41-10.47-5.11-17.95-5.11h-79.82v49.95h75.01Z"/>
    <path class="cls-99" d="m315.66,423.17c6.83,0,12.39-1.94,16.66-5.82,4.27-3.88,6.41-9.03,6.41-15.47v-9.65c0-5.29-2.24-9.51-6.73-12.63-4.49-3.12-10.47-4.68-17.95-4.68h-65.7v48.25h67.3Zm-102.87,108.99c-5.77-4.92-8.65-11.35-8.65-19.3v-172h111.52c20.3,0,36.58,4.26,48.87,12.77,12.28,8.51,18.43,19.97,18.43,34.34v14.19c0,6.24-1.76,12.2-5.29,17.88-3.53,5.68-8.49,10.32-14.9,13.91v.28c10.25,3.22,18.53,8.42,24.84,15.61,6.3,7.19,9.45,15.23,9.45,24.13v14.76c0,15.52-6.36,27.86-19.07,37.04-12.71,9.18-29.86,13.77-51.44,13.77h-91.33c-9.19,0-16.66-2.46-22.43-7.38Zm110.56-26.68c9.4,0,16.66-1.65,21.79-4.97,5.13-3.31,7.69-7.99,7.69-14.05v-12.49c0-5.49-2.24-9.93-6.73-13.34-4.49-3.41-10.47-5.11-17.95-5.11h-79.8v49.95h74.99Z"/>
    <path class="cls-44" d="m316.82,421.75c6.83,0,12.38-1.94,16.66-5.82,4.27-3.88,6.41-9.03,6.41-15.47v-9.65c0-5.29-2.24-9.51-6.73-12.63-4.48-3.12-10.47-4.68-17.94-4.68h-65.68v48.25h67.28Zm-102.85,108.99c-5.77-4.92-8.65-11.35-8.65-19.3v-172h111.5c20.29,0,36.57,4.26,48.86,12.77,12.28,8.51,18.42,19.97,18.42,34.34v14.19c0,6.24-1.76,12.2-5.29,17.88-3.52,5.68-8.49,10.32-14.9,13.91v.28c10.25,3.22,18.53,8.42,24.83,15.61,6.3,7.19,9.45,15.23,9.45,24.13v14.76c0,15.52-6.36,27.86-19.06,37.04-12.71,9.18-29.85,13.77-51.42,13.77h-91.31c-9.19,0-16.66-2.46-22.43-7.38Zm110.54-26.68c9.4,0,16.66-1.65,21.79-4.97,5.13-3.31,7.69-7.99,7.69-14.05v-12.49c0-5.49-2.24-9.93-6.73-13.34-4.49-3.41-10.47-5.11-17.94-5.11h-79.78v49.95h74.97Z"/>
    <path class="cls-40" d="m317.97,420.32c6.83,0,12.38-1.94,16.66-5.82,4.27-3.88,6.41-9.03,6.41-15.47v-9.65c0-5.29-2.24-9.51-6.73-12.63-4.48-3.12-10.47-4.68-17.94-4.68h-65.66v48.25h67.27Zm-102.82,108.99c-5.77-4.92-8.65-11.35-8.65-19.3v-172h111.47c20.29,0,36.57,4.26,48.85,12.77,12.28,8.51,18.42,19.97,18.42,34.34v14.19c0,6.24-1.76,12.2-5.28,17.88-3.52,5.68-8.49,10.32-14.89,13.91v.28c10.25,3.22,18.52,8.42,24.82,15.61,6.3,7.19,9.45,15.23,9.45,24.13v14.76c0,15.52-6.36,27.86-19.06,37.04-12.71,9.18-29.84,13.77-51.41,13.77h-91.29c-9.18,0-16.66-2.46-22.42-7.38Zm110.51-26.68c9.39,0,16.66-1.65,21.78-4.97,5.12-3.31,7.69-7.99,7.69-14.05v-12.49c0-5.49-2.24-9.93-6.73-13.34-4.48-3.41-10.47-5.11-17.94-5.11h-79.76v49.95h74.95Z"/>
    <path class="cls-97" d="m319.13,418.89c6.83,0,12.38-1.94,16.65-5.82,4.27-3.88,6.4-9.03,6.4-15.47v-9.65c0-5.29-2.24-9.51-6.73-12.63-4.48-3.12-10.46-4.68-17.93-4.68h-65.65v48.25h67.25Zm-102.8,108.99c-5.76-4.92-8.65-11.35-8.65-19.3v-172h111.44c20.28,0,36.56,4.26,48.84,12.77,12.27,8.51,18.41,19.97,18.41,34.34v14.19c0,6.24-1.76,12.2-5.28,17.88-3.52,5.68-8.49,10.32-14.89,13.91v.28c10.25,3.22,18.52,8.42,24.82,15.61,6.29,7.19,9.45,15.23,9.45,24.13v14.76c0,15.52-6.35,27.86-19.05,37.04-12.7,9.18-29.84,13.77-51.4,13.77h-91.27c-9.18,0-16.65-2.46-22.42-7.38Zm110.48-26.68c9.39,0,16.65-1.65,21.78-4.97,5.12-3.31,7.69-7.99,7.69-14.05v-12.49c0-5.49-2.24-9.93-6.73-13.34-4.48-3.41-10.46-5.11-17.93-5.11h-79.74v49.95h74.94Z"/>
    <path class="cls-96" d="m320.29,417.47c6.83,0,12.38-1.94,16.65-5.82,4.27-3.88,6.4-9.03,6.4-15.47v-9.65c0-5.29-2.24-9.51-6.72-12.63-4.48-3.12-10.46-4.68-17.93-4.68h-65.63v48.25h67.23Zm-102.77,108.99c-5.76-4.92-8.64-11.35-8.64-19.3v-172h111.42c20.28,0,36.55,4.26,48.82,12.77,12.27,8.51,18.41,19.97,18.41,34.34v14.19c0,6.24-1.76,12.2-5.28,17.88-3.52,5.68-8.48,10.32-14.89,13.91v.28c10.24,3.22,18.51,8.42,24.81,15.61,6.29,7.19,9.44,15.23,9.44,24.13v14.76c0,15.52-6.35,27.86-19.05,37.04-12.7,9.18-29.83,13.77-51.39,13.77h-91.25c-9.18,0-16.65-2.46-22.41-7.38Zm110.46-26.68c9.39,0,16.65-1.65,21.77-4.97,5.12-3.31,7.68-7.99,7.68-14.05v-12.49c0-5.49-2.24-9.93-6.72-13.34-4.48-3.41-10.46-5.11-17.93-5.11h-79.72v49.95h74.92Z"/>
    <path class="cls-43" d="m321.45,416.04c6.83,0,12.37-1.94,16.64-5.82,4.27-3.88,6.4-9.03,6.4-15.47v-9.65c0-5.29-2.24-9.51-6.72-12.63-4.48-3.12-10.46-4.68-17.92-4.68h-65.62v48.25h67.22Zm-102.75,108.99c-5.76-4.92-8.64-11.35-8.64-19.3v-172h111.39c20.27,0,36.54,4.26,48.81,12.77,12.27,8.51,18.4,19.97,18.4,34.34v14.19c0,6.24-1.76,12.2-5.28,17.88-3.52,5.68-8.48,10.32-14.88,13.91v.28c10.24,3.22,18.51,8.42,24.81,15.61,6.29,7.19,9.44,15.23,9.44,24.13v14.76c0,15.52-6.35,27.86-19.04,37.04-12.7,9.18-29.82,13.77-51.37,13.77h-91.22c-9.18,0-16.64-2.46-22.41-7.38Zm110.43-26.68c9.39,0,16.64-1.65,21.77-4.97,5.12-3.31,7.68-7.99,7.68-14.05v-12.49c0-5.49-2.24-9.93-6.72-13.34-4.48-3.41-10.46-5.11-17.92-5.11h-79.7v49.95h74.9Z"/>
    <path class="cls-85" d="m322.6,414.61c6.82,0,12.37-1.94,16.64-5.82,4.26-3.88,6.4-9.03,6.4-15.47v-9.65c0-5.29-2.24-9.51-6.72-12.63-4.48-3.12-10.46-4.68-17.92-4.68h-65.6v48.25h67.2Zm-102.72,108.99c-5.76-4.92-8.64-11.35-8.64-19.3v-172h111.36c20.27,0,36.53,4.26,48.8,12.77,12.27,8.51,18.4,19.97,18.4,34.34v14.19c0,6.24-1.76,12.2-5.28,17.88-3.52,5.68-8.48,10.32-14.88,13.91v.28c10.24,3.22,18.51,8.42,24.8,15.61,6.29,7.19,9.44,15.23,9.44,24.13v14.76c0,15.52-6.35,27.86-19.04,37.04-12.7,9.18-29.82,13.77-51.36,13.77h-91.2c-9.18,0-16.64-2.46-22.4-7.38Zm110.4-26.68c9.38,0,16.64-1.65,21.76-4.97,5.12-3.31,7.68-7.99,7.68-14.05v-12.49c0-5.49-2.24-9.93-6.72-13.34-4.48-3.41-10.46-5.11-17.92-5.11h-79.68v49.95h74.88Z"/>
    <path class="cls-100" d="m323.76,413.19c6.82,0,12.37-1.94,16.64-5.82,4.26-3.88,6.4-9.03,6.4-15.47v-9.65c0-5.29-2.24-9.51-6.72-12.63-4.48-3.12-10.45-4.68-17.92-4.68h-65.59v48.25h67.19Zm-102.7,108.99c-5.76-4.92-8.64-11.35-8.64-19.3v-172h111.33c20.26,0,36.52,4.26,48.79,12.77,12.26,8.51,18.4,19.97,18.4,34.34v14.19c0,6.24-1.76,12.2-5.28,17.88-3.52,5.68-8.48,10.32-14.88,13.91v.28c10.24,3.22,18.5,8.42,24.79,15.61,6.29,7.19,9.44,15.23,9.44,24.13v14.76c0,15.52-6.35,27.86-19.04,37.04-12.69,9.18-29.81,13.77-51.35,13.77h-91.18c-9.17,0-16.64-2.46-22.4-7.38Zm110.38-26.68c9.38,0,16.64-1.65,21.75-4.97,5.12-3.31,7.68-7.99,7.68-14.05v-12.49c0-5.49-2.24-9.93-6.72-13.34-4.48-3.41-10.45-5.11-17.92-5.11h-79.66v49.95h74.86Z"/>
    <path class="cls-86" d="m324.92,411.76c6.82,0,12.36-1.94,16.63-5.82,4.26-3.88,6.4-9.03,6.4-15.47v-9.65c0-5.29-2.24-9.51-6.72-12.63-4.48-3.12-10.45-4.68-17.91-4.68h-65.57v48.25h67.17Zm-102.67,108.99c-5.76-4.92-8.64-11.35-8.64-19.3v-172h111.31c20.26,0,36.51,4.26,48.78,12.77,12.26,8.51,18.39,19.97,18.39,34.34v14.19c0,6.24-1.76,12.2-5.28,17.88-3.52,5.68-8.48,10.32-14.87,13.91v.28c10.23,3.22,18.5,8.42,24.79,15.61,6.29,7.19,9.43,15.23,9.43,24.13v14.76c0,15.52-6.35,27.86-19.03,37.04-12.69,9.18-29.8,13.77-51.34,13.77h-91.16c-9.17,0-16.63-2.46-22.39-7.38Zm110.35-26.68c9.38,0,16.63-1.65,21.75-4.97,5.12-3.31,7.68-7.99,7.68-14.05v-12.49c0-5.49-2.24-9.93-6.72-13.34-4.48-3.41-10.45-5.11-17.91-5.11h-79.64v49.95h74.85Z"/>
    <path class="cls-45" d="m326.07,410.34c6.82,0,12.36-1.94,16.63-5.82,4.26-3.88,6.4-9.03,6.4-15.47v-9.65c0-5.29-2.24-9.51-6.72-12.63-4.48-3.12-10.45-4.68-17.91-4.68h-65.55v48.25h67.15Zm-102.65,108.99c-5.76-4.92-8.63-11.35-8.63-19.3v-172h111.28c20.25,0,36.5,4.26,48.76,12.77,12.26,8.51,18.39,19.97,18.39,34.34v14.19c0,6.24-1.76,12.2-5.28,17.88-3.52,5.68-8.47,10.32-14.87,13.91v.28c10.23,3.22,18.49,8.42,24.78,15.61,6.29,7.19,9.43,15.23,9.43,24.13v14.76c0,15.52-6.34,27.86-19.03,37.04-12.69,9.18-29.79,13.77-51.32,13.77h-91.13c-9.17,0-16.63-2.46-22.38-7.38Zm110.32-26.68c9.38,0,16.63-1.65,21.74-4.97,5.12-3.31,7.67-7.99,7.67-14.05v-12.49c0-5.49-2.24-9.93-6.72-13.34-4.48-3.41-10.45-5.11-17.91-5.11h-79.62v49.95h74.83Z"/>
    <path class="cls-73" d="m327.23,408.91c6.82,0,12.36-1.94,16.62-5.82,4.26-3.88,6.39-9.03,6.39-15.47v-9.65c0-5.29-2.24-9.51-6.71-12.63-4.47-3.12-10.44-4.68-17.9-4.68h-65.54v48.25h67.14Zm-102.62,108.99c-5.75-4.92-8.63-11.35-8.63-19.3v-172h111.25c20.25,0,36.49,4.26,48.75,12.77,12.25,8.51,18.38,19.97,18.38,34.34v14.19c0,6.24-1.76,12.2-5.27,17.88-3.52,5.68-8.47,10.32-14.87,13.91v.28c10.23,3.22,18.49,8.42,24.78,15.61,6.28,7.19,9.43,15.23,9.43,24.13v14.76c0,15.52-6.34,27.86-19.02,37.04-12.68,9.18-29.79,13.77-51.31,13.77h-91.11c-9.17,0-16.62-2.46-22.38-7.38Zm110.29-26.68c9.38,0,16.62-1.65,21.74-4.97,5.11-3.31,7.67-7.99,7.67-14.05v-12.49c0-5.49-2.24-9.93-6.71-13.34-4.48-3.41-10.44-5.11-17.9-5.11h-79.6v49.95h74.81Z"/>
    <path class="cls-78" d="m328.39,407.48c6.82,0,12.35-1.94,16.62-5.82,4.26-3.88,6.39-9.03,6.39-15.47v-9.65c0-5.29-2.24-9.51-6.71-12.63-4.47-3.12-10.44-4.68-17.9-4.68h-65.52v48.25h67.12Zm-102.6,108.99c-5.75-4.92-8.63-11.35-8.63-19.3v-172h111.23c20.24,0,36.49,4.26,48.74,12.77,12.25,8.51,18.38,19.97,18.38,34.34v14.19c0,6.24-1.76,12.2-5.27,17.88-3.52,5.68-8.47,10.32-14.86,13.91v.28c10.23,3.22,18.48,8.42,24.77,15.61,6.28,7.19,9.43,15.23,9.43,24.13v14.76c0,15.52-6.34,27.86-19.02,37.04-12.68,9.18-29.78,13.77-51.3,13.77h-91.09c-9.16,0-16.62-2.46-22.37-7.38Zm110.27-26.68c9.37,0,16.62-1.65,21.73-4.97,5.11-3.31,7.67-7.99,7.67-14.05v-12.49c0-5.49-2.24-9.93-6.71-13.34-4.47-3.41-10.44-5.11-17.9-5.11h-79.58v49.95h74.79Z"/>
    <path class="cls-80" d="m329.55,406.06c6.81,0,12.35-1.94,16.62-5.82,4.26-3.88,6.39-9.03,6.39-15.47v-9.65c0-5.29-2.24-9.51-6.71-12.63-4.47-3.12-10.44-4.68-17.89-4.68h-65.51v48.25h67.1Zm-102.57,108.99c-5.75-4.92-8.63-11.35-8.63-19.3v-172h111.2c20.24,0,36.48,4.26,48.73,12.77,12.25,8.51,18.37,19.97,18.37,34.34v14.19c0,6.24-1.76,12.2-5.27,17.88-3.51,5.68-8.47,10.32-14.86,13.91v.28c10.22,3.22,18.48,8.42,24.76,15.61,6.28,7.19,9.43,15.23,9.43,24.13v14.76c0,15.52-6.34,27.86-19.01,37.04-12.68,9.18-29.77,13.77-51.29,13.77h-91.07c-9.16,0-16.62-2.46-22.37-7.38Zm110.24-26.68c9.37,0,16.62-1.65,21.73-4.97,5.11-3.31,7.67-7.99,7.67-14.05v-12.49c0-5.49-2.24-9.93-6.71-13.34-4.47-3.41-10.44-5.11-17.89-5.11h-79.57v49.95h74.77Z"/>
    <path class="cls-76" d="m330.7,404.63c6.81,0,12.35-1.94,16.61-5.82,4.26-3.88,6.39-9.03,6.39-15.47v-9.65c0-5.29-2.24-9.51-6.71-12.63-4.47-3.12-10.44-4.68-17.89-4.68h-65.49v48.25h67.09Zm-102.55,108.99c-5.75-4.92-8.63-11.35-8.63-19.3v-172h111.17c20.23,0,36.47,4.26,48.72,12.77,12.24,8.51,18.37,19.97,18.37,34.34v14.19c0,6.24-1.76,12.2-5.27,17.88-3.51,5.68-8.47,10.32-14.85,13.91v.28c10.22,3.22,18.47,8.42,24.76,15.61,6.28,7.19,9.42,15.23,9.42,24.13v14.76c0,15.52-6.34,27.86-19.01,37.04-12.67,9.18-29.76,13.77-51.27,13.77h-91.05c-9.16,0-16.61-2.46-22.36-7.38Zm110.21-26.68c9.37,0,16.61-1.65,21.72-4.97,5.11-3.31,7.67-7.99,7.67-14.05v-12.49c0-5.49-2.24-9.93-6.71-13.34-4.47-3.41-10.44-5.11-17.89-5.11h-79.55v49.95h74.75Z"/>
    <path class="cls-66" d="m331.86,403.2c6.81,0,12.35-1.94,16.61-5.82,4.26-3.88,6.39-9.03,6.39-15.47v-9.65c0-5.29-2.24-9.51-6.71-12.63-4.47-3.12-10.43-4.68-17.89-4.68h-65.47v48.25h67.07Zm-102.52,108.99c-5.75-4.92-8.62-11.35-8.62-19.3v-172h111.15c20.23,0,36.46,4.26,48.71,12.77,12.24,8.51,18.36,19.97,18.36,34.34v14.19c0,6.24-1.76,12.2-5.27,17.88-3.51,5.68-8.46,10.32-14.85,13.91v.28c10.22,3.22,18.47,8.42,24.75,15.61,6.28,7.19,9.42,15.23,9.42,24.13v14.76c0,15.52-6.34,27.86-19,37.04-12.67,9.18-29.76,13.77-51.26,13.77h-91.02c-9.16,0-16.61-2.46-22.36-7.38Zm110.19-26.68c9.37,0,16.61-1.65,21.72-4.97,5.11-3.31,7.67-7.99,7.67-14.05v-12.49c0-5.49-2.24-9.93-6.71-13.34-4.47-3.41-10.43-5.11-17.89-5.11h-79.53v49.95h74.74Z"/>
    <path class="cls-74" d="m333.02,401.78c6.81,0,12.34-1.94,16.6-5.82,4.26-3.88,6.39-9.03,6.39-15.47v-9.65c0-5.29-2.24-9.51-6.71-12.63-4.47-3.12-10.43-4.68-17.88-4.68h-65.46v48.25h67.05Zm-102.5,108.99c-5.75-4.92-8.62-11.35-8.62-19.3v-172h111.12c20.22,0,36.45,4.26,48.69,12.77,12.24,8.51,18.36,19.97,18.36,34.34v14.19c0,6.24-1.76,12.2-5.27,17.88-3.51,5.68-8.46,10.32-14.85,13.91v.28c10.22,3.22,18.46,8.42,24.75,15.61,6.28,7.19,9.42,15.23,9.42,24.13v14.76c0,15.52-6.34,27.86-19,37.04-12.67,9.18-29.75,13.77-51.25,13.77h-91c-9.16,0-16.6-2.46-22.35-7.38Zm110.16-26.68c9.36,0,16.6-1.65,21.71-4.97,5.11-3.31,7.66-7.99,7.66-14.05v-12.49c0-5.49-2.24-9.93-6.71-13.34-4.47-3.41-10.43-5.11-17.88-5.11h-79.51v49.95h74.72Z"/>
    <path class="cls-75" d="m334.17,400.35c6.81,0,12.34-1.94,16.6-5.82,4.25-3.88,6.38-9.03,6.38-15.47v-9.65c0-5.29-2.24-9.51-6.7-12.63-4.47-3.12-10.43-4.68-17.88-4.68h-65.44v48.25h67.04Zm-102.47,108.99c-5.75-4.92-8.62-11.35-8.62-19.3v-172h111.09c20.22,0,36.44,4.26,48.68,12.77,12.24,8.51,18.36,19.97,18.36,34.34v14.19c0,6.24-1.76,12.2-5.27,17.88-3.51,5.68-8.46,10.32-14.84,13.91v.28c10.21,3.22,18.46,8.42,24.74,15.61,6.27,7.19,9.42,15.23,9.42,24.13v14.76c0,15.52-6.33,27.86-18.99,37.04-12.66,9.18-29.74,13.77-51.24,13.77h-90.98c-9.15,0-16.6-2.46-22.35-7.38Zm110.13-26.68c9.36,0,16.6-1.65,21.71-4.97,5.11-3.31,7.66-7.99,7.66-14.05v-12.49c0-5.49-2.24-9.93-6.7-13.34-4.47-3.41-10.43-5.11-17.88-5.11h-79.49v49.95h74.7Z"/>
    <path class="cls-71" d="m335.33,398.93c6.81,0,12.34-1.94,16.6-5.82,4.25-3.88,6.38-9.03,6.38-15.47v-9.65c0-5.29-2.23-9.51-6.7-12.63-4.47-3.12-10.43-4.68-17.87-4.68h-65.43v48.25h67.02Zm-102.45,108.99c-5.74-4.92-8.62-11.35-8.62-19.3v-172h111.06c20.21,0,36.43,4.26,48.67,12.77,12.23,8.51,18.35,19.97,18.35,34.34v14.19c0,6.24-1.75,12.2-5.27,17.88-3.51,5.68-8.46,10.32-14.84,13.91v.28c10.21,3.22,18.46,8.42,24.73,15.61,6.27,7.19,9.41,15.23,9.41,24.13v14.76c0,15.52-6.33,27.86-18.99,37.04-12.66,9.18-29.74,13.77-51.22,13.77h-90.96c-9.15,0-16.6-2.46-22.34-7.38Zm110.11-26.68c9.36,0,16.6-1.65,21.7-4.97,5.11-3.31,7.66-7.99,7.66-14.05v-12.49c0-5.49-2.23-9.93-6.7-13.34-4.47-3.41-10.43-5.11-17.87-5.11h-79.47v49.95h74.68Z"/>
    <path class="cls-92" d="m336.49,397.5c6.8,0,12.33-1.94,16.59-5.82,4.25-3.88,6.38-9.03,6.38-15.47v-9.65c0-5.29-2.23-9.51-6.7-12.63-4.47-3.12-10.42-4.68-17.87-4.68h-65.41v48.25h67.01Zm-102.42,108.99c-5.74-4.92-8.61-11.35-8.61-19.3v-172h111.04c20.21,0,36.42,4.26,48.66,12.77,12.23,8.51,18.35,19.97,18.35,34.34v14.19c0,6.24-1.75,12.2-5.26,17.88-3.51,5.68-8.46,10.32-14.84,13.91v.28c10.21,3.22,18.45,8.42,24.73,15.61,6.27,7.19,9.41,15.23,9.41,24.13v14.76c0,15.52-6.33,27.86-18.98,37.04-12.66,9.18-29.73,13.77-51.21,13.77h-90.93c-9.15,0-16.59-2.46-22.34-7.38Zm110.08-26.68c9.36,0,16.59-1.65,21.7-4.97,5.1-3.31,7.66-7.99,7.66-14.05v-12.49c0-5.49-2.23-9.93-6.7-13.34-4.47-3.41-10.42-5.11-17.87-5.11h-79.45v49.95h74.66Z"/>
    <path class="cls-82" d="m337.64,396.07c6.8,0,12.33-1.94,16.59-5.82,4.25-3.88,6.38-9.03,6.38-15.47v-9.65c0-5.29-2.23-9.51-6.7-12.63-4.46-3.12-10.42-4.68-17.86-4.68h-65.39v48.25h66.99Zm-102.4,108.99c-5.74-4.92-8.61-11.35-8.61-19.3v-172h111.01c20.2,0,36.41,4.26,48.65,12.77,12.23,8.51,18.34,19.97,18.34,34.34v14.19c0,6.24-1.75,12.2-5.26,17.88-3.51,5.68-8.45,10.32-14.83,13.91v.28c10.21,3.22,18.45,8.42,24.72,15.61,6.27,7.19,9.41,15.23,9.41,24.13v14.76c0,15.52-6.33,27.86-18.98,37.04-12.66,9.18-29.72,13.77-51.2,13.77h-90.91c-9.15,0-16.59-2.46-22.33-7.38Zm110.05-26.68c9.35,0,16.59-1.65,21.69-4.97,5.1-3.31,7.66-7.99,7.66-14.05v-12.49c0-5.49-2.23-9.93-6.7-13.34-4.47-3.41-10.42-5.11-17.86-5.11h-79.43v49.95h74.65Z"/>
    <path class="cls-88" d="m338.8,394.65c6.8,0,12.33-1.94,16.58-5.82,4.25-3.88,6.38-9.03,6.38-15.47v-9.65c0-5.29-2.23-9.51-6.7-12.63-4.46-3.12-10.42-4.68-17.86-4.68h-65.38v48.25h66.97Zm-102.37,108.99c-5.74-4.92-8.61-11.35-8.61-19.3v-172h110.98c20.2,0,36.41,4.26,48.63,12.77,12.22,8.51,18.34,19.97,18.34,34.34v14.19c0,6.24-1.75,12.2-5.26,17.88-3.51,5.68-8.45,10.32-14.83,13.91v.28c10.2,3.22,18.44,8.42,24.72,15.61,6.27,7.19,9.41,15.23,9.41,24.13v14.76c0,15.52-6.33,27.86-18.97,37.04-12.65,9.18-29.71,13.77-51.19,13.77h-90.89c-9.14,0-16.58-2.46-22.32-7.38Zm110.03-26.68c9.35,0,16.58-1.65,21.69-4.97,5.1-3.31,7.65-7.99,7.65-14.05v-12.49c0-5.49-2.23-9.93-6.7-13.34-4.46-3.41-10.42-5.11-17.86-5.11h-79.41v49.95h74.63Z"/>
    <path class="cls-84" d="m339.96,393.22c6.8,0,12.32-1.94,16.58-5.82,4.25-3.88,6.38-9.03,6.38-15.47v-9.65c0-5.29-2.23-9.51-6.7-12.63-4.46-3.12-10.42-4.68-17.85-4.68h-65.36v48.25h66.96Zm-102.35,108.99c-5.74-4.92-8.61-11.35-8.61-19.3v-172h110.96c20.19,0,36.4,4.26,48.62,12.77,12.22,8.51,18.33,19.97,18.33,34.34v14.19c0,6.24-1.75,12.2-5.26,17.88-3.51,5.68-8.45,10.32-14.83,13.91v.28c10.2,3.22,18.44,8.42,24.71,15.61,6.27,7.19,9.41,15.23,9.41,24.13v14.76c0,15.52-6.33,27.86-18.97,37.04-12.65,9.18-29.71,13.77-51.17,13.77h-90.87c-9.14,0-16.58-2.46-22.32-7.38Zm110-26.68c9.35,0,16.58-1.65,21.68-4.97,5.1-3.31,7.65-7.99,7.65-14.05v-12.49c0-5.49-2.23-9.93-6.7-13.34-4.46-3.41-10.42-5.11-17.85-5.11h-79.39v49.95h74.61Z"/>
    <path class="cls-93" d="m341.12,391.8c6.8,0,12.32-1.94,16.58-5.82,4.25-3.88,6.38-9.03,6.38-15.47v-9.65c0-5.29-2.23-9.51-6.69-12.63-4.46-3.12-10.41-4.68-17.85-4.68h-65.35v48.25h66.94Zm-102.32,108.99c-5.74-4.92-8.61-11.35-8.61-19.3v-172h110.93c20.19,0,36.39,4.26,48.61,12.77,12.22,8.51,18.33,19.97,18.33,34.34v14.19c0,6.24-1.75,12.2-5.26,17.88-3.51,5.68-8.45,10.32-14.82,13.91v.28c10.2,3.22,18.43,8.42,24.7,15.61,6.27,7.19,9.4,15.23,9.4,24.13v14.76c0,15.52-6.32,27.86-18.97,37.04-12.65,9.18-29.7,13.77-51.16,13.77h-90.85c-9.14,0-16.58-2.46-22.31-7.38Zm109.97-26.68c9.35,0,16.58-1.65,21.68-4.97,5.1-3.31,7.65-7.99,7.65-14.05v-12.49c0-5.49-2.23-9.93-6.69-13.34-4.46-3.41-10.41-5.11-17.85-5.11h-79.37v49.95h74.59Z"/>
    <path class="cls-70" d="m342.27,390.37c6.8,0,12.32-1.94,16.57-5.82,4.25-3.88,6.37-9.03,6.37-15.47v-9.65c0-5.29-2.23-9.51-6.69-12.63-4.46-3.12-10.41-4.68-17.85-4.68h-65.33v48.25h66.92Zm-102.3,108.99c-5.74-4.92-8.6-11.35-8.6-19.3v-172h110.9c20.18,0,36.38,4.26,48.6,12.77,12.22,8.51,18.32,19.97,18.32,34.34v14.19c0,6.24-1.75,12.2-5.26,17.88-3.51,5.68-8.45,10.32-14.82,13.91v.28c10.2,3.22,18.43,8.42,24.7,15.61,6.26,7.19,9.4,15.23,9.4,24.13v14.76c0,15.52-6.32,27.86-18.96,37.04-12.64,9.18-29.69,13.77-51.15,13.77h-90.82c-9.14,0-16.57-2.46-22.31-7.38Zm109.95-26.68c9.35,0,16.57-1.65,21.67-4.97,5.1-3.31,7.65-7.99,7.65-14.05v-12.49c0-5.49-2.23-9.93-6.69-13.34-4.46-3.41-10.41-5.11-17.85-5.11h-79.35v49.95h74.57Z"/>
    <path class="cls-79" d="m343.43,388.94c6.79,0,12.32-1.94,16.57-5.82,4.25-3.88,6.37-9.03,6.37-15.47v-9.65c0-5.29-2.23-9.51-6.69-12.63-4.46-3.12-10.41-4.68-17.84-4.68h-65.31v48.25h66.91Zm-102.27,108.99c-5.73-4.92-8.6-11.35-8.6-19.3v-172h110.87c20.18,0,36.37,4.26,48.59,12.77,12.21,8.51,18.32,19.97,18.32,34.34v14.19c0,6.24-1.75,12.2-5.26,17.88-3.5,5.68-8.44,10.32-14.81,13.91v.28c10.19,3.22,18.42,8.42,24.69,15.61,6.26,7.19,9.4,15.23,9.4,24.13v14.76c0,15.52-6.32,27.86-18.96,37.04-12.64,9.18-29.69,13.77-51.14,13.77h-90.8c-9.14,0-16.57-2.46-22.3-7.38Zm109.92-26.68c9.34,0,16.57-1.65,21.66-4.97,5.1-3.31,7.65-7.99,7.65-14.05v-12.49c0-5.49-2.23-9.93-6.69-13.34-4.46-3.41-10.41-5.11-17.84-5.11h-79.33v49.95h74.56Z"/>
    <path class="cls-77" d="m344.59,387.52c6.79,0,12.31-1.94,16.56-5.82,4.25-3.88,6.37-9.03,6.37-15.47v-9.65c0-5.29-2.23-9.51-6.69-12.63-4.46-3.12-10.41-4.68-17.84-4.68h-65.3v48.25h66.89Zm-102.25,108.99c-5.73-4.92-8.6-11.35-8.6-19.3v-172h110.85c20.17,0,36.36,4.26,48.58,12.77,12.21,8.51,18.32,19.97,18.32,34.34v14.19c0,6.24-1.75,12.2-5.26,17.88-3.5,5.68-8.44,10.32-14.81,13.91v.28c10.19,3.22,18.42,8.42,24.69,15.61,6.26,7.19,9.4,15.23,9.4,24.13v14.76c0,15.52-6.32,27.86-18.95,37.04-12.64,9.18-29.68,13.77-51.12,13.77h-90.78c-9.13,0-16.56-2.46-22.3-7.38Zm109.89-26.68c9.34,0,16.56-1.65,21.66-4.97,5.1-3.31,7.65-7.99,7.65-14.05v-12.49c0-5.49-2.23-9.93-6.69-13.34-4.46-3.41-10.41-5.11-17.84-5.11h-79.31v49.95h74.54Z"/>
    <path class="cls-89" d="m345.74,386.09c6.79,0,12.31-1.94,16.56-5.82,4.24-3.88,6.37-9.03,6.37-15.47v-9.65c0-5.29-2.23-9.51-6.69-12.63-4.46-3.12-10.4-4.68-17.83-4.68h-65.28v48.25h66.88Zm-102.22,108.99c-5.73-4.92-8.6-11.35-8.6-19.3v-172h110.82c20.17,0,36.35,4.26,48.56,12.77,12.21,8.51,18.31,19.97,18.31,34.34v14.19c0,6.24-1.75,12.2-5.25,17.88-3.5,5.68-8.44,10.32-14.81,13.91v.28c10.19,3.22,18.42,8.42,24.68,15.61,6.26,7.19,9.39,15.23,9.39,24.13v14.76c0,15.52-6.32,27.86-18.95,37.04-12.63,9.18-29.67,13.77-51.11,13.77h-90.76c-9.13,0-16.56-2.46-22.29-7.38Zm109.87-26.68c9.34,0,16.56-1.65,21.65-4.97,5.09-3.31,7.64-7.99,7.64-14.05v-12.49c0-5.49-2.23-9.93-6.69-13.34-4.46-3.41-10.4-5.11-17.83-5.11h-79.29v49.95h74.52Z"/>
    <path class="cls-55" d="m346.9,384.66c6.79,0,12.31-1.94,16.56-5.82,4.24-3.88,6.37-9.03,6.37-15.47v-9.65c0-5.29-2.23-9.51-6.69-12.63-4.46-3.12-10.4-4.68-17.83-4.68h-65.27v48.25h66.86Zm-102.2,108.99c-5.73-4.92-8.6-11.35-8.6-19.3v-172h110.79c20.16,0,36.34,4.26,48.55,12.77,12.2,8.51,18.31,19.97,18.31,34.34v14.19c0,6.24-1.75,12.2-5.25,17.88-3.5,5.68-8.44,10.32-14.8,13.91v.28c10.19,3.22,18.41,8.42,24.67,15.61,6.26,7.19,9.39,15.23,9.39,24.13v14.76c0,15.52-6.32,27.86-18.94,37.04-12.63,9.18-29.66,13.77-51.1,13.77h-90.74c-9.13,0-16.56-2.46-22.29-7.38Zm109.84-26.68c9.34,0,16.56-1.65,21.65-4.97,5.09-3.31,7.64-7.99,7.64-14.05v-12.49c0-5.49-2.23-9.93-6.69-13.34-4.46-3.41-10.4-5.11-17.83-5.11h-79.28v49.95h74.5Z"/>
    <path class="cls-61" d="m348.06,383.24c6.79,0,12.3-1.94,16.55-5.82,4.24-3.88,6.37-9.03,6.37-15.47v-9.65c0-5.29-2.23-9.51-6.69-12.63-4.45-3.12-10.4-4.68-17.82-4.68h-65.25v48.25h66.84Zm-102.17,108.99c-5.73-4.92-8.59-11.35-8.59-19.3v-172h110.77c20.16,0,36.33,4.26,48.54,12.77,12.2,8.51,18.3,19.97,18.3,34.34v14.19c0,6.24-1.75,12.2-5.25,17.88-3.5,5.68-8.43,10.32-14.8,13.91v.28c10.18,3.22,18.41,8.42,24.67,15.61,6.26,7.19,9.39,15.23,9.39,24.13v14.76c0,15.52-6.32,27.86-18.94,37.04-12.63,9.18-29.66,13.77-51.09,13.77h-90.71c-9.13,0-16.55-2.46-22.28-7.38Zm109.81-26.68c9.33,0,16.55-1.65,21.64-4.97,5.09-3.31,7.64-7.99,7.64-14.05v-12.49c0-5.49-2.23-9.93-6.69-13.34-4.46-3.41-10.4-5.11-17.82-5.11h-79.26v49.95h74.48Z"/>
    <path class="cls-63" d="m349.22,381.81c6.79,0,12.3-1.94,16.55-5.82,4.24-3.88,6.36-9.03,6.36-15.47v-9.65c0-5.29-2.23-9.51-6.68-12.63-4.45-3.12-10.4-4.68-17.82-4.68h-65.24v48.25h66.83Zm-102.15,108.99c-5.73-4.92-8.59-11.35-8.59-19.3v-172h110.74c20.15,0,36.33,4.26,48.53,12.77,12.2,8.51,18.3,19.97,18.3,34.34v14.19c0,6.24-1.75,12.2-5.25,17.88-3.5,5.68-8.43,10.32-14.8,13.91v.28c10.18,3.22,18.4,8.42,24.66,15.61,6.25,7.19,9.39,15.23,9.39,24.13v14.76c0,15.52-6.31,27.86-18.93,37.04-12.62,9.18-29.65,13.77-51.07,13.77h-90.69c-9.12,0-16.55-2.46-22.28-7.38Zm109.79-26.68c9.33,0,16.55-1.65,21.64-4.97,5.09-3.31,7.64-7.99,7.64-14.05v-12.49c0-5.49-2.23-9.93-6.68-13.34-4.45-3.41-10.4-5.11-17.82-5.11h-79.24v49.95h74.46Z"/>
    <path class="cls-57" d="m350.37,380.39c6.78,0,12.3-1.94,16.54-5.82,4.24-3.88,6.36-9.03,6.36-15.47v-9.65c0-5.29-2.23-9.51-6.68-12.63-4.45-3.12-10.39-4.68-17.82-4.68h-65.22v48.25h66.81Zm-102.12,108.99c-5.73-4.92-8.59-11.35-8.59-19.3v-172h110.71c20.15,0,36.32,4.26,48.52,12.77,12.19,8.51,18.29,19.97,18.29,34.34v14.19c0,6.24-1.75,12.2-5.25,17.88-3.5,5.68-8.43,10.32-14.79,13.91v.28c10.18,3.22,18.4,8.42,24.66,15.61,6.25,7.19,9.38,15.23,9.38,24.13v14.76c0,15.52-6.31,27.86-18.93,37.04-12.62,9.18-29.64,13.77-51.06,13.77h-90.67c-9.12,0-16.54-2.46-22.27-7.38Zm109.76-26.68c9.33,0,16.54-1.65,21.63-4.97,5.09-3.31,7.64-7.99,7.64-14.05v-12.49c0-5.49-2.23-9.93-6.68-13.34-4.45-3.41-10.39-5.11-17.82-5.11h-79.22v49.95h74.45Z"/>
    <path class="cls-59" d="m351.53,378.96c6.78,0,12.29-1.94,16.54-5.82,4.24-3.88,6.36-9.03,6.36-15.47v-9.65c0-5.29-2.23-9.51-6.68-12.63-4.45-3.12-10.39-4.68-17.81-4.68h-65.2v48.25h66.79Zm-102.1,108.99c-5.72-4.92-8.59-11.35-8.59-19.3v-172h110.69c20.14,0,36.31,4.26,48.5,12.77,12.19,8.51,18.29,19.97,18.29,34.34v14.19c0,6.24-1.75,12.2-5.25,17.88-3.5,5.68-8.43,10.32-14.79,13.91v.28c10.18,3.22,18.39,8.42,24.65,15.61,6.25,7.19,9.38,15.23,9.38,24.13v14.76c0,15.52-6.31,27.86-18.92,37.04-12.62,9.18-29.63,13.77-51.05,13.77h-90.65c-9.12,0-16.54-2.46-22.26-7.38Zm109.73-26.68c9.33,0,16.54-1.65,21.63-4.97,5.09-3.31,7.63-7.99,7.63-14.05v-12.49c0-5.49-2.23-9.93-6.68-13.34-4.45-3.41-10.39-5.11-17.81-5.11h-79.2v49.95h74.43Z"/>
    <path class="cls-58" d="m352.69,377.53c6.78,0,12.29-1.94,16.54-5.82,4.24-3.88,6.36-9.03,6.36-15.47v-9.65c0-5.29-2.23-9.51-6.68-12.63-4.45-3.12-10.39-4.68-17.81-4.68h-65.19v48.25h66.78Zm-102.07,108.99c-5.72-4.92-8.59-11.35-8.59-19.3v-172h110.66c20.14,0,36.3,4.26,48.49,12.77,12.19,8.51,18.28,19.97,18.28,34.34v14.19c0,6.24-1.75,12.2-5.25,17.88-3.5,5.68-8.43,10.32-14.79,13.91v.28c10.17,3.22,18.39,8.42,24.64,15.61,6.25,7.19,9.38,15.23,9.38,24.13v14.76c0,15.52-6.31,27.86-18.92,37.04-12.62,9.18-29.63,13.77-51.04,13.77h-90.62c-9.12,0-16.54-2.46-22.26-7.38Zm109.71-26.68c9.33,0,16.54-1.65,21.62-4.97,5.09-3.31,7.63-7.99,7.63-14.05v-12.49c0-5.49-2.23-9.93-6.68-13.34-4.45-3.41-10.39-5.11-17.81-5.11h-79.18v49.95h74.41Z"/>
    <path class="cls-81" d="m353.84,376.11c6.78,0,12.29-1.94,16.53-5.82,4.24-3.88,6.36-9.03,6.36-15.47v-9.65c0-5.29-2.23-9.51-6.68-12.63-4.45-3.12-10.39-4.68-17.8-4.68h-65.17v48.25h66.76Zm-102.05,108.99c-5.72-4.92-8.58-11.35-8.58-19.3v-172h110.63c20.13,0,36.29,4.26,48.48,12.77,12.19,8.51,18.28,19.97,18.28,34.34v14.19c0,6.24-1.75,12.2-5.25,17.88-3.5,5.68-8.42,10.32-14.78,13.91v.28c10.17,3.22,18.38,8.42,24.64,15.61,6.25,7.19,9.38,15.23,9.38,24.13v14.76c0,15.52-6.31,27.86-18.91,37.04-12.61,9.18-29.62,13.77-51.02,13.77h-90.6c-9.12,0-16.53-2.46-22.25-7.38Zm109.68-26.68c9.32,0,16.53-1.65,21.62-4.97,5.09-3.31,7.63-7.99,7.63-14.05v-12.49c0-5.49-2.23-9.93-6.68-13.34-4.45-3.41-10.39-5.11-17.8-5.11h-79.16v49.95h74.39Z"/>
    <path class="cls-54" d="m355,374.68c6.78,0,12.29-1.94,16.53-5.82,4.24-3.88,6.36-9.03,6.36-15.47v-9.65c0-5.29-2.23-9.51-6.68-12.63-4.45-3.12-10.38-4.68-17.8-4.68h-65.16v48.25h66.74Zm-102.02,108.99c-5.72-4.92-8.58-11.35-8.58-19.3v-172h110.6c20.13,0,36.28,4.26,48.47,12.77,12.18,8.51,18.28,19.97,18.28,34.34v14.19c0,6.24-1.75,12.2-5.24,17.88-3.5,5.68-8.42,10.32-14.78,13.91v.28c10.17,3.22,18.38,8.42,24.63,15.61,6.25,7.19,9.38,15.23,9.38,24.13v14.76c0,15.52-6.31,27.86-18.91,37.04-12.61,9.18-29.61,13.77-51.01,13.77h-90.58c-9.11,0-16.53-2.46-22.25-7.38Zm109.65-26.68c9.32,0,16.53-1.65,21.61-4.97,5.08-3.31,7.63-7.99,7.63-14.05v-12.49c0-5.49-2.23-9.93-6.68-13.34-4.45-3.41-10.38-5.11-17.8-5.11h-79.14v49.95h74.37Z"/>
    <path class="cls-68" d="m356.16,373.25c6.78,0,12.28-1.94,16.52-5.82,4.23-3.88,6.36-9.03,6.36-15.47v-9.65c0-5.29-2.23-9.51-6.67-12.63-4.45-3.12-10.38-4.68-17.79-4.68h-65.14v48.25h66.73Zm-102,108.99c-5.72-4.92-8.58-11.35-8.58-19.3v-172h110.58c20.12,0,36.27,4.26,48.46,12.77,12.18,8.51,18.27,19.97,18.27,34.34v14.19c0,6.24-1.75,12.2-5.24,17.88-3.49,5.68-8.42,10.32-14.77,13.91v.28c10.17,3.22,18.37,8.42,24.63,15.61,6.25,7.19,9.37,15.23,9.37,24.13v14.76c0,15.52-6.3,27.86-18.91,37.04-12.61,9.18-29.61,13.77-51,13.77h-90.56c-9.11,0-16.52-2.46-22.24-7.38Zm109.63-26.68c9.32,0,16.52-1.65,21.61-4.97,5.08-3.31,7.63-7.99,7.63-14.05v-12.49c0-5.49-2.23-9.93-6.67-13.34-4.45-3.41-10.38-5.11-17.79-5.11h-79.12v49.95h74.36Z"/>
    <path class="cls-60" d="m357.32,371.83c6.77,0,12.28-1.94,16.52-5.82,4.23-3.88,6.35-9.03,6.35-15.47v-9.65c0-5.29-2.22-9.51-6.67-12.63-4.45-3.12-10.38-4.68-17.79-4.68h-65.12v48.25h66.71Zm-101.97,108.99c-5.72-4.92-8.58-11.35-8.58-19.3v-172h110.55c20.12,0,36.26,4.26,48.44,12.77,12.18,8.51,18.27,19.97,18.27,34.34v14.19c0,6.24-1.75,12.2-5.24,17.88-3.49,5.68-8.42,10.32-14.77,13.91v.28c10.16,3.22,18.37,8.42,24.62,15.61,6.24,7.19,9.37,15.23,9.37,24.13v14.76c0,15.52-6.3,27.86-18.9,37.04-12.6,9.18-29.6,13.77-50.99,13.77h-90.54c-9.11,0-16.52-2.46-22.24-7.38Zm109.6-26.68c9.32,0,16.52-1.65,21.6-4.97,5.08-3.31,7.62-7.99,7.62-14.05v-12.49c0-5.49-2.22-9.93-6.67-13.34-4.45-3.41-10.38-5.11-17.79-5.11h-79.1v49.95h74.34Z"/>
    <path class="cls-65" d="m358.47,370.4c6.77,0,12.28-1.94,16.51-5.82,4.23-3.88,6.35-9.03,6.35-15.47v-9.65c0-5.29-2.22-9.51-6.67-12.63-4.45-3.12-10.38-4.68-17.78-4.68h-65.11v48.25h66.7Zm-101.95,108.99c-5.72-4.92-8.57-11.35-8.57-19.3v-172h110.52c20.11,0,36.25,4.26,48.43,12.77,12.17,8.51,18.26,19.97,18.26,34.34v14.19c0,6.24-1.75,12.2-5.24,17.88-3.49,5.68-8.42,10.32-14.77,13.91v.28c10.16,3.22,18.37,8.42,24.61,15.61,6.24,7.19,9.37,15.23,9.37,24.13v14.76c0,15.52-6.3,27.86-18.9,37.04-12.6,9.18-29.59,13.77-50.97,13.77h-90.51c-9.11,0-16.52-2.46-22.23-7.38Zm109.57-26.68c9.31,0,16.51-1.65,21.6-4.97,5.08-3.31,7.62-7.99,7.62-14.05v-12.49c0-5.49-2.22-9.93-6.67-13.34-4.45-3.41-10.38-5.11-17.78-5.11h-79.08v49.95h74.32Z"/>
    <path class="cls-72" d="m359.63,368.98c6.77,0,12.27-1.94,16.51-5.82,4.23-3.88,6.35-9.03,6.35-15.47v-9.65c0-5.29-2.22-9.51-6.67-12.63-4.44-3.12-10.37-4.68-17.78-4.68h-65.09v48.25h66.68Zm-101.92,108.99c-5.72-4.92-8.57-11.35-8.57-19.3v-172h110.5c20.11,0,36.25,4.26,48.42,12.77,12.17,8.51,18.26,19.97,18.26,34.34v14.19c0,6.24-1.75,12.2-5.24,17.88-3.49,5.68-8.41,10.32-14.76,13.91v.28c10.16,3.22,18.36,8.42,24.61,15.61,6.24,7.19,9.37,15.23,9.37,24.13v14.76c0,15.52-6.3,27.86-18.89,37.04-12.6,9.18-29.58,13.77-50.96,13.77h-90.49c-9.1,0-16.51-2.46-22.23-7.38Zm109.54-26.68c9.31,0,16.51-1.65,21.59-4.97,5.08-3.31,7.62-7.99,7.62-14.05v-12.49c0-5.49-2.22-9.93-6.67-13.34-4.44-3.41-10.37-5.11-17.78-5.11h-79.06v49.95h74.3Z"/>
    <path class="cls-69" d="m360.79,367.55c6.77,0,12.27-1.94,16.51-5.82,4.23-3.88,6.35-9.03,6.35-15.47v-9.65c0-5.29-2.22-9.51-6.67-12.63-4.44-3.12-10.37-4.68-17.78-4.68h-65.08v48.25h66.66Zm-101.9,108.99c-5.71-4.92-8.57-11.35-8.57-19.3v-172h110.47c20.1,0,36.24,4.26,48.41,12.77,12.17,8.51,18.25,19.97,18.25,34.34v14.19c0,6.24-1.74,12.2-5.24,17.88-3.49,5.68-8.41,10.32-14.76,13.91v.28c10.16,3.22,18.36,8.42,24.6,15.61,6.24,7.19,9.36,15.23,9.36,24.13v14.76c0,15.52-6.3,27.86-18.89,37.04-12.59,9.18-29.58,13.77-50.95,13.77h-90.47c-9.1,0-16.51-2.46-22.22-7.38Zm109.52-26.68c9.31,0,16.51-1.65,21.59-4.97,5.08-3.31,7.62-7.99,7.62-14.05v-12.49c0-5.49-2.22-9.93-6.67-13.34-4.44-3.41-10.37-5.11-17.78-5.11h-79.04v49.95h74.28Z"/>
    <path class="cls-67" d="m361.94,366.12c6.77,0,12.27-1.94,16.5-5.82,4.23-3.88,6.35-9.03,6.35-15.47v-9.65c0-5.29-2.22-9.51-6.67-12.63-4.44-3.12-10.37-4.68-17.77-4.68h-65.06v48.25h66.65Zm-101.87,108.99c-5.71-4.92-8.57-11.35-8.57-19.3v-172h110.44c20.1,0,36.23,4.26,48.4,12.77,12.16,8.51,18.25,19.97,18.25,34.34v14.19c0,6.24-1.74,12.2-5.24,17.88-3.49,5.68-8.41,10.32-14.76,13.91v.28c10.15,3.22,18.35,8.42,24.59,15.61,6.24,7.19,9.36,15.23,9.36,24.13v14.76c0,15.52-6.3,27.86-18.88,37.04-12.59,9.18-29.57,13.77-50.94,13.77h-90.45c-9.1,0-16.5-2.46-22.22-7.38Zm109.49-26.68c9.31,0,16.5-1.65,21.58-4.97,5.08-3.31,7.62-7.99,7.62-14.05v-12.49c0-5.49-2.22-9.93-6.67-13.34-4.44-3.41-10.37-5.11-17.77-5.11h-79.02v49.95h74.26Z"/>
    <path class="cls-56" d="m363.1,364.7c6.77,0,12.26-1.94,16.5-5.82,4.23-3.88,6.35-9.03,6.35-15.47v-9.65c0-5.29-2.22-9.51-6.66-12.63-4.44-3.12-10.37-4.68-17.77-4.68h-65.04v48.25h66.63Zm-101.85,108.99c-5.71-4.92-8.57-11.35-8.57-19.3v-172h110.42c20.09,0,36.22,4.26,48.39,12.77,12.16,8.51,18.24,19.97,18.24,34.34v14.19c0,6.24-1.74,12.2-5.23,17.88-3.49,5.68-8.41,10.32-14.75,13.91v.28c10.15,3.22,18.35,8.42,24.59,15.61,6.24,7.19,9.36,15.23,9.36,24.13v14.76c0,15.52-6.3,27.86-18.88,37.04-12.59,9.18-29.56,13.77-50.92,13.77h-90.43c-9.1,0-16.5-2.46-22.21-7.38Zm109.46-26.68c9.3,0,16.5-1.65,21.57-4.97,5.08-3.31,7.62-7.99,7.62-14.05v-12.49c0-5.49-2.22-9.93-6.66-13.34-4.44-3.41-10.37-5.11-17.77-5.11h-79v49.95h74.25Z"/>
    <path class="cls-64" d="m364.26,363.27c6.76,0,12.26-1.94,16.49-5.82,4.23-3.88,6.34-9.03,6.34-15.47v-9.65c0-5.29-2.22-9.51-6.66-12.63-4.44-3.12-10.36-4.68-17.76-4.68h-65.03v48.25h66.61Zm-101.82,108.99c-5.71-4.92-8.56-11.35-8.56-19.3v-172h110.39c20.09,0,36.21,4.26,48.37,12.77,12.16,8.51,18.24,19.97,18.24,34.34v14.19c0,6.24-1.74,12.2-5.23,17.88-3.49,5.68-8.41,10.32-14.75,13.91v.28c10.15,3.22,18.34,8.42,24.58,15.61,6.24,7.19,9.36,15.23,9.36,24.13v14.76c0,15.52-6.29,27.86-18.87,37.04-12.58,9.18-29.56,13.77-50.91,13.77h-90.4c-9.1,0-16.5-2.46-22.21-7.38Zm109.44-26.68c9.3,0,16.49-1.65,21.57-4.97,5.07-3.31,7.61-7.99,7.61-14.05v-12.49c0-5.49-2.22-9.93-6.66-13.34-4.44-3.41-10.36-5.11-17.76-5.11h-78.99v49.95h74.23Z"/>
    <path class="cls-62" d="m365.42,361.84c6.76,0,12.26-1.94,16.49-5.82,4.23-3.88,6.34-9.03,6.34-15.47v-9.65c0-5.29-2.22-9.51-6.66-12.63-4.44-3.12-10.36-4.68-17.76-4.68h-65.01v48.25h66.6Zm-101.8,108.99c-5.71-4.92-8.56-11.35-8.56-19.3v-172h110.36c20.08,0,36.2,4.26,48.36,12.77,12.16,8.51,18.23,19.97,18.23,34.34v14.19c0,6.24-1.74,12.2-5.23,17.88-3.49,5.68-8.4,10.32-14.75,13.91v.28c10.15,3.22,18.34,8.42,24.58,15.61,6.23,7.19,9.35,15.23,9.35,24.13v14.76c0,15.52-6.29,27.86-18.87,37.04-12.58,9.18-29.55,13.77-50.9,13.77h-90.38c-9.09,0-16.49-2.46-22.2-7.38Zm109.41-26.68c9.3,0,16.49-1.65,21.56-4.97,5.07-3.31,7.61-7.99,7.61-14.05v-12.49c0-5.49-2.22-9.93-6.66-13.34-4.44-3.41-10.36-5.11-17.76-5.11h-78.97v49.95h74.21Z"/>
    <path class="cls-109" d="m366.57,360.42c6.76,0,12.26-1.94,16.49-5.82,4.23-3.88,6.34-9.03,6.34-15.47v-9.65c0-5.29-2.22-9.51-6.66-12.63-4.44-3.12-10.36-4.68-17.75-4.68h-65v48.25h66.58Zm-101.77,108.99c-5.71-4.92-8.56-11.35-8.56-19.3v-172h110.33c20.08,0,36.19,4.26,48.35,12.77,12.15,8.51,18.23,19.97,18.23,34.34v14.19c0,6.24-1.74,12.2-5.23,17.88-3.49,5.68-8.4,10.32-14.74,13.91v.28c10.14,3.22,18.33,8.42,24.57,15.61,6.23,7.19,9.35,15.23,9.35,24.13v14.76c0,15.52-6.29,27.86-18.86,37.04-12.58,9.18-29.54,13.77-50.89,13.77h-90.36c-9.09,0-16.49-2.46-22.19-7.38Zm109.38-26.68c9.3,0,16.49-1.65,21.56-4.97,5.07-3.31,7.61-7.99,7.61-14.05v-12.49c0-5.49-2.22-9.93-6.66-13.34-4.44-3.41-10.36-5.11-17.75-5.11h-78.95v49.95h74.19Z"/>
    <path class="cls-107" d="m367.73,358.99c6.76,0,12.25-1.94,16.48-5.82,4.22-3.88,6.34-9.03,6.34-15.47v-9.65c0-5.29-2.22-9.51-6.66-12.63-4.44-3.12-10.36-4.68-17.75-4.68h-64.98v48.25h66.57Zm-101.75,108.99c-5.71-4.92-8.56-11.35-8.56-19.3v-172h110.31c20.07,0,36.18,4.26,48.34,12.77,12.15,8.51,18.23,19.97,18.23,34.34v14.19c0,6.24-1.74,12.2-5.23,17.88-3.49,5.68-8.4,10.32-14.74,13.91v.28c10.14,3.22,18.33,8.42,24.56,15.61,6.23,7.19,9.35,15.23,9.35,24.13v14.76c0,15.52-6.29,27.86-18.86,37.04-12.58,9.18-29.53,13.77-50.87,13.77h-90.34c-9.09,0-16.48-2.46-22.19-7.38Zm109.36-26.68c9.3,0,16.48-1.65,21.55-4.97,5.07-3.31,7.61-7.99,7.61-14.05v-12.49c0-5.49-2.22-9.93-6.66-13.34-4.44-3.41-10.36-5.11-17.75-5.11h-78.93v49.95h74.17Z"/>
    <path class="cls-113" d="m368.89,357.57c6.76,0,12.25-1.94,16.48-5.82,4.22-3.88,6.34-9.03,6.34-15.47v-9.65c0-5.29-2.22-9.51-6.66-12.63-4.44-3.12-10.35-4.68-17.75-4.68h-64.96v48.25h66.55Zm-101.72,108.99c-5.7-4.92-8.56-11.35-8.56-19.3v-172h110.28c20.07,0,36.17,4.26,48.33,12.77,12.15,8.51,18.22,19.97,18.22,34.34v14.19c0,6.24-1.74,12.2-5.23,17.88-3.49,5.68-8.4,10.31-14.73,13.91v.28c10.14,3.22,18.33,8.42,24.56,15.61,6.23,7.19,9.35,15.23,9.35,24.13v14.76c0,15.52-6.29,27.86-18.85,37.04-12.57,9.18-29.53,13.77-50.86,13.77h-90.31c-9.09,0-16.48-2.46-22.18-7.38Zm109.33-26.68c9.29,0,16.48-1.65,21.55-4.97,5.07-3.31,7.61-7.99,7.61-14.05v-12.49c0-5.49-2.22-9.93-6.66-13.34-4.44-3.41-10.35-5.11-17.75-5.11h-78.91v49.95h74.16Z"/>
    <path class="cls-106" d="m370.04,356.14c6.76,0,12.25-1.94,16.47-5.82,4.22-3.88,6.34-9.03,6.34-15.47v-9.65c0-5.29-2.22-9.51-6.65-12.63-4.43-3.12-10.35-4.68-17.74-4.68h-64.95v48.25h66.53Zm-101.7,108.99c-5.7-4.92-8.55-11.35-8.55-19.3v-172h110.25c20.06,0,36.17,4.26,48.31,12.77,12.14,8.51,18.22,19.97,18.22,34.34v14.19c0,6.24-1.74,12.2-5.23,17.88-3.48,5.68-8.4,10.31-14.73,13.91v.28c10.14,3.22,18.32,8.42,24.55,15.61,6.23,7.19,9.35,15.23,9.35,24.13v14.76c0,15.52-6.29,27.86-18.85,37.04-12.57,9.18-29.52,13.77-50.85,13.77h-90.29c-9.08,0-16.48-2.46-22.18-7.38Zm109.3-26.68c9.29,0,16.47-1.65,21.54-4.97,5.07-3.31,7.6-7.99,7.6-14.05v-12.49c0-5.49-2.22-9.93-6.65-13.34-4.43-3.41-10.35-5.11-17.74-5.11h-78.89v49.95h74.14Z"/>
    <path class="cls-112" d="m371.2,354.71c6.75,0,12.24-1.94,16.47-5.82,4.22-3.88,6.34-9.03,6.34-15.47v-9.65c0-5.29-2.22-9.51-6.65-12.63-4.43-3.12-10.35-4.68-17.74-4.68h-64.93v48.25h66.52Zm-101.67,108.99c-5.7-4.92-8.55-11.35-8.55-19.3v-172h110.23c20.06,0,36.16,4.26,48.3,12.77,12.14,8.51,18.21,19.97,18.21,34.34v14.19c0,6.24-1.74,12.2-5.23,17.88-3.48,5.68-8.39,10.31-14.73,13.91v.28c10.13,3.22,18.32,8.42,24.55,15.61,6.23,7.19,9.34,15.23,9.34,24.13v14.76c0,15.52-6.28,27.86-18.85,37.04-12.57,9.18-29.51,13.77-50.84,13.77h-90.27c-9.08,0-16.47-2.46-22.17-7.38Zm109.28-26.68c9.29,0,16.47-1.65,21.54-4.97,5.07-3.31,7.6-7.99,7.6-14.05v-12.49c0-5.49-2.22-9.93-6.65-13.34-4.43-3.41-10.35-5.11-17.74-5.11h-78.87v49.95h74.12Z"/>
    <path class="cls-110" d="m372.36,353.29c6.75,0,12.24-1.94,16.47-5.82,4.22-3.88,6.33-9.03,6.33-15.47v-9.65c0-5.29-2.22-9.51-6.65-12.63-4.43-3.12-10.35-4.68-17.73-4.68h-64.92v48.25h66.5Zm-101.65,108.99c-5.7-4.92-8.55-11.35-8.55-19.3v-172h110.2c20.05,0,36.15,4.26,48.29,12.77,12.14,8.51,18.21,19.97,18.21,34.34v14.19c0,6.24-1.74,12.2-5.22,17.88-3.48,5.68-8.39,10.31-14.72,13.91v.28c10.13,3.22,18.31,8.42,24.54,15.61,6.22,7.19,9.34,15.23,9.34,24.13v14.76c0,15.52-6.28,27.86-18.84,37.04-12.56,9.18-29.5,13.77-50.83,13.77h-90.25c-9.08,0-16.47-2.46-22.17-7.38Zm109.25-26.68c9.29,0,16.47-1.65,21.53-4.97,5.07-3.31,7.6-7.99,7.6-14.05v-12.49c0-5.49-2.22-9.93-6.65-13.34-4.43-3.41-10.35-5.11-17.73-5.11h-78.85v49.95h74.1Z"/>
    <path class="cls-105" d="m373.51,351.86c6.75,0,12.24-1.94,16.46-5.82,4.22-3.88,6.33-9.03,6.33-15.47v-9.65c0-5.29-2.22-9.51-6.65-12.63-4.43-3.12-10.34-4.68-17.73-4.68h-64.9v48.25h66.48Zm-101.62,108.99c-5.7-4.92-8.55-11.35-8.55-19.3v-172h110.17c20.05,0,36.14,4.26,48.28,12.77,12.14,8.51,18.2,19.97,18.2,34.34v14.19c0,6.24-1.74,12.2-5.22,17.88-3.48,5.68-8.39,10.31-14.72,13.91v.28c10.13,3.22,18.31,8.42,24.53,15.61,6.22,7.19,9.34,15.23,9.34,24.13v14.76c0,15.52-6.28,27.86-18.84,37.04-12.56,9.18-29.5,13.77-50.81,13.77h-90.23c-9.08,0-16.46-2.46-22.16-7.38Zm109.22-26.68c9.28,0,16.46-1.65,21.53-4.97,5.06-3.31,7.6-7.99,7.6-14.05v-12.49c0-5.49-2.22-9.93-6.65-13.34-4.43-3.41-10.34-5.11-17.73-5.11h-78.83v49.95h74.08Z"/>
    <path class="cls-108" d="m374.67,350.44c6.75,0,12.23-1.94,16.46-5.82,4.22-3.88,6.33-9.03,6.33-15.47v-9.65c0-5.29-2.22-9.51-6.65-12.63-4.43-3.12-10.34-4.68-17.72-4.68h-64.88v48.25h66.47Zm-101.6,108.99c-5.7-4.92-8.55-11.35-8.55-19.3v-172h110.14c20.04,0,36.13,4.26,48.27,12.77,12.13,8.51,18.2,19.97,18.2,34.34v14.19c0,6.24-1.74,12.2-5.22,17.88-3.48,5.68-8.39,10.31-14.72,13.91v.28c10.13,3.22,18.3,8.42,24.53,15.61,6.22,7.19,9.34,15.23,9.34,24.13v14.76c0,15.52-6.28,27.86-18.83,37.04-12.56,9.18-29.49,13.77-50.8,13.77h-90.2c-9.08,0-16.46-2.46-22.16-7.38Zm109.2-26.68c9.28,0,16.46-1.65,21.52-4.97,5.06-3.31,7.6-7.99,7.6-14.05v-12.49c0-5.49-2.22-9.93-6.65-13.34-4.43-3.41-10.34-5.11-17.72-5.11h-78.81v49.95h74.06Z"/>
    <path class="cls-104" d="m375.83,349.01c6.75,0,12.23-1.94,16.45-5.82,4.22-3.88,6.33-9.03,6.33-15.47v-9.65c0-5.29-2.22-9.51-6.65-12.63-4.43-3.12-10.34-4.68-17.72-4.68h-64.87v48.25h66.45Zm-101.57,108.99c-5.7-4.92-8.54-11.35-8.54-19.3v-172h110.12c20.04,0,36.12,4.26,48.25,12.77,12.13,8.51,18.19,19.97,18.19,34.34v14.19c0,6.24-1.74,12.2-5.22,17.88-3.48,5.68-8.39,10.31-14.71,13.91v.28c10.12,3.22,18.3,8.42,24.52,15.61,6.22,7.19,9.33,15.23,9.33,24.13v14.76c0,15.52-6.28,27.86-18.83,37.04-12.55,9.18-29.48,13.77-50.79,13.77h-90.18c-9.07,0-16.45-2.46-22.15-7.38Zm109.17-26.68c9.28,0,16.45-1.65,21.52-4.97,5.06-3.31,7.6-7.99,7.6-14.05v-12.49c0-5.49-2.22-9.93-6.65-13.34-4.43-3.41-10.34-5.11-17.72-5.11h-78.79v49.95h74.05Z"/>
    <path class="cls-17" d="m376.99,347.58c6.75,0,12.23-1.94,16.45-5.82,4.22-3.88,6.33-9.03,6.33-15.47v-9.65c0-5.29-2.22-9.51-6.64-12.63-4.43-3.12-10.34-4.68-17.72-4.68h-64.85v48.25h66.44Zm-101.55,108.99c-5.69-4.92-8.54-11.35-8.54-19.3v-172h110.09c20.03,0,36.11,4.26,48.24,12.77,12.13,8.51,18.19,19.97,18.19,34.34v14.19c0,6.24-1.74,12.2-5.22,17.88-3.48,5.68-8.38,10.31-14.71,13.91v.28c10.12,3.22,18.29,8.42,24.52,15.61,6.22,7.19,9.33,15.23,9.33,24.13v14.76c0,15.52-6.28,27.86-18.82,37.04-12.55,9.18-29.48,13.77-50.78,13.77h-90.16c-9.07,0-16.45-2.46-22.15-7.38Zm109.14-26.68c9.28,0,16.45-1.65,21.51-4.97,5.06-3.31,7.59-7.99,7.59-14.05v-12.49c0-5.49-2.22-9.93-6.64-13.34-4.43-3.41-10.34-5.11-17.72-5.11h-78.77v49.95h74.03Z"/>
    <path class="cls-114" d="m378.14,346.16c6.74,0,12.22-1.94,16.45-5.82,4.22-3.88,6.33-9.03,6.33-15.47v-9.65c0-5.29-2.22-9.51-6.64-12.63-4.43-3.12-10.33-4.68-17.71-4.68h-64.84v48.25h66.42Zm-101.52,108.99c-5.69-4.92-8.54-11.35-8.54-19.3v-172h110.06c20.03,0,36.1,4.26,48.23,12.77,12.12,8.51,18.19,19.97,18.19,34.34v14.19c0,6.24-1.74,12.2-5.22,17.88-3.48,5.68-8.38,10.31-14.71,13.91v.28c10.12,3.22,18.29,8.42,24.51,15.61,6.22,7.19,9.33,15.23,9.33,24.13v14.76c0,15.52-6.28,27.86-18.82,37.04-12.55,9.18-29.47,13.77-50.76,13.77h-90.14c-9.07,0-16.45-2.46-22.14-7.38Zm109.12-26.68c9.27,0,16.45-1.65,21.51-4.97,5.06-3.31,7.59-7.99,7.59-14.05v-12.49c0-5.49-2.22-9.93-6.64-13.34-4.43-3.41-10.33-5.11-17.71-5.11h-78.75v49.95h74.01Z"/>
    <path class="cls-18" d="m379.3,344.73c6.74,0,12.22-1.94,16.44-5.82,4.21-3.88,6.32-9.03,6.32-15.47v-9.65c0-5.29-2.21-9.51-6.64-12.63-4.43-3.12-10.33-4.68-17.71-4.68h-64.82v48.25h66.4Zm-101.5,108.99c-5.69-4.92-8.54-11.35-8.54-19.3v-172h110.04c20.02,0,36.1,4.26,48.22,12.77,12.12,8.51,18.18,19.97,18.18,34.34v14.19c0,6.24-1.74,12.2-5.22,17.88-3.48,5.68-8.38,10.31-14.7,13.91v.28c10.12,3.22,18.28,8.42,24.5,15.61,6.22,7.19,9.33,15.23,9.33,24.13v14.76c0,15.52-6.27,27.86-18.81,37.04-12.54,9.18-29.46,13.77-50.75,13.77h-90.12c-9.07,0-16.44-2.46-22.13-7.38Zm109.09-26.68c9.27,0,16.44-1.65,21.5-4.97,5.06-3.31,7.59-7.99,7.59-14.05v-12.49c0-5.49-2.21-9.93-6.64-13.34-4.43-3.41-10.33-5.11-17.71-5.11h-78.73v49.95h73.99Z"/>
    <path class="cls-19" d="m380.46,343.3c6.74,0,12.22-1.94,16.44-5.82,4.21-3.88,6.32-9.03,6.32-15.47v-9.65c0-5.29-2.21-9.51-6.64-12.63-4.42-3.12-10.33-4.68-17.7-4.68h-64.81v48.25h66.39Zm-101.47,108.99c-5.69-4.92-8.53-11.35-8.53-19.3v-172h110.01c20.02,0,36.09,4.26,48.21,12.77,12.12,8.51,18.18,19.97,18.18,34.34v14.19c0,6.24-1.74,12.2-5.22,17.88-3.48,5.68-8.38,10.31-14.7,13.91v.28c10.11,3.22,18.28,8.42,24.5,15.61,6.21,7.19,9.32,15.23,9.32,24.13v14.76c0,15.52-6.27,27.86-18.81,37.04-12.54,9.18-29.45,13.77-50.74,13.77h-90.09c-9.06,0-16.44-2.46-22.13-7.38Zm109.06-26.68c9.27,0,16.44-1.65,21.49-4.97,5.06-3.31,7.59-7.99,7.59-14.05v-12.49c0-5.49-2.21-9.93-6.64-13.34-4.42-3.41-10.33-5.11-17.7-5.11h-78.71v49.95h73.97Z"/>
    <path class="cls-111" d="m381.61,341.88c6.74,0,12.22-1.94,16.43-5.82,4.21-3.88,6.32-9.03,6.32-15.47v-9.65c0-5.29-2.21-9.51-6.64-12.63-4.42-3.12-10.32-4.68-17.7-4.68h-64.79v48.25h66.37Zm-101.45,108.99c-5.69-4.92-8.53-11.35-8.53-19.3v-172h109.98c20.01,0,36.08,4.26,48.2,12.77,12.11,8.51,18.17,19.97,18.17,34.34v14.19c0,6.24-1.74,12.2-5.21,17.88-3.48,5.68-8.38,10.31-14.7,13.91v.28c10.11,3.22,18.28,8.42,24.49,15.61,6.21,7.19,9.32,15.23,9.32,24.13v14.76c0,15.52-6.27,27.86-18.8,37.04-12.54,9.18-29.45,13.77-50.73,13.77h-90.07c-9.06,0-16.43-2.46-22.12-7.38Zm109.04-26.68c9.27,0,16.43-1.65,21.49-4.97,5.06-3.31,7.59-7.99,7.59-14.05v-12.49c0-5.49-2.21-9.93-6.64-13.34-4.42-3.41-10.32-5.11-17.7-5.11h-78.7v49.95h73.96Z"/>
    <text class="cls-3" transform="translate(253.23 456.82) scale(1.11 1)"><tspan x="0" y="0">B</tspan></text>
  </g>
</svg>