<?xml version="1.0" encoding="UTF-8"?>
<svg id="Layer_1" data-name="Layer 1" xmlns="http://www.w3.org/2000/svg" xmlns:xlink="http://www.w3.org/1999/xlink" viewBox="0 0 985 610">
  <defs>
    <style>
      .cls-1 {
        stroke: #ffa332;
        stroke-width: 12px;
      }

      .cls-1, .cls-2 {
        stroke-linecap: round;
      }

      .cls-1, .cls-2, .cls-3 {
        fill: none;
        stroke-miterlimit: 10;
      }

      .cls-4 {
        fill: url(#linear-gradient);
      }

      .cls-4, .cls-5, .cls-6, .cls-7, .cls-8, .cls-9, .cls-10, .cls-11, .cls-12, .cls-13, .cls-14, .cls-15, .cls-16, .cls-17, .cls-18, .cls-19 {
        stroke-width: 0px;
      }

      .cls-5 {
        fill: #5dcbc8;
        opacity: .41;
      }

      .cls-6 {
        opacity: .32;
      }

      .cls-6, .cls-12 {
        fill: #ff6d79;
      }

      .cls-2, .cls-3 {
        stroke: #ff6d79;
        stroke-width: 4px;
      }

      .cls-7 {
        opacity: .28;
      }

      .cls-7, .cls-14 {
        fill: #fff;
      }

      .cls-8 {
        fill: url(#linear-gradient-2);
      }

      .cls-10 {
        fill: #790094;
      }

      .cls-11 {
        fill: #9091f3;
      }

      .cls-13 {
        fill: #ffa332;
      }

      .cls-15 {
        fill: #fbb03b;
      }

      .cls-16 {
        fill: #ffbf3e;
      }

      .cls-17 {
        fill: #ffbb32;
      }

      .cls-18 {
        fill: #f78f1e;
      }

      .cls-19 {
        fill: #6963e3;
      }
    </style>
    <linearGradient id="linear-gradient" x1="965.13" y1="182.42" x2="590.68" y2="246.58" gradientUnits="userSpaceOnUse">
      <stop offset=".02" stop-color="#ff7bac"/>
      <stop offset=".13" stop-color="#ff7bac" stop-opacity=".98"/>
      <stop offset=".25" stop-color="#ff7bac" stop-opacity=".93"/>
      <stop offset=".38" stop-color="#ff7bac" stop-opacity=".85"/>
      <stop offset=".51" stop-color="#ff7bac" stop-opacity=".73"/>
      <stop offset=".64" stop-color="#ff7bac" stop-opacity=".57"/>
      <stop offset=".77" stop-color="#ff7bac" stop-opacity=".39"/>
      <stop offset=".91" stop-color="#ff7bac" stop-opacity=".17"/>
      <stop offset="1" stop-color="#ff7bac" stop-opacity="0"/>
    </linearGradient>
    <linearGradient id="linear-gradient-2" x1="245.86" y1="492.5" x2="941.88" y2="374.55" gradientUnits="userSpaceOnUse">
      <stop offset=".12" stop-color="#005b97"/>
      <stop offset=".2" stop-color="#00609f"/>
      <stop offset=".39" stop-color="#006cb0"/>
      <stop offset=".6" stop-color="#0072ba"/>
      <stop offset=".87" stop-color="#0075be"/>
    </linearGradient>
  </defs>
  <rect class="cls-10" width="985" height="405.15"/>
  <ellipse class="cls-4" cx="775" cy="215" rx="195" ry="160"/>
  <path class="cls-8" d="m985,610H0v-318.59c13.8,12.71,33.59,26.5,55,23.59,32.33-4.4,51.46-44.6,60-40,8.42,4.53-9.5,44,0,50,12.8,8.09,60.17-54.18,75-45,5.84,3.62,5.3,17.5,5,25-.65,16.39-6.98,21-5,25,8.91,18.01,148.18-53.99,185-15,16.63,17.61,4.77,49.82,20,55,10.61,3.61,19.37-11.01,55-30,22.38-11.93,33.8-17.84,45-15,18.72,4.75,18.48,25.52,40,40,18.56,12.49,39.58,11.05,55,10,95.76-6.54,340.38-177.14,380-155,11.23,6.27,15,14.94,15,14.94,3.75,8.62,1.05,15.8,0,32.75-.62,10.11-.33,18.38,0,23.72v318.59Z"/>
  <rect class="cls-5" x="670.79" y="267.45" width="189.19" height="54.21" rx="27.11" ry="27.11"/>
  <path class="cls-1" d="m677.78,246.2h4.42c56.71,0,103.11,33.97,103.11,75.49v3.24c0,41.52-46.4,75.49-103.11,75.49h-4.42"/>
  <path class="cls-17" d="m338.83,242.66h5.43c31.86,0,57.73,25.87,57.73,57.73v40.69c0,3-2.43,5.43-5.43,5.43h0c-31.86,0-57.73-25.87-57.73-57.73v-46.12h0Z"/>
  <path class="cls-6" d="m343.14,259.17h9.2c26.72,0,48.41,21.69,48.41,48.41v9.2c0,.42-.34.76-.76.76h-4.07c-29.55,0-53.54-23.99-53.54-53.54v-4.07c0-.42.34-.76.76-.76Z" transform="translate(672.27 649.99) rotate(-167.56)"/>
  <path class="cls-17" d="m509.17,242.66v41.49c0,6.36-.95,12.5-2.72,18.28-2.96-1.42-6.02-2.65-9.18-3.68-7.73-2.55-15.99-3.93-24.57-3.93h-10c11.8,0,22.99,2.6,33.03,7.27,3.15,1.46,6.18,3.12,9.09,4.97-5.72,14.51-16.75,26.36-30.69,33.16-4.31,2.11-8.89,3.73-13.7,4.79h-.01c-4.38.99-8.93,1.5-13.6,1.5h-.81v-40.69c0-1.87.08-3.72.24-5.55.16-1.84.4-3.66.72-5.45,5.2-29.64,31.07-52.16,62.2-52.16Z"/>
  <path class="cls-6" d="m472.7,294.82h-10c11.8,0,22.99,2.6,33.03,7.27-6.33,12.49-18.01,22.14-32.75,25.39l-8.98,1.98c-.41.09-.81-.17-.9-.58l-.88-3.97c-.9-4.1-1.31-8.18-1.26-12.2.04-4.25.6-8.42,1.62-12.44.47-1.85,1.03-3.67,1.69-5.45,6.12-16.5,20.24-29.66,38.7-33.73l3.97-.87c.41-.09.81.16.9.57l1.98,8.98c2.22,10.08,1.13,20.12-2.55,28.98-7.73-2.55-15.99-3.93-24.57-3.93Z"/>
  <rect class="cls-5" x="219.75" y="359.13" width="172.68" height="70.4" rx="27.11" ry="27.11"/>
  <path class="cls-13" d="m712.37,414.31c0,18.52-7.5,35.29-19.64,47.42-6.37,6.36-14.01,11.46-22.51,14.86-7.22,2.89-15.05,4.56-23.26,4.76-.55.01-1.1.02-1.65.02h-160.45c-.88,0-1.77-.02-2.64-.06h-.02c-2.28-.08-4.54-.28-6.75-.6-14.01-1.96-26.62-8.26-36.45-17.47-13.05-12.24-21.2-29.63-21.2-48.93,0-6.68.98-13.13,2.8-19.22,3.22-10.79,9.09-20.44,16.84-28.2,3.06-3.06,6.42-5.83,10.03-8.26,1.11-.75,2.25-1.46,3.41-2.14,9.96-5.87,21.58-9.24,33.98-9.24h160.45c37.04,0,67.06,30.03,67.06,67.06Z"/>
  <path class="cls-17" d="m506.45,302.43c-.48,1.57-1.02,3.11-1.63,4.63-2.91-1.85-5.94-3.51-9.09-4.97.56-1.09,1.07-2.2,1.54-3.34,3.16,1.03,6.22,2.26,9.18,3.68Z"/>
  <path class="cls-17" d="m497.27,298.75c-.47,1.14-.98,2.25-1.54,3.34-10.04-4.67-21.23-7.27-33.03-7.27h10c8.58,0,16.84,1.38,24.57,3.93Z"/>
  <path class="cls-18" d="m551.19,373.31v31.96c0,36.7-25.18,67.51-59.21,76.1-5.26,1.33-10.72,2.13-16.34,2.33h-.01c-.98.04-1.95.06-2.93.06h-85.62c-7.12,0-14.02-.95-20.58-2.73-25.57-6.93-45.96-26.45-54.09-51.5-2.49-7.64-3.83-15.79-3.83-24.26v-31.96c0-4.84.44-9.58,1.29-14.18,3.79-20.81,15.79-38.75,32.52-50.35,3.94-2.74,8.15-5.13,12.58-7.11,9.8-4.4,20.67-6.85,32.11-6.85h75.62c11.8,0,22.99,2.6,33.03,7.27,3.15,1.46,6.18,3.12,9.09,4.97,14.69,9.37,26.06,23.48,31.94,40.19h10c2.87,8.15,4.43,16.93,4.43,26.06Z"/>
  <path class="cls-17" d="m543.8,373.31v31.96c0,36.61-25.06,67.36-58.97,76.04h-.02c-2.16.56-4.34,1.02-6.58,1.39-4.2.7-8.52,1.06-12.92,1.06h-85.62c-3.64,0-7.21-.25-10.72-.73-30.12-4.11-54.8-25.3-63.95-53.5-2.49-7.64-3.83-15.79-3.83-24.26v-31.96c0-4.84.44-9.58,1.29-14.18,4.4-24.14,19.84-44.42,40.91-55.43,3.88-2.03,7.95-3.74,12.19-5.1,7.59-2.46,15.7-3.78,24.11-3.78h85.62c11.8,0,22.99,2.6,33.03,7.27,3.15,1.46,6.18,3.12,9.09,4.97,14.69,9.37,26.06,23.48,31.94,40.19,2.87,8.15,4.43,16.93,4.43,26.06Z"/>
  <rect class="cls-7" x="399.95" y="300.28" width="75.69" height="12.44" rx="4.08" ry="4.08"/>
  <rect class="cls-7" x="342.11" y="312.72" width="42.11" height="12.4" rx="4.08" ry="4.08"/>
  <rect class="cls-7" x="328.3" y="346.73" width="42.11" height="12.4" rx="4.08" ry="4.08"/>
  <rect class="cls-7" x="329.08" y="441.36" width="42.11" height="12.4" rx="4.08" ry="4.08"/>
  <rect class="cls-7" x="650" y="430" width="42.11" height="12.4" rx="4.08" ry="4.08"/>
  <rect class="cls-7" x="575.65" y="363.89" width="42.11" height="12.4" rx="4.08" ry="4.08"/>
  <rect class="cls-7" x="554.59" y="428.6" width="42.11" height="12.4" rx="4.08" ry="4.08"/>
  <rect class="cls-7" x="617.75" y="392.1" width="79.82" height="12.4" rx="4.08" ry="4.08"/>
  <rect class="cls-7" x="321.05" y="394.07" width="21.05" height="12.4" rx="4.08" ry="4.08"/>
  <g>
    <rect class="cls-11" x="205" y="475" width="590.96" height="29.36" rx="14.68" ry="14.68"/>
    <rect class="cls-19" x="219.96" y="484.28" width="125.36" height="11.29" rx="5.65" ry="5.65"/>
    <rect class="cls-19" x="393.27" y="484.28" width="195.33" height="11.29" rx="5.65" ry="5.65"/>
    <rect class="cls-19" x="645.67" y="484.28" width="125.36" height="11.29" rx="5.65" ry="5.65"/>
  </g>
  <rect class="cls-5" x="339.22" y="110.11" width="125.55" height="54.21" rx="27.11" ry="27.11"/>
  <rect class="cls-5" x="415" y="185" width="250.14" height="54.21" rx="27.11" ry="27.11"/>
  <rect class="cls-5" x="104.45" y="215.79" width="125.55" height="54.21" rx="27.11" ry="27.11"/>
  <rect class="cls-18" x="561.19" y="460.22" width="86.19" height="28.32" rx="14.16" ry="14.16"/>
  <rect class="cls-18" x="596.7" y="448.76" width="73.58" height="39.52" rx="16.66" ry="16.66"/>
  <rect class="cls-5" x="181.29" y="152.04" width="125.55" height="54.21" rx="27.11" ry="27.11"/>
  <line class="cls-3" x1="459.99" y1="420.15" x2="459.99" y2="420.15"/>
  <g>
    <rect class="cls-14" x="391.19" y="340.15" width="57.8" height="54.94" rx="27.47" ry="27.47"/>
    <rect class="cls-14" x="448.5" y="340.15" width="57.8" height="54.94" rx="27.47" ry="27.47"/>
    <rect class="cls-9" x="412.69" y="362.96" width="14.8" height="14.07" rx="7.04" ry="7.04"/>
    <rect class="cls-9" x="470" y="362.96" width="14.8" height="14.07" rx="7.04" ry="7.04"/>
    <rect class="cls-12" x="419.35" y="394.13" width="60.2" height="25.5" rx="12.75" ry="12.75"/>
    <rect class="cls-7" x="433.1" y="395.09" width="30.8" height="6.7" rx="3.35" ry="3.35"/>
    <path class="cls-2" d="m478.39,424.9h0c0,7.55-6.5,13.74-14.45,13.74h0c-7.95,0-14.45-6.18-14.45-13.74h0"/>
    <path class="cls-2" d="m449.56,425.03h0c0,7.55-6.5,13.74-14.45,13.74h0c-7.95,0-14.45-6.18-14.45-13.74h0"/>
    <line class="cls-2" x1="449.56" y1="418.1" x2="449.56" y2="425.03"/>
  </g>
  <g>
    <line class="cls-2" x1="504.9" y1="397.39" x2="521.51" y2="383.76"/>
    <line class="cls-2" x1="508.37" y1="409.46" x2="529.46" y2="407.35"/>
    <line class="cls-2" x1="507.06" y1="422.76" x2="524.53" y2="429.18"/>
  </g>
  <rect class="cls-18" x="566.19" y="470.22" width="25" height="10" rx="4.08" ry="4.08"/>
  <g>
    <line class="cls-2" x1="400.28" y1="402.65" x2="383.68" y2="389.02"/>
    <line class="cls-2" x1="396.82" y1="414.72" x2="375.73" y2="412.61"/>
    <line class="cls-2" x1="398.12" y1="428.02" x2="380.66" y2="434.44"/>
  </g>
  <rect class="cls-7" x="509.34" y="366.36" width="26.85" height="12.4" rx="4.08" ry="4.08"/>
  <rect class="cls-5" x="635.88" y="110.11" width="214.41" height="54.21" rx="27.11" ry="27.11"/>
  <rect class="cls-18" x="366.19" y="458.76" width="52.16" height="42.07" rx="21.03" ry="21.03"/>
  <rect class="cls-18" x="424.03" y="458.76" width="52.16" height="42.07" rx="21.03" ry="21.03"/>
  <rect class="cls-15" x="565" y="465.45" width="86.19" height="28.32" rx="14.16" ry="14.16"/>
  <rect class="cls-16" x="596.19" y="453.76" width="73.58" height="39.52" rx="16.66" ry="16.66"/>
  <rect class="cls-7" x="571.19" y="473.76" width="25" height="10" rx="4.08" ry="4.08"/>
  <rect class="cls-14" x="366.35" y="462.49" width="52.16" height="42.07" rx="21.03" ry="21.03"/>
  <rect class="cls-14" x="423.47" y="462.49" width="52.16" height="42.07" rx="21.03" ry="21.03"/>
</svg>