<?xml version="1.0" encoding="UTF-8"?>
<svg id="Layer_1" data-name="Layer 1" xmlns="http://www.w3.org/2000/svg" xmlns:xlink="http://www.w3.org/1999/xlink" viewBox="0 0 797 526">
  <defs>
    <style>
      .cls-1 {
        fill: url(#New_Gradient_Swatch_4);
      }

      .cls-1, .cls-2, .cls-3, .cls-4, .cls-5 {
        stroke: #000;
        stroke-miterlimit: 10;
      }

      .cls-6 {
        clip-path: url(#clippath);
      }

      .cls-7, .cls-8, .cls-9, .cls-10, .cls-11, .cls-12, .cls-13, .cls-14, .cls-15, .cls-16, .cls-17, .cls-18, .cls-19, .cls-20, .cls-21, .cls-22, .cls-23, .cls-24, .cls-25, .cls-26, .cls-27, .cls-28, .cls-29, .cls-30, .cls-31, .cls-32, .cls-33, .cls-34, .cls-35, .cls-36, .cls-37, .cls-38, .cls-39, .cls-40, .cls-41, .cls-42, .cls-43, .cls-44, .cls-45, .cls-46, .cls-47, .cls-48, .cls-49, .cls-50, .cls-51, .cls-52, .cls-53, .cls-54, .cls-55, .cls-56, .cls-57, .cls-58, .cls-59, .cls-60, .cls-61, .cls-62, .cls-63, .cls-64, .cls-65, .cls-66, .cls-67, .cls-68, .cls-69, .cls-70, .cls-71, .cls-72, .cls-73, .cls-74, .cls-75, .cls-76, .cls-77, .cls-78, .cls-79, .cls-80 {
        stroke-width: 0px;
      }

      .cls-7, .cls-2 {
        fill: none;
      }

      .cls-8 {
        opacity: .2;
      }

      .cls-8, .cls-9, .cls-4, .cls-76 {
        fill: #fff;
      }

      .cls-9 {
        opacity: .45;
      }

      .cls-81 {
        opacity: .55;
      }

      .cls-3 {
        fill: url(#New_Gradient_Swatch_4-2);
      }

      .cls-4 {
        opacity: .26;
      }

      .cls-11 {
        fill: #633b16;
      }

      .cls-12 {
        fill: #714922;
      }

      .cls-13 {
        fill: #613914;
      }

      .cls-14 {
        fill: #603813;
      }

      .cls-15 {
        fill: #764e27;
      }

      .cls-16 {
        fill: #774e28;
      }

      .cls-17 {
        fill: #623a15;
      }

      .cls-18 {
        fill: #754d26;
      }

      .cls-19 {
        fill: #7a512b;
      }

      .cls-20 {
        fill: #79502a;
      }

      .cls-21 {
        fill: #835a33;
      }

      .cls-22 {
        fill: #784f29;
      }

      .cls-23 {
        fill: #7b522c;
      }

      .cls-24 {
        fill: #7c532c;
      }

      .cls-25 {
        fill: #653d17;
      }

      .cls-26 {
        fill: #643c17;
      }

      .cls-27 {
        fill: #704822;
      }

      .cls-28 {
        fill: #896038;
      }

      .cls-29 {
        fill: #9b7148;
      }

      .cls-30 {
        fill: #6d451f;
      }

      .cls-31 {
        fill: #885f37;
      }

      .cls-32 {
        fill: #966c43;
      }

      .cls-33 {
        fill: #8a6139;
      }

      .cls-34 {
        fill: #724a23;
      }

      .cls-35 {
        fill: #a3794f;
      }

      .cls-36 {
        fill: #a2784e;
      }

      .cls-37 {
        fill: #956b42;
      }

      .cls-38 {
        fill: #6e4620;
      }

      .cls-39 {
        fill: #6f4721;
      }

      .cls-40 {
        fill: #a47a50;
      }

      .cls-41 {
        fill: #a57b51;
      }

      .cls-42 {
        fill: #a67c52;
      }

      .cls-43 {
        fill: #865d35;
      }

      .cls-44 {
        fill: #936a41;
      }

      .cls-45 {
        fill: #8b623a;
      }

      .cls-46 {
        fill: #9d734a;
      }

      .cls-47 {
        fill: #9e754b;
      }

      .cls-48 {
        fill: #8c633b;
      }

      .cls-49 {
        fill: #8d643c;
      }

      .cls-50 {
        fill: #9c7249;
      }

      .cls-51 {
        fill: #90673e;
      }

      .cls-52 {
        fill: #926940;
      }

      .cls-53 {
        fill: #91683f;
      }

      .cls-54 {
        fill: #8e653c;
      }

      .cls-55 {
        fill: #8f663d;
      }

      .cls-56 {
        fill: #976d44;
      }

      .cls-57 {
        fill: #9a7047;
      }

      .cls-58 {
        fill: #6c441e;
      }

      .cls-59 {
        fill: #986e45;
      }

      .cls-60 {
        fill: #805730;
      }

      .cls-61 {
        fill: #7d542d;
      }

      .cls-62 {
        fill: #9f764c;
      }

      .cls-63 {
        fill: #a0774d;
      }

      .cls-64 {
        fill: #855c34;
      }

      .cls-65 {
        fill: #875e36;
      }

      .cls-66 {
        fill: #6b431d;
      }

      .cls-67 {
        fill: #7e552e;
      }

      .cls-68 {
        fill: #815831;
      }

      .cls-69 {
        fill: #744c25;
      }

      .cls-70 {
        fill: #663e18;
      }

      .cls-71 {
        fill: #825932;
      }

      .cls-72 {
        fill: #7f562f;
      }

      .cls-73 {
        fill: #734b24;
      }

      .cls-74 {
        fill: #996f46;
      }

      .cls-75 {
        fill: #683f1a;
      }

      .cls-77 {
        fill: #673f19;
      }

      .cls-78 {
        fill: #6a421c;
      }

      .cls-79 {
        fill: #69411c;
      }

      .cls-80 {
        fill: #69401b;
      }

      .cls-5 {
        fill: url(#linear-gradient);
      }
    </style>
    <linearGradient id="linear-gradient" x1="55.65" y1="417.3" x2="775.03" y2="91.81" gradientUnits="userSpaceOnUse">
      <stop offset="0" stop-color="#39b54a"/>
      <stop offset=".64" stop-color="#138795"/>
      <stop offset="1" stop-color="#0071bc"/>
    </linearGradient>
    <clipPath id="clippath">
      <path class="cls-7" d="m357.57,119.91l6.55,56.78c.38,3.28,2.99,5.75,6.08,5.75h58c3.02,0,5.59-2.36,6.05-5.56l8.16-56.78c.57-3.97-2.3-7.55-6.05-7.55h-1.54c-2.33,0-4.48,1.4-5.48,3.65-.75,1.69-2.14,3.34-4.68,3.34-2.7,0-4.37-1.86-5.36-3.66-1.12-2.04-3.12-3.33-5.32-3.33h-50.32c-3.68,0-6.53,3.45-6.08,7.35Z"/>
    </clipPath>
    <linearGradient id="New_Gradient_Swatch_4" data-name="New Gradient Swatch 4" x1="289.5" y1="346.73" x2="507.21" y2="346.73" gradientUnits="userSpaceOnUse">
      <stop offset="0" stop-color="#f0f"/>
      <stop offset=".02" stop-color="#ff03fa"/>
      <stop offset=".28" stop-color="#ff37bd"/>
      <stop offset=".51" stop-color="#ff608c"/>
      <stop offset=".72" stop-color="#ff7e6a"/>
      <stop offset=".89" stop-color="#ff9054"/>
      <stop offset="1" stop-color="#ff974d"/>
    </linearGradient>
    <linearGradient id="New_Gradient_Swatch_4-2" data-name="New Gradient Swatch 4" x1="392.07" y1="298.7" y2="298.7" xlink:href="#New_Gradient_Swatch_4"/>
  </defs>
  <rect class="cls-5" x="1.5" y="-1.5" width="797" height="526"/>
  <g>
    <g>
      <g class="cls-6">
        <rect class="cls-42" x="357.12" y="112.56" width=".4" height="69.88"/>
        <rect class="cls-42" x="357.52" y="112.56" width="1.21" height="69.88"/>
        <rect class="cls-41" x="358.74" y="112.56" width="1.21" height="69.88"/>
        <rect class="cls-40" x="359.95" y="112.56" width="1.21" height="69.88"/>
        <rect class="cls-35" x="361.16" y="112.56" width="1.21" height="69.88"/>
        <rect class="cls-36" x="362.38" y="112.56" width="1.21" height="69.88"/>
        <rect class="cls-63" x="363.59" y="112.56" width="1.21" height="69.88"/>
        <rect class="cls-62" x="364.8" y="112.56" width="1.21" height="69.88"/>
        <rect class="cls-47" x="366.02" y="112.56" width="1.21" height="69.88"/>
        <rect class="cls-46" x="367.23" y="112.56" width="1.21" height="69.88"/>
        <rect class="cls-50" x="368.44" y="112.56" width="1.21" height="69.88"/>
        <rect class="cls-29" x="369.66" y="112.56" width="1.21" height="69.88"/>
        <rect class="cls-57" x="370.87" y="112.56" width="1.21" height="69.88"/>
        <rect class="cls-74" x="372.09" y="112.56" width="1.21" height="69.88"/>
        <rect class="cls-59" x="373.3" y="112.56" width="1.21" height="69.88"/>
        <rect class="cls-56" x="374.51" y="112.56" width="1.21" height="69.88"/>
        <rect class="cls-32" x="375.73" y="112.56" width="1.21" height="69.88"/>
        <rect class="cls-37" x="376.94" y="112.56" width="1.21" height="69.88"/>
        <rect class="cls-44" x="378.15" y="112.56" width="1.21" height="69.88"/>
        <rect class="cls-52" x="379.37" y="112.56" width="1.21" height="69.88"/>
        <rect class="cls-53" x="380.58" y="112.56" width="1.21" height="69.88"/>
        <rect class="cls-51" x="381.79" y="112.56" width="1.21" height="69.88"/>
        <rect class="cls-55" x="383.01" y="112.56" width="1.21" height="69.88"/>
        <rect class="cls-54" x="384.22" y="112.56" width="1.21" height="69.88"/>
        <rect class="cls-49" x="385.44" y="112.56" width="1.21" height="69.88"/>
        <rect class="cls-48" x="386.65" y="112.56" width="1.21" height="69.88"/>
        <rect class="cls-45" x="387.86" y="112.56" width="1.21" height="69.88"/>
        <rect class="cls-33" x="389.08" y="112.56" width="1.21" height="69.88"/>
        <rect class="cls-28" x="390.29" y="112.56" width="1.21" height="69.88"/>
        <rect class="cls-31" x="391.5" y="112.56" width="1.21" height="69.88"/>
        <rect class="cls-65" x="392.72" y="112.56" width="1.21" height="69.88"/>
        <rect class="cls-43" x="393.93" y="112.56" width="1.21" height="69.88"/>
        <rect class="cls-64" x="395.14" y="112.56" width="1.21" height="69.88"/>
        <rect class="cls-21" x="396.36" y="112.56" width="1.21" height="69.88"/>
        <rect class="cls-71" x="397.57" y="112.56" width="1.21" height="69.88"/>
        <rect class="cls-68" x="398.79" y="112.56" width="1.21" height="69.88"/>
        <rect class="cls-60" x="400" y="112.56" width="1.21" height="69.88"/>
        <rect class="cls-72" x="401.21" y="112.56" width="1.21" height="69.88"/>
        <rect class="cls-67" x="402.43" y="112.56" width="1.21" height="69.88"/>
        <rect class="cls-61" x="403.64" y="112.56" width="1.21" height="69.88"/>
        <rect class="cls-24" x="404.85" y="112.56" width="1.21" height="69.88"/>
        <rect class="cls-23" x="406.07" y="112.56" width="1.21" height="69.88"/>
        <rect class="cls-19" x="407.28" y="112.56" width="1.21" height="69.88"/>
        <rect class="cls-20" x="408.49" y="112.56" width="1.21" height="69.88"/>
        <rect class="cls-22" x="409.71" y="112.56" width="1.21" height="69.88"/>
        <rect class="cls-16" x="410.92" y="112.56" width="1.21" height="69.88"/>
        <rect class="cls-15" x="412.14" y="112.56" width="1.21" height="69.88"/>
        <rect class="cls-18" x="413.35" y="112.56" width="1.21" height="69.88"/>
        <rect class="cls-69" x="414.56" y="112.56" width="1.21" height="69.88"/>
        <rect class="cls-73" x="415.78" y="112.56" width="1.21" height="69.88"/>
        <rect class="cls-34" x="416.99" y="112.56" width="1.21" height="69.88"/>
        <rect class="cls-12" x="418.2" y="112.56" width="1.21" height="69.88"/>
        <rect class="cls-27" x="419.42" y="112.56" width="1.21" height="69.88"/>
        <rect class="cls-39" x="420.63" y="112.56" width="1.21" height="69.88"/>
        <rect class="cls-38" x="421.84" y="112.56" width="1.21" height="69.88"/>
        <rect class="cls-30" x="423.06" y="112.56" width="1.21" height="69.88"/>
        <rect class="cls-58" x="424.27" y="112.56" width="1.21" height="69.88"/>
        <rect class="cls-66" x="425.49" y="112.56" width="1.21" height="69.88"/>
        <rect class="cls-78" x="426.7" y="112.56" width="1.21" height="69.88"/>
        <rect class="cls-79" x="427.91" y="112.56" width="1.21" height="69.88"/>
        <rect class="cls-80" x="429.13" y="112.56" width="1.21" height="69.88"/>
        <rect class="cls-75" x="430.34" y="112.56" width="1.21" height="69.88"/>
        <rect class="cls-77" x="431.55" y="112.56" width="1.21" height="69.88"/>
        <rect class="cls-70" x="432.77" y="112.56" width="1.21" height="69.88"/>
        <rect class="cls-25" x="433.98" y="112.56" width="1.21" height="69.88"/>
        <rect class="cls-26" x="435.2" y="112.56" width="1.21" height="69.88"/>
        <rect class="cls-11" x="436.41" y="112.56" width="1.21" height="69.88"/>
        <rect class="cls-17" x="437.62" y="112.56" width="1.21" height="69.88"/>
        <rect class="cls-13" x="438.84" y="112.56" width="1.21" height="69.88"/>
        <rect class="cls-13" x="440.05" y="112.56" width="1.21" height="69.88"/>
        <rect class="cls-14" x="441.26" y="112.56" width="1.21" height="69.88"/>
        <rect class="cls-14" x="442.48" y="112.56" width=".5" height="69.88"/>
      </g>
      <path class="cls-10" d="m428.19,183h-58c-3.35,0-6.19-2.68-6.6-6.24l-6.54-56.78c-.23-2.02.36-4.05,1.62-5.58,1.26-1.53,3.08-2.4,4.98-2.4h50.32c2.34,0,4.56,1.38,5.78,3.6,1.23,2.25,2.88,3.39,4.91,3.39,1.9,0,3.31-1.02,4.2-3.02,1.07-2.41,3.41-3.97,5.96-3.97h1.54c1.94,0,3.78.9,5.04,2.48,1.26,1.58,1.82,3.66,1.52,5.71l-8.16,56.78c-.5,3.49-3.26,6.03-6.57,6.03Zm-64.54-69.88c-1.6,0-3.13.74-4.2,2.02-1.06,1.29-1.56,3-1.36,4.7h0s6.54,56.78,6.54,56.78c.35,3,2.74,5.26,5.56,5.26h58c2.78,0,5.11-2.14,5.54-5.08l8.16-56.78c.25-1.73-.22-3.48-1.28-4.81-1.07-1.33-2.61-2.09-4.25-2.09h-1.54c-2.15,0-4.11,1.31-5.01,3.33-1.06,2.39-2.84,3.66-5.15,3.66s-4.39-1.36-5.81-3.94c-1.05-1.91-2.87-3.05-4.87-3.05h-50.32Z"/>
    </g>
    <path class="cls-10" d="m433.69,128.21c-2.31,0-4.18-2.01-4.18-4.47s1.87-4.47,4.18-4.47,4.18,2.01,4.18,4.47-1.87,4.47-4.18,4.47Zm0-7.83c-1.73,0-3.14,1.5-3.14,3.35s1.41,3.35,3.14,3.35,3.14-1.5,3.14-3.35-1.41-3.35-3.14-3.35Z"/>
    <g class="cls-81">
      <path class="cls-76" d="m364.87,127.9l5.3,45.15c.31,2.61,2.42,4.57,4.93,4.57h47.01c2.45,0,4.53-1.88,4.91-4.42l6.62-45.15c.46-3.16-1.86-6-4.91-6h-1.25c-1.89,0-3.63,1.11-4.45,2.9-.61,1.35-1.73,2.66-3.79,2.66-2.19,0-3.54-1.48-4.34-2.91-.91-1.62-2.53-2.64-4.32-2.64h-40.79c-2.98,0-5.29,2.74-4.93,5.85Z"/>
    </g>
    <path class="cls-10" d="m378.3,137.72c-2.59,0-4.7-2.26-4.7-5.03s2.11-5.03,4.7-5.03,4.7,2.26,4.7,5.03-2.11,5.03-4.7,5.03Zm0-8.94c-2.02,0-3.66,1.76-3.66,3.91s1.64,3.91,3.66,3.91,3.66-1.76,3.66-3.91-1.64-3.91-3.66-3.91Z"/>
    <path class="cls-10" d="m395.55,152.81c-1.44,0-2.61-1.25-2.61-2.8s1.17-2.8,2.61-2.8,2.61,1.25,2.61,2.8-1.17,2.8-2.61,2.8Zm0-4.47c-.86,0-1.57.75-1.57,1.68s.7,1.68,1.57,1.68,1.57-.75,1.57-1.68-.7-1.68-1.57-1.68Z"/>
    <path class="cls-10" d="m425.86,139.39c-2.02,0-3.66-1.76-3.66-3.91s1.64-3.91,3.66-3.91,3.66,1.76,3.66,3.91-1.64,3.91-3.66,3.91Zm0-6.71c-1.44,0-2.61,1.25-2.61,2.8s1.17,2.8,2.61,2.8,2.61-1.25,2.61-2.8-1.17-2.8-2.61-2.8Z"/>
    <path class="cls-10" d="m423.24,169.58c-1.73,0-3.14-1.5-3.14-3.35s1.41-3.35,3.14-3.35,3.14,1.5,3.14,3.35-1.41,3.35-3.14,3.35Zm0-5.59c-1.15,0-2.09,1-2.09,2.24s.94,2.24,2.09,2.24,2.09-1,2.09-2.24-.94-2.24-2.09-2.24Z"/>
    <path class="cls-10" d="m386.14,167.35c-2.02,0-3.66-1.76-3.66-3.91s1.64-3.91,3.66-3.91,3.66,1.76,3.66,3.91-1.64,3.91-3.66,3.91Zm0-6.71c-1.44,0-2.61,1.25-2.61,2.8s1.17,2.8,2.61,2.8,2.61-1.25,2.61-2.8-1.17-2.8-2.61-2.8Z"/>
    <path class="cls-10" d="m365.24,122.62c-1.44,0-2.61-1.25-2.61-2.8s1.17-2.8,2.61-2.8,2.61,1.25,2.61,2.8-1.17,2.8-2.61,2.8Zm0-4.47c-.86,0-1.57.75-1.57,1.68s.7,1.68,1.57,1.68,1.57-.75,1.57-1.68-.7-1.68-1.57-1.68Z"/>
    <path class="cls-10" d="m373.08,156.17c-1.15,0-2.09-1-2.09-2.24s.94-2.24,2.09-2.24,2.09,1,2.09,2.24-.94,2.24-2.09,2.24Zm0-3.35c-.58,0-1.05.5-1.05,1.12s.47,1.12,1.05,1.12,1.05-.5,1.05-1.12-.47-1.12-1.05-1.12Z"/>
    <path class="cls-10" d="m401.82,131.57c-1.44,0-2.61-1.25-2.61-2.8s1.17-2.8,2.61-2.8,2.61,1.25,2.61,2.8-1.17,2.8-2.61,2.8Zm0-4.47c-.86,0-1.57.75-1.57,1.68s.7,1.68,1.57,1.68,1.57-.75,1.57-1.68-.7-1.68-1.57-1.68Z"/>
    <path class="cls-10" d="m414.36,155.05c-2.02,0-3.66-1.76-3.66-3.91s1.64-3.91,3.66-3.91,3.66,1.76,3.66,3.91-1.64,3.91-3.66,3.91Zm0-6.71c-1.44,0-2.61,1.25-2.61,2.8s1.17,2.8,2.61,2.8,2.61-1.25,2.61-2.8-1.17-2.8-2.61-2.8Z"/>
  </g>
  <path class="cls-1" d="m507.21,293.72v99.79c0,9.94-8.06,17.99-17.99,17.99h-181.73c-9.94,0-17.99-8.05-17.99-17.99v-101.81c13.75-4.48,31.88-8.98,50.73-9.7,18.1-.69,35.5,6.37,51.84,14.18,19.12,9.14,36.79,19.32,52.43,19.32,17.42,0,44.15-12.11,62.71-21.78Z"/>
  <path class="cls-3" d="m507.21,288.77v4.95c-18.56,9.67-45.29,21.78-62.71,21.78-15.64,0-33.31-10.18-52.43-19.32,16.15-6.81,37.42-13.47,59.93-14.18,23.31-.74,42.11,2.89,55.21,6.77Z"/>
  <path class="cls-4" d="m507.21,288.77v4.95c-18.56,9.67-45.29,21.78-62.71,21.78-15.64,0-33.31-10.18-52.43-19.32,16.15-6.81,37.42-13.47,59.93-14.18,23.31-.74,42.11,2.89,55.21,6.77Z"/>
  <path class="cls-2" d="m507.21,236.4v52.37c-13.1-3.88-31.9-7.51-55.21-6.77-22.51.71-43.78,7.37-59.93,14.18-16.34-7.81-33.74-14.87-51.84-14.18-18.85.72-36.98,5.22-50.73,9.7v-59.77c0-22.43,18.19-40.62,40.63-40.62h131.98c24.91,0,45.1,20.19,45.1,45.09Z"/>
  <path class="cls-8" d="m315.07,406.5h167.37c9.15,0,16.57-7.42,16.57-16.57v-144.7c0-22.93-18.59-41.53-41.53-41.53h-121.56c-20.66,0-37.42,16.75-37.42,37.42v148.81c0,9.15,7.42,16.57,16.57,16.57Z"/>
  <polyline class="cls-2" points="357.5 191.31 357.5 170.5 439.13 170.5 439.13 191.31"/>
  <rect class="cls-2" x="335.41" y="151.56" width="123.08" height="18.94" rx="9.47" ry="9.47"/>
  <path class="cls-9" d="m307.94,220.07v160.85c0,4.46,3.03,8.07,6.78,8.07h0c3.74,0,6.78-3.61,6.78-8.07v-160.85c0-4.46-3.03-8.07-6.78-8.07h0c-3.74,0-6.78,3.61-6.78,8.07Z"/>
  <path class="cls-9" d="m471.94,263.86v116.76c0,3.24,3.03,5.86,6.78,5.86h0c3.74,0,6.78-2.62,6.78-5.86v-116.76c0-3.24-3.03-5.86-6.78-5.86h0c-3.74,0-6.78,2.62-6.78,5.86Z"/>
  <path class="cls-9" d="m371.94,258.36v126.75c0,3.51,4.49,6.36,10.03,6.36h0c5.54,0,10.03-2.85,10.03-6.36v-126.75c0-3.51-4.49-6.36-10.03-6.36h0c-5.54,0-10.03,2.85-10.03,6.36Z"/>
  <line class="cls-2" x1="298.08" y1="238.91" x2="298.08" y2="262.11"/>
  <line class="cls-2" x1="298.5" y1="270.5" x2="298.5" y2="278"/>
  <line class="cls-2" x1="494.84" y1="239.91" x2="494.84" y2="250.31"/>
  <line class="cls-2" x1="494.84" y1="258" x2="494.84" y2="283.44"/>
  <line class="cls-2" x1="418.84" y1="313.91" x2="418.84" y2="324.31"/>
  <line class="cls-2" x1="418.84" y1="332" x2="418.84" y2="357.44"/>
  <line class="cls-2" x1="348.84" y1="221.91" x2="348.84" y2="232.31"/>
  <line class="cls-2" x1="348.84" y1="240" x2="348.84" y2="265.44"/>
  <line class="cls-2" x1="339.84" y1="316.91" x2="339.84" y2="327.31"/>
  <line class="cls-2" x1="339.84" y1="335" x2="339.84" y2="360.44"/>
  <circle class="cls-2" cx="435.5" cy="231.5" r="4"/>
  <circle class="cls-2" cx="444.5" cy="339.5" r="5"/>
  <circle class="cls-2" cx="358.5" cy="352.5" r="5"/>
  <circle class="cls-2" cx="371" cy="243" r="7.5"/>
  <circle class="cls-2" cx="327" cy="233" r="5.5"/>
  <circle class="cls-2" cx="427.5" cy="279.5" r="5"/>
  <circle class="cls-2" cx="410.5" cy="215.5" r="4"/>
</svg>