<?xml version="1.0" encoding="UTF-8"?>
<svg id="Layer_1" data-name="Layer 1" xmlns="http://www.w3.org/2000/svg" xmlns:xlink="http://www.w3.org/1999/xlink" viewBox="0 0 596.28 842.89">
  <defs>
    <style>
      .cls-1, .cls-2 {
        letter-spacing: 0em;
      }

      .cls-1, .cls-3, .cls-4, .cls-5, .cls-6, .cls-7, .cls-8, .cls-9, .cls-10, .cls-11, .cls-12, .cls-13, .cls-14, .cls-15, .cls-16, .cls-17, .cls-18, .cls-19, .cls-20, .cls-21 {
        fill: #fff;
      }

      .cls-22, .cls-23 {
        letter-spacing: -.01em;
      }

      .cls-3 {
        letter-spacing: 0em;
      }

      .cls-23, .cls-24, .cls-25, .cls-26, .cls-27, .cls-28, .cls-29 {
        fill: #231f20;
      }

      .cls-30 {
        fill: url(#linear-gradient);
      }

      .cls-30, .cls-31, .cls-32, .cls-33, .cls-34, .cls-35, .cls-36, .cls-37, .cls-38, .cls-39, .cls-40, .cls-41, .cls-42, .cls-43, .cls-44, .cls-45, .cls-46, .cls-47, .cls-48, .cls-49, .cls-50, .cls-51, .cls-52, .cls-53, .cls-54, .cls-55, .cls-56, .cls-57, .cls-58, .cls-59, .cls-60, .cls-61, .cls-62, .cls-63, .cls-64, .cls-65, .cls-66, .cls-67, .cls-68, .cls-69, .cls-70, .cls-71, .cls-72, .cls-73, .cls-74, .cls-75, .cls-76, .cls-77, .cls-78, .cls-79, .cls-80, .cls-81, .cls-82, .cls-83, .cls-84, .cls-85, .cls-86, .cls-87, .cls-88, .cls-89, .cls-90, .cls-91, .cls-92, .cls-93, .cls-94, .cls-95, .cls-96, .cls-97, .cls-98, .cls-99, .cls-100, .cls-101, .cls-102, .cls-103, .cls-104, .cls-105, .cls-106, .cls-107, .cls-108, .cls-109, .cls-110, .cls-111, .cls-112, .cls-113, .cls-114, .cls-115, .cls-116, .cls-117, .cls-118, .cls-119, .cls-120, .cls-121, .cls-122, .cls-123, .cls-124, .cls-125 {
        stroke-width: 0px;
      }

      .cls-4, .cls-126 {
        letter-spacing: 0em;
      }

      .cls-127, .cls-12 {
        letter-spacing: 0em;
      }

      .cls-6 {
        letter-spacing: 0em;
      }

      .cls-7 {
        letter-spacing: 0em;
      }

      .cls-31 {
        fill: url(#linear-gradient-38);
      }

      .cls-32 {
        fill: url(#linear-gradient-33);
      }

      .cls-33 {
        fill: url(#linear-gradient-29);
      }

      .cls-34 {
        fill: url(#linear-gradient-32);
      }

      .cls-35 {
        fill: url(#linear-gradient-30);
      }

      .cls-36 {
        fill: url(#linear-gradient-31);
      }

      .cls-37 {
        fill: url(#linear-gradient-36);
      }

      .cls-38 {
        fill: url(#linear-gradient-39);
      }

      .cls-39 {
        fill: url(#linear-gradient-34);
      }

      .cls-40 {
        fill: url(#linear-gradient-37);
      }

      .cls-41 {
        fill: url(#linear-gradient-35);
      }

      .cls-42 {
        fill: url(#linear-gradient-28);
      }

      .cls-43 {
        fill: url(#linear-gradient-25);
      }

      .cls-44 {
        fill: url(#linear-gradient-11);
      }

      .cls-45 {
        fill: url(#linear-gradient-12);
      }

      .cls-46 {
        fill: url(#linear-gradient-13);
      }

      .cls-47 {
        fill: url(#linear-gradient-10);
      }

      .cls-48 {
        fill: url(#linear-gradient-17);
      }

      .cls-49 {
        fill: url(#linear-gradient-16);
      }

      .cls-50 {
        fill: url(#linear-gradient-19);
      }

      .cls-51 {
        fill: url(#linear-gradient-15);
      }

      .cls-52 {
        fill: url(#linear-gradient-23);
      }

      .cls-53 {
        fill: url(#linear-gradient-21);
      }

      .cls-54 {
        fill: url(#linear-gradient-18);
      }

      .cls-55 {
        fill: url(#linear-gradient-14);
      }

      .cls-56 {
        fill: url(#linear-gradient-22);
      }

      .cls-57 {
        fill: url(#linear-gradient-20);
      }

      .cls-58 {
        fill: url(#linear-gradient-27);
      }

      .cls-59 {
        fill: url(#linear-gradient-24);
      }

      .cls-60 {
        fill: url(#linear-gradient-26);
      }

      .cls-61 {
        fill: url(#linear-gradient-45);
      }

      .cls-62 {
        fill: url(#linear-gradient-46);
      }

      .cls-63 {
        fill: url(#linear-gradient-44);
      }

      .cls-64 {
        fill: url(#linear-gradient-48);
      }

      .cls-65 {
        fill: url(#linear-gradient-49);
      }

      .cls-66 {
        fill: url(#linear-gradient-47);
      }

      .cls-67 {
        fill: url(#linear-gradient-42);
      }

      .cls-68 {
        fill: url(#linear-gradient-43);
      }

      .cls-69 {
        fill: url(#linear-gradient-40);
      }

      .cls-70 {
        fill: url(#linear-gradient-41);
      }

      .cls-71 {
        fill: url(#linear-gradient-59);
      }

      .cls-72 {
        fill: url(#linear-gradient-57);
      }

      .cls-73 {
        fill: url(#linear-gradient-58);
      }

      .cls-74 {
        fill: url(#linear-gradient-55);
      }

      .cls-75 {
        fill: url(#linear-gradient-56);
      }

      .cls-76 {
        fill: url(#linear-gradient-53);
      }

      .cls-77 {
        fill: url(#linear-gradient-51);
      }

      .cls-78 {
        fill: url(#linear-gradient-52);
      }

      .cls-79 {
        fill: url(#linear-gradient-50);
      }

      .cls-80 {
        fill: url(#linear-gradient-54);
      }

      .cls-81 {
        fill: url(#linear-gradient-60);
      }

      .cls-82 {
        fill: url(#linear-gradient-61);
      }

      .cls-83 {
        fill: url(#linear-gradient-62);
      }

      .cls-84 {
        fill: url(#linear-gradient-65);
      }

      .cls-85 {
        fill: url(#linear-gradient-79);
      }

      .cls-86 {
        fill: url(#linear-gradient-78);
      }

      .cls-87 {
        fill: url(#linear-gradient-77);
      }

      .cls-88 {
        fill: url(#linear-gradient-75);
      }

      .cls-89 {
        fill: url(#linear-gradient-76);
      }

      .cls-90 {
        fill: url(#linear-gradient-74);
      }

      .cls-91 {
        fill: url(#linear-gradient-67);
      }

      .cls-92 {
        fill: url(#linear-gradient-68);
      }

      .cls-93 {
        fill: url(#linear-gradient-66);
      }

      .cls-94 {
        fill: url(#linear-gradient-63);
      }

      .cls-95 {
        fill: url(#linear-gradient-69);
      }

      .cls-96 {
        fill: url(#linear-gradient-64);
      }

      .cls-97 {
        fill: url(#linear-gradient-71);
      }

      .cls-98 {
        fill: url(#linear-gradient-72);
      }

      .cls-99 {
        fill: url(#linear-gradient-70);
      }

      .cls-100 {
        fill: url(#linear-gradient-73);
      }

      .cls-101 {
        fill: url(#linear-gradient-84);
      }

      .cls-102 {
        fill: url(#linear-gradient-85);
      }

      .cls-103 {
        fill: url(#linear-gradient-82);
      }

      .cls-104 {
        fill: url(#linear-gradient-83);
      }

      .cls-105 {
        fill: url(#linear-gradient-89);
      }

      .cls-106 {
        fill: url(#linear-gradient-88);
      }

      .cls-107 {
        fill: url(#linear-gradient-86);
      }

      .cls-108 {
        fill: url(#linear-gradient-87);
      }

      .cls-109 {
        fill: url(#linear-gradient-80);
      }

      .cls-110 {
        fill: url(#linear-gradient-81);
      }

      .cls-111 {
        fill: url(#linear-gradient-91);
      }

      .cls-112 {
        fill: url(#linear-gradient-92);
      }

      .cls-113 {
        fill: url(#linear-gradient-93);
      }

      .cls-114 {
        fill: url(#linear-gradient-90);
      }

      .cls-115 {
        fill: url(#linear-gradient-96);
      }

      .cls-116 {
        fill: url(#linear-gradient-94);
      }

      .cls-117 {
        fill: url(#linear-gradient-95);
      }

      .cls-8, .cls-128 {
        letter-spacing: 0em;
      }

      .cls-129 {
        letter-spacing: -.01em;
      }

      .cls-130 {
        letter-spacing: -.01em;
      }

      .cls-131, .cls-9 {
        letter-spacing: 0em;
      }

      .cls-132 {
        letter-spacing: 0em;
      }

      .cls-133 {
        letter-spacing: 0em;
      }

      .cls-10 {
        letter-spacing: -.01em;
      }

      .cls-11 {
        letter-spacing: 0em;
      }

      .cls-25, .cls-13, .cls-134 {
        letter-spacing: 0em;
      }

      .cls-14, .cls-135 {
        letter-spacing: 0em;
      }

      .cls-26 {
        stroke: #231f20;
        stroke-miterlimit: 10;
      }

      .cls-136 {
        letter-spacing: -.01em;
      }

      .cls-137, .cls-15 {
        letter-spacing: -.01em;
      }

      .cls-138 {
        letter-spacing: 0em;
      }

      .cls-139 {
        letter-spacing: 0em;
      }

      .cls-140 {
        letter-spacing: 0em;
      }

      .cls-141 {
        letter-spacing: 0em;
      }

      .cls-142 {
        letter-spacing: 0em;
      }

      .cls-143 {
        letter-spacing: 0em;
      }

      .cls-144, .cls-29, .cls-21 {
        letter-spacing: 0em;
      }

      .cls-145 {
        font-size: 13.53px;
      }

      .cls-145, .cls-17 {
        font-family: BalooThambi2-Bold, 'Baloo Thambi 2';
        font-weight: 700;
      }

      .cls-16 {
        letter-spacing: 0em;
      }

      .cls-17 {
        font-size: 29px;
      }

      .cls-118 {
        fill: url(#linear-gradient-4);
      }

      .cls-119 {
        fill: url(#linear-gradient-2);
      }

      .cls-120 {
        fill: url(#linear-gradient-3);
      }

      .cls-121 {
        fill: url(#linear-gradient-8);
      }

      .cls-122 {
        fill: url(#linear-gradient-9);
      }

      .cls-123 {
        fill: url(#linear-gradient-7);
      }

      .cls-124 {
        fill: url(#linear-gradient-5);
      }

      .cls-125 {
        fill: url(#linear-gradient-6);
      }

      .cls-18, .cls-146 {
        letter-spacing: -.01em;
      }

      .cls-27, .cls-19, .cls-147 {
        letter-spacing: -.02em;
      }

      .cls-148 {
        letter-spacing: -.01em;
      }

      .cls-28, .cls-20, .cls-149 {
        letter-spacing: -.02em;
      }

      .cls-150 {
        letter-spacing: -.03em;
      }

      .cls-151 {
        letter-spacing: 0em;
      }

      .cls-152 {
        letter-spacing: -.01em;
      }

      .cls-153 {
        letter-spacing: 0em;
      }

      .cls-154 {
        letter-spacing: 0em;
      }
    </style>
    <linearGradient id="linear-gradient" x1="124.73" y1="619.71" x2="180.07" y2="619.71" gradientUnits="userSpaceOnUse">
      <stop offset="0" stop-color="#fff"/>
      <stop offset="1" stop-color="#262262"/>
    </linearGradient>
    <linearGradient id="linear-gradient-2" y1="576.01" y2="576.01" xlink:href="#linear-gradient"/>
    <linearGradient id="linear-gradient-3" y1="547.02" y2="547.02" xlink:href="#linear-gradient"/>
    <linearGradient id="linear-gradient-4" y1="500.5" y2="500.5" xlink:href="#linear-gradient"/>
    <linearGradient id="linear-gradient-5" y1="466.29" y2="466.29" xlink:href="#linear-gradient"/>
    <linearGradient id="linear-gradient-6" y1="422.97" y2="422.97" xlink:href="#linear-gradient"/>
    <linearGradient id="linear-gradient-7" y1="378.35" y2="378.35" xlink:href="#linear-gradient"/>
    <linearGradient id="linear-gradient-8" y1="313.09" y2="313.09" xlink:href="#linear-gradient"/>
    <linearGradient id="linear-gradient-9" x1="123.5" y1="281.85" x2="180.79" y2="281.85" xlink:href="#linear-gradient"/>
    <linearGradient id="linear-gradient-10" y1="233.52" x2="180.79" y2="233.52" xlink:href="#linear-gradient"/>
    <linearGradient id="linear-gradient-11" y1="193.3" y2="193.3" xlink:href="#linear-gradient"/>
    <linearGradient id="linear-gradient-12" x1="123.5" y1="150.75" x2="180.79" y2="150.75" xlink:href="#linear-gradient"/>
    <linearGradient id="linear-gradient-13" x1="181.95" y1="620.77" x2="229.81" y2="620.77" xlink:href="#linear-gradient"/>
    <linearGradient id="linear-gradient-14" x1="181.95" y1="577.07" x2="229.81" y2="577.07" xlink:href="#linear-gradient"/>
    <linearGradient id="linear-gradient-15" x1="181.95" y1="548.08" x2="229.81" y2="548.08" xlink:href="#linear-gradient"/>
    <linearGradient id="linear-gradient-16" x1="181.95" y1="501.56" x2="229.81" y2="501.56" xlink:href="#linear-gradient"/>
    <linearGradient id="linear-gradient-17" x1="181.95" y1="467.35" x2="229.81" y2="467.35" xlink:href="#linear-gradient"/>
    <linearGradient id="linear-gradient-18" x1="181.95" y1="424.03" x2="229.81" y2="424.03" xlink:href="#linear-gradient"/>
    <linearGradient id="linear-gradient-19" x1="181.95" y1="379.41" x2="229.81" y2="379.41" xlink:href="#linear-gradient"/>
    <linearGradient id="linear-gradient-20" x1="181.95" y1="314.14" x2="229.81" y2="314.14" xlink:href="#linear-gradient"/>
    <linearGradient id="linear-gradient-21" x1="180.89" y1="282.9" x2="230.43" y2="282.9" xlink:href="#linear-gradient"/>
    <linearGradient id="linear-gradient-22" x1="181.95" y1="234.58" x2="230.43" y2="234.58" xlink:href="#linear-gradient"/>
    <linearGradient id="linear-gradient-23" x1="181.95" y1="194.36" x2="229.81" y2="194.36" xlink:href="#linear-gradient"/>
    <linearGradient id="linear-gradient-24" x1="180.89" y1="151.81" x2="230.43" y2="151.81" xlink:href="#linear-gradient"/>
    <linearGradient id="linear-gradient-25" x1="231.77" y1="621.82" x2="272.14" y2="621.82" xlink:href="#linear-gradient"/>
    <linearGradient id="linear-gradient-26" x1="231.77" y1="578.13" x2="272.14" y2="578.13" xlink:href="#linear-gradient"/>
    <linearGradient id="linear-gradient-27" x1="231.77" y1="549.14" x2="272.14" y2="549.14" xlink:href="#linear-gradient"/>
    <linearGradient id="linear-gradient-28" x1="231.77" y1="502.62" x2="272.14" y2="502.62" xlink:href="#linear-gradient"/>
    <linearGradient id="linear-gradient-29" x1="231.77" y1="468.41" x2="272.14" y2="468.41" xlink:href="#linear-gradient"/>
    <linearGradient id="linear-gradient-30" x1="231.77" y1="425.09" x2="272.14" y2="425.09" xlink:href="#linear-gradient"/>
    <linearGradient id="linear-gradient-31" x1="231.77" y1="380.47" x2="272.14" y2="380.47" xlink:href="#linear-gradient"/>
    <linearGradient id="linear-gradient-32" x1="231.77" y1="315.2" x2="272.14" y2="315.2" xlink:href="#linear-gradient"/>
    <linearGradient id="linear-gradient-33" x1="230.87" y1="283.96" x2="272.67" y2="283.96" xlink:href="#linear-gradient"/>
    <linearGradient id="linear-gradient-34" x1="231.77" y1="235.64" x2="272.67" y2="235.64" xlink:href="#linear-gradient"/>
    <linearGradient id="linear-gradient-35" x1="231.77" y1="195.42" x2="272.14" y2="195.42" xlink:href="#linear-gradient"/>
    <linearGradient id="linear-gradient-36" x1="230.87" y1="152.87" x2="272.67" y2="152.87" xlink:href="#linear-gradient"/>
    <linearGradient id="linear-gradient-37" x1="273.12" y1="622.88" x2="306.01" y2="622.88" xlink:href="#linear-gradient"/>
    <linearGradient id="linear-gradient-38" x1="273.12" y1="579.19" x2="306.01" y2="579.19" xlink:href="#linear-gradient"/>
    <linearGradient id="linear-gradient-39" x1="273.12" y1="550.19" x2="306.01" y2="550.19" xlink:href="#linear-gradient"/>
    <linearGradient id="linear-gradient-40" x1="273.12" y1="503.68" x2="306.01" y2="503.68" xlink:href="#linear-gradient"/>
    <linearGradient id="linear-gradient-41" x1="273.12" y1="469.47" x2="306.01" y2="469.47" xlink:href="#linear-gradient"/>
    <linearGradient id="linear-gradient-42" x1="273.12" y1="426.15" x2="306.01" y2="426.15" xlink:href="#linear-gradient"/>
    <linearGradient id="linear-gradient-43" x1="273.12" y1="381.53" x2="306.01" y2="381.53" xlink:href="#linear-gradient"/>
    <linearGradient id="linear-gradient-44" x1="273.12" y1="316.26" x2="306.01" y2="316.26" xlink:href="#linear-gradient"/>
    <linearGradient id="linear-gradient-45" x1="272.39" y1="285.02" x2="306.44" y2="285.02" xlink:href="#linear-gradient"/>
    <linearGradient id="linear-gradient-46" x1="273.12" y1="236.7" x2="306.44" y2="236.7" xlink:href="#linear-gradient"/>
    <linearGradient id="linear-gradient-47" x1="273.12" y1="196.48" x2="306.01" y2="196.48" xlink:href="#linear-gradient"/>
    <linearGradient id="linear-gradient-48" x1="272.39" y1="153.92" x2="306.44" y2="153.92" xlink:href="#linear-gradient"/>
    <linearGradient id="linear-gradient-49" x1="-93.91" y1="621.3" x2="-38.57" y2="621.3" gradientTransform="translate(394.24) rotate(-180) scale(1 -1)" xlink:href="#linear-gradient"/>
    <linearGradient id="linear-gradient-50" x1="-93.91" y1="577.6" x2="-38.57" y2="577.6" gradientTransform="translate(394.24) rotate(-180) scale(1 -1)" xlink:href="#linear-gradient"/>
    <linearGradient id="linear-gradient-51" x1="-93.91" y1="548.61" x2="-38.57" y2="548.61" gradientTransform="translate(394.24) rotate(-180) scale(1 -1)" xlink:href="#linear-gradient"/>
    <linearGradient id="linear-gradient-52" x1="-93.91" y1="502.09" x2="-38.57" y2="502.09" gradientTransform="translate(394.24) rotate(-180) scale(1 -1)" xlink:href="#linear-gradient"/>
    <linearGradient id="linear-gradient-53" x1="-93.91" y1="467.88" x2="-38.57" y2="467.88" gradientTransform="translate(394.24) rotate(-180) scale(1 -1)" xlink:href="#linear-gradient"/>
    <linearGradient id="linear-gradient-54" x1="-93.91" y1="424.56" x2="-38.57" y2="424.56" gradientTransform="translate(394.24) rotate(-180) scale(1 -1)" xlink:href="#linear-gradient"/>
    <linearGradient id="linear-gradient-55" x1="-93.91" y1="379.94" x2="-38.57" y2="379.94" gradientTransform="translate(394.24) rotate(-180) scale(1 -1)" xlink:href="#linear-gradient"/>
    <linearGradient id="linear-gradient-56" x1="-93.91" y1="314.67" x2="-38.57" y2="314.67" gradientTransform="translate(394.24) rotate(-180) scale(1 -1)" xlink:href="#linear-gradient"/>
    <linearGradient id="linear-gradient-57" x1="-95.14" y1="283.43" x2="-37.85" y2="283.43" gradientTransform="translate(394.24) rotate(-180) scale(1 -1)" xlink:href="#linear-gradient"/>
    <linearGradient id="linear-gradient-58" x1="-93.91" y1="235.11" x2="-37.85" y2="235.11" gradientTransform="translate(394.24) rotate(-180) scale(1 -1)" xlink:href="#linear-gradient"/>
    <linearGradient id="linear-gradient-59" x1="-93.91" y1="194.89" x2="-38.57" y2="194.89" gradientTransform="translate(394.24) rotate(-180) scale(1 -1)" xlink:href="#linear-gradient"/>
    <linearGradient id="linear-gradient-60" x1="-95.14" y1="152.34" x2="-37.85" y2="152.34" gradientTransform="translate(394.24) rotate(-180) scale(1 -1)" xlink:href="#linear-gradient"/>
    <linearGradient id="linear-gradient-61" x1="-36.69" y1="622.35" x2="11.16" y2="622.35" gradientTransform="translate(394.24) rotate(-180) scale(1 -1)" xlink:href="#linear-gradient"/>
    <linearGradient id="linear-gradient-62" x1="-36.69" y1="578.66" x2="11.16" y2="578.66" gradientTransform="translate(394.24) rotate(-180) scale(1 -1)" xlink:href="#linear-gradient"/>
    <linearGradient id="linear-gradient-63" x1="-36.69" y1="549.67" x2="11.16" y2="549.67" gradientTransform="translate(394.24) rotate(-180) scale(1 -1)" xlink:href="#linear-gradient"/>
    <linearGradient id="linear-gradient-64" x1="-36.69" y1="503.15" x2="11.16" y2="503.15" gradientTransform="translate(394.24) rotate(-180) scale(1 -1)" xlink:href="#linear-gradient"/>
    <linearGradient id="linear-gradient-65" x1="-36.69" y1="468.94" x2="11.16" y2="468.94" gradientTransform="translate(394.24) rotate(-180) scale(1 -1)" xlink:href="#linear-gradient"/>
    <linearGradient id="linear-gradient-66" x1="-36.69" y1="425.62" x2="11.16" y2="425.62" gradientTransform="translate(394.24) rotate(-180) scale(1 -1)" xlink:href="#linear-gradient"/>
    <linearGradient id="linear-gradient-67" x1="-36.69" y1="381" x2="11.16" y2="381" gradientTransform="translate(394.24) rotate(-180) scale(1 -1)" xlink:href="#linear-gradient"/>
    <linearGradient id="linear-gradient-68" x1="-36.69" y1="315.73" x2="11.16" y2="315.73" gradientTransform="translate(394.24) rotate(-180) scale(1 -1)" xlink:href="#linear-gradient"/>
    <linearGradient id="linear-gradient-69" x1="-37.76" y1="284.49" x2="11.79" y2="284.49" gradientTransform="translate(394.24) rotate(-180) scale(1 -1)" xlink:href="#linear-gradient"/>
    <linearGradient id="linear-gradient-70" x1="-36.69" y1="236.17" x2="11.79" y2="236.17" gradientTransform="translate(394.24) rotate(-180) scale(1 -1)" xlink:href="#linear-gradient"/>
    <linearGradient id="linear-gradient-71" x1="-36.69" y1="195.95" x2="11.16" y2="195.95" gradientTransform="translate(394.24) rotate(-180) scale(1 -1)" xlink:href="#linear-gradient"/>
    <linearGradient id="linear-gradient-72" x1="-37.76" y1="153.39" x2="11.79" y2="153.39" gradientTransform="translate(394.24) rotate(-180) scale(1 -1)" xlink:href="#linear-gradient"/>
    <linearGradient id="linear-gradient-73" x1="13.12" y1="623.41" x2="53.5" y2="623.41" gradientTransform="translate(394.24) rotate(-180) scale(1 -1)" xlink:href="#linear-gradient"/>
    <linearGradient id="linear-gradient-74" x1="13.12" y1="579.72" x2="53.5" y2="579.72" gradientTransform="translate(394.24) rotate(-180) scale(1 -1)" xlink:href="#linear-gradient"/>
    <linearGradient id="linear-gradient-75" x1="13.12" y1="550.72" x2="53.5" y2="550.72" gradientTransform="translate(394.24) rotate(-180) scale(1 -1)" xlink:href="#linear-gradient"/>
    <linearGradient id="linear-gradient-76" x1="13.12" y1="504.21" x2="53.5" y2="504.21" gradientTransform="translate(394.24) rotate(-180) scale(1 -1)" xlink:href="#linear-gradient"/>
    <linearGradient id="linear-gradient-77" x1="13.12" y1="470" x2="53.5" y2="470" gradientTransform="translate(394.24) rotate(-180) scale(1 -1)" xlink:href="#linear-gradient"/>
    <linearGradient id="linear-gradient-78" x1="13.12" y1="426.68" x2="53.5" y2="426.68" gradientTransform="translate(394.24) rotate(-180) scale(1 -1)" xlink:href="#linear-gradient"/>
    <linearGradient id="linear-gradient-79" x1="13.12" y1="382.06" x2="53.5" y2="382.06" gradientTransform="translate(394.24) rotate(-180) scale(1 -1)" xlink:href="#linear-gradient"/>
    <linearGradient id="linear-gradient-80" x1="13.12" y1="316.79" x2="53.5" y2="316.79" gradientTransform="translate(394.24) rotate(-180) scale(1 -1)" xlink:href="#linear-gradient"/>
    <linearGradient id="linear-gradient-81" x1="12.22" y1="285.55" x2="54.03" y2="285.55" gradientTransform="translate(394.24) rotate(-180) scale(1 -1)" xlink:href="#linear-gradient"/>
    <linearGradient id="linear-gradient-82" x1="13.12" y1="237.23" x2="54.03" y2="237.23" gradientTransform="translate(394.24) rotate(-180) scale(1 -1)" xlink:href="#linear-gradient"/>
    <linearGradient id="linear-gradient-83" x1="13.12" y1="197.01" x2="53.5" y2="197.01" gradientTransform="translate(394.24) rotate(-180) scale(1 -1)" xlink:href="#linear-gradient"/>
    <linearGradient id="linear-gradient-84" x1="12.22" y1="154.45" x2="54.03" y2="154.45" gradientTransform="translate(394.24) rotate(-180) scale(1 -1)" xlink:href="#linear-gradient"/>
    <linearGradient id="linear-gradient-85" x1="54.48" y1="624.47" x2="87.37" y2="624.47" gradientTransform="translate(394.24) rotate(-180) scale(1 -1)" xlink:href="#linear-gradient"/>
    <linearGradient id="linear-gradient-86" x1="54.48" y1="580.78" x2="87.37" y2="580.78" gradientTransform="translate(394.24) rotate(-180) scale(1 -1)" xlink:href="#linear-gradient"/>
    <linearGradient id="linear-gradient-87" x1="54.48" y1="551.78" x2="87.37" y2="551.78" gradientTransform="translate(394.24) rotate(-180) scale(1 -1)" xlink:href="#linear-gradient"/>
    <linearGradient id="linear-gradient-88" x1="54.48" y1="505.27" x2="87.37" y2="505.27" gradientTransform="translate(394.24) rotate(-180) scale(1 -1)" xlink:href="#linear-gradient"/>
    <linearGradient id="linear-gradient-89" x1="54.48" y1="471.06" x2="87.37" y2="471.06" gradientTransform="translate(394.24) rotate(-180) scale(1 -1)" xlink:href="#linear-gradient"/>
    <linearGradient id="linear-gradient-90" x1="54.48" y1="427.74" x2="87.37" y2="427.74" gradientTransform="translate(394.24) rotate(-180) scale(1 -1)" xlink:href="#linear-gradient"/>
    <linearGradient id="linear-gradient-91" x1="54.48" y1="383.11" x2="87.37" y2="383.11" gradientTransform="translate(394.24) rotate(-180) scale(1 -1)" xlink:href="#linear-gradient"/>
    <linearGradient id="linear-gradient-92" x1="54.48" y1="317.85" x2="87.37" y2="317.85" gradientTransform="translate(394.24) rotate(-180) scale(1 -1)" xlink:href="#linear-gradient"/>
    <linearGradient id="linear-gradient-93" x1="53.75" y1="286.61" x2="87.8" y2="286.61" gradientTransform="translate(394.24) rotate(-180) scale(1 -1)" xlink:href="#linear-gradient"/>
    <linearGradient id="linear-gradient-94" x1="54.48" y1="238.28" x2="87.8" y2="238.28" gradientTransform="translate(394.24) rotate(-180) scale(1 -1)" xlink:href="#linear-gradient"/>
    <linearGradient id="linear-gradient-95" x1="54.48" y1="198.07" x2="87.37" y2="198.07" gradientTransform="translate(394.24) rotate(-180) scale(1 -1)" xlink:href="#linear-gradient"/>
    <linearGradient id="linear-gradient-96" x1="53.75" y1="155.51" x2="87.8" y2="155.51" gradientTransform="translate(394.24) rotate(-180) scale(1 -1)" xlink:href="#linear-gradient"/>
  </defs>
  <rect class="cls-26" x=".5" y=".5" width="595.28" height="841.89"/>
  <g>
    <g>
      <path class="cls-30" d="m124.73,661.9v-39.49l16.51-16.44v12.34l38.83-40.8v10.02l-38.83,42.88v12.34l-16.51,19.14Z"/>
      <path class="cls-119" d="m124.73,616.56v-34.81l14.41-11.93v20.49l9.66-8.87v-18.2l11.25-9.39v17.26l9.82-9.02v-18.23l10.19-8.41v27.33l-55.34,53.77Z"/>
      <path class="cls-120" d="m124.73,574.07v-32.12l14.5-9.61v17.93l10.56-7.83v-14.6l11.05-7.45v13.85l19.23-14.27v10.06l-55.34,44.04Z"/>
      <path class="cls-118" d="m162.24,496.29l-20.24,15.66,20.24-7.87v-7.8Zm10.51-8.05v11.82l7.32-2.89v10.22l-55.34,21.52v-14.17l55.34-42.63v10.49l-7.32,5.65Z"/>
      <path class="cls-124" d="m124.73,494.73v-12.13l34.1-27.83-34.1,12v-12.24l55.34-16.67v9.44l-26.8,23.31,26.8-11.17v9.42l-55.34,25.87Z"/>
      <path class="cls-125" d="m124.73,445.81v-12.13l34.1-20.92-34.1,5.1v-12.24l55.34-5.46v9.44l-26.8,17.89,26.8-5.75v9.42l-55.34,14.67Z"/>
      <path class="cls-123" d="m124.73,401.22v-14.43l22.01-8.16-22.01-8.8v-14.35l35.57,17.81,19.77.81v10.04l-19.77.25-35.57,16.83Z"/>
      <path class="cls-121" d="m124.73,335.95v-14.43l22.01-2.21-22.01-14.74v-14.35l35.57,27.41,19.77,6.15v10.04l-19.77-5.08-35.57,7.22Z"/>
      <path class="cls-122" d="m156.09,291.64c5.35,2.29,9.03,3.21,11.2,2.85,2.13-.35,3.17-1.63,3.17-3.83s-1.02-4.51-3.11-6.78c-2.13-2.32-6.06-4.93-12.01-7.91-5.28-2.65-9.31-3.94-11.93-3.77-2.69.17-4.05,1.54-4.05,4.11s1.39,5.05,4.12,7.73c2.66,2.61,6.93,5.16,12.62,7.6Zm-.07,11.28c-9.27-3.47-17.08-8.2-23.01-14.16-6.25-6.28-9.5-12.98-9.5-19.84s3.2-10.8,9.34-11.29c5.84-.46,13.55,2.03,22.72,7.12,6.2,3.44,11.01,6.8,14.62,10.13,3.48,3.21,6.1,6.5,7.93,9.9,1.8,3.34,2.68,6.77,2.68,10.35s-.76,6.33-2.31,8.07c-1.57,1.78-4.11,2.75-7.7,2.9s-8.59-.88-14.77-3.19Z"/>
      <path class="cls-47" d="m124.73,213.28v-12.96l36.33,27.28c3.02,2.26,5.78,4.66,8.32,7.19,2.47,2.47,4.58,5,6.36,7.61,1.74,2.56,2.94,4.78,3.63,6.68.95,2.62,1.43,5.28,1.43,7.99,0,1.57-.14,3.19-.43,4.86-.29,1.68-.87,2.87-1.74,3.59-.88.72-2.15,1.12-3.81,1.18-1.7.06-3.47-.25-5.34-.95-3.08-1.15-5.89-2.46-8.4-3.92l-36.33-21.22v-12.96l37.07,23.64c2.77,1.76,4.88,2.59,6.37,2.5,1.47-.09,2.2-1.04,2.2-2.87s-.72-3.73-2.16-5.76c-1.47-2.06-3.59-4.07-6.4-6.03l-37.07-25.84Z"/>
      <path class="cls-44" d="m124.73,191.63v-12.13l34.1,14.95-34.1-30.78v-12.24l55.34,52.74v9.44l-26.8-10.3,26.8,22.44v9.42l-55.34-43.54Z"/>
      <path class="cls-45" d="m163.22,163.09l-11.13-11.98v-17.8l21.63,25.08c2.8,6.27,4.66,11.04,5.63,14.42.96,3.35,1.44,6.57,1.44,9.68,0,3.83-.86,6.06-2.61,6.7-1.78.65-4.49-.14-8.21-2.46-3.87-2.41-8.5-6.24-14-11.64-6.11-6-11.72-12.38-16.73-19.1-5.24-7.02-9.37-13.88-12.29-20.45-2.3-5.21-3.46-10.28-3.46-15.12s.72-7.36,2.16-8.06c1.42-.69,3.58-.13,6.45,1.66,2.8,1.75,6.26,4.65,10.32,8.61l3.23,15.19c-2.28-2.05-4.06-3.2-5.31-3.42s-1.9.57-1.9,2.37c0,2.69,1.49,6.4,4.42,11.05,2.85,4.53,7.22,9.83,12.92,15.74s9.65,9.29,11.93,10.25,3.32.16,3.32-2.31c0-1.17-.23-2.55-.71-4.13-.47-1.59-1.29-3.72-2.45-6.4l-4.67-5.19v7.3Z"/>
    </g>
    <g>
      <polygon class="cls-46" points="181.95 662.96 181.95 623.47 196.23 607.03 196.23 619.37 229.81 578.57 229.81 588.59 196.23 631.47 196.23 643.82 181.95 662.96"/>
      <polygon class="cls-55" points="181.95 617.62 181.95 582.81 194.41 570.89 194.41 591.38 202.77 582.51 202.77 564.31 212.5 554.92 212.5 572.18 220.99 563.17 220.99 544.93 229.81 536.52 229.81 563.85 181.95 617.62"/>
      <polygon class="cls-51" points="181.95 575.13 181.95 543.01 194.49 533.4 194.49 551.33 203.62 543.49 203.62 528.89 213.17 521.44 213.17 535.3 229.81 521.03 229.81 531.09 181.95 575.13"/>
      <path class="cls-49" d="m214.39,497.35l-17.5,15.66,17.5-7.87v-7.8Zm9.09-8.05v11.82l6.33-2.89v10.22l-47.86,21.52v-14.17l47.86-42.63v10.49l-6.33,5.65Z"/>
      <polygon class="cls-48" points="181.95 495.78 181.95 483.66 211.44 455.83 181.95 467.83 181.95 455.58 229.81 438.92 229.81 448.36 206.63 471.67 229.81 460.49 229.81 469.91 181.95 495.78"/>
      <polygon class="cls-54" points="181.95 446.87 181.95 434.74 211.44 413.81 181.95 418.91 181.95 406.66 229.81 401.2 229.81 410.64 206.63 428.53 229.81 422.78 229.81 432.2 181.95 446.87"/>
      <polygon class="cls-50" points="181.95 402.28 181.95 387.85 200.98 379.69 181.95 370.89 181.95 356.54 212.71 374.35 229.81 375.16 229.81 385.19 212.71 385.45 181.95 402.28"/>
      <polygon class="cls-57" points="181.95 337.01 181.95 322.58 200.98 320.37 181.95 305.63 181.95 291.28 212.71 318.69 229.81 324.84 229.81 334.88 212.71 329.79 181.95 337.01"/>
      <path class="cls-53" d="m209.07,292.7c4.62,2.29,7.81,3.21,9.68,2.85,1.84-.35,2.74-1.63,2.74-3.83s-.89-4.51-2.69-6.78c-1.84-2.32-5.24-4.93-10.39-7.91-4.57-2.65-8.05-3.94-10.32-3.77-2.32.17-3.51,1.54-3.51,4.11s1.2,5.05,3.56,7.73c2.3,2.61,5.99,5.16,10.91,7.6Zm-.06,11.28c-8.02-3.47-14.77-8.2-19.9-14.16-5.41-6.28-8.22-12.98-8.22-19.84s2.77-10.8,8.08-11.29c5.05-.46,11.72,2.03,19.65,7.12,5.36,3.44,9.52,6.8,12.64,10.13,3.01,3.21,5.27,6.5,6.86,9.9,1.55,3.34,2.32,6.77,2.32,10.35s-.66,6.33-2,8.07c-1.36,1.78-3.56,2.75-6.66,2.9s-7.43-.88-12.77-3.19Z"/>
      <path class="cls-56" d="m181.95,214.34v-12.96l31.42,27.28c2.61,2.26,5,4.66,7.19,7.19,2.14,2.47,3.96,5,5.5,7.61,1.5,2.56,2.55,4.78,3.14,6.68.82,2.62,1.23,5.28,1.23,7.99,0,1.57-.12,3.19-.38,4.86-.25,1.68-.75,2.87-1.51,3.59-.76.72-1.86,1.12-3.3,1.18-1.47.06-3.01-.25-4.62-.95-2.66-1.15-5.09-2.46-7.26-3.92l-31.42-21.22v-12.96l32.05,23.64c2.39,1.76,4.22,2.59,5.51,2.5,1.27-.09,1.9-1.04,1.9-2.87s-.62-3.73-1.87-5.76c-1.27-2.06-3.1-4.07-5.54-6.03l-32.05-25.84Z"/>
      <polygon class="cls-52" points="181.95 192.69 181.95 180.56 211.44 195.51 181.95 164.74 181.95 152.49 229.81 205.23 229.81 214.67 206.63 204.38 229.81 226.81 229.81 236.23 181.95 192.69"/>
      <path class="cls-59" d="m215.23,164.15l-9.63-11.98v-17.8l18.71,25.08c2.42,6.27,4.03,11.04,4.87,14.42s1.25,6.57,1.25,9.68c0,3.83-.74,6.06-2.25,6.7-1.54.65-3.88-.14-7.1-2.46-3.35-2.41-7.35-6.24-12.11-11.64-5.28-6-10.14-12.38-14.47-19.1-4.53-7.02-8.11-13.88-10.63-20.45-1.99-5.21-2.99-10.28-2.99-15.12s.63-7.36,1.87-8.06c1.23-.69,3.1-.13,5.58,1.66,2.43,1.75,5.42,4.65,8.92,8.61l2.8,15.19c-1.97-2.05-3.51-3.2-4.59-3.42s-1.64.57-1.64,2.37c0,2.69,1.29,6.4,3.82,11.05,2.47,4.53,6.25,9.83,11.18,15.74,4.96,5.95,8.35,9.29,10.31,10.25,1.92.94,2.87.16,2.87-2.31,0-1.17-.2-2.55-.61-4.13-.41-1.59-1.11-3.72-2.12-6.4l-4.04-5.19v7.3Z"/>
    </g>
    <g>
      <polygon class="cls-43" points="231.77 664.02 231.77 624.53 243.81 608.09 243.81 620.43 272.14 579.63 272.14 589.65 243.81 632.53 243.81 644.87 231.77 664.02"/>
      <polygon class="cls-60" points="231.77 618.68 231.77 583.87 242.28 571.94 242.28 592.44 249.33 583.57 249.33 565.37 257.54 555.98 257.54 573.24 264.7 564.23 264.7 545.99 272.14 537.58 272.14 564.91 231.77 618.68"/>
      <polygon class="cls-58" points="231.77 576.19 231.77 544.07 242.34 534.46 242.34 552.38 250.05 544.55 250.05 529.95 258.11 522.5 258.11 536.35 272.14 522.09 272.14 532.14 231.77 576.19"/>
      <path class="cls-42" d="m259.13,498.41l-14.77,15.66,14.77-7.87v-7.8Zm7.66-8.05v11.82l5.34-2.89v10.22l-40.37,21.52v-14.17l40.37-42.63v10.49l-5.34,5.65Z"/>
      <polygon class="cls-33" points="231.77 496.84 231.77 484.71 256.65 456.89 231.77 468.89 231.77 456.64 272.14 439.98 272.14 449.42 252.59 472.73 272.14 461.55 272.14 470.97 231.77 496.84"/>
      <polygon class="cls-35" points="231.77 447.92 231.77 435.8 256.65 414.87 231.77 419.97 231.77 407.72 272.14 402.26 272.14 411.7 252.59 429.59 272.14 423.84 272.14 433.25 231.77 447.92"/>
      <polygon class="cls-36" points="231.77 403.34 231.77 388.91 247.82 380.75 231.77 371.95 231.77 357.6 257.72 375.4 272.14 376.22 272.14 386.25 257.72 386.51 231.77 403.34"/>
      <polygon class="cls-34" points="231.77 338.07 231.77 323.64 247.82 321.43 231.77 306.69 231.77 292.34 257.72 319.75 272.14 325.9 272.14 335.93 257.72 330.85 231.77 338.07"/>
      <path class="cls-32" d="m254.64,293.76c3.9,2.29,6.59,3.21,8.17,2.85,1.55-.35,2.31-1.63,2.31-3.83s-.75-4.51-2.27-6.78c-1.55-2.32-4.42-4.93-8.76-7.91-3.85-2.65-6.79-3.94-8.71-3.77-1.96.17-2.96,1.54-2.96,4.11s1.01,5.05,3,7.73c1.94,2.61,5.06,5.16,9.2,7.6Zm-.05,11.28c-6.76-3.47-12.46-8.2-16.79-14.16-4.56-6.28-6.93-12.98-6.93-19.84s2.33-10.8,6.82-11.29c4.26-.46,9.88,2.03,16.58,7.12,4.52,3.44,8.03,6.8,10.66,10.13,2.54,3.21,4.45,6.5,5.78,9.9,1.31,3.34,1.96,6.77,1.96,10.35s-.56,6.33-1.69,8.07c-1.15,1.78-3,2.75-5.62,2.9s-6.27-.88-10.77-3.19Z"/>
      <path class="cls-39" d="m231.77,215.4v-12.96l26.51,27.28c2.2,2.26,4.22,4.66,6.07,7.19,1.8,2.47,3.34,5,4.64,7.61,1.27,2.56,2.15,4.78,2.65,6.68.69,2.62,1.04,5.28,1.04,7.99,0,1.57-.11,3.19-.32,4.86-.21,1.68-.63,2.87-1.27,3.59-.64.72-1.57,1.12-2.78,1.18-1.24.06-2.54-.25-3.9-.95-2.25-1.15-4.3-2.46-6.13-3.92l-26.51-21.22v-12.96l27.04,23.64c2.02,1.76,3.56,2.59,4.65,2.5,1.07-.09,1.6-1.04,1.6-2.87s-.52-3.73-1.58-5.76c-1.07-2.06-2.62-4.07-4.67-6.03l-27.04-25.84Z"/>
      <polygon class="cls-41" points="231.77 193.75 231.77 181.62 256.65 196.57 231.77 165.8 231.77 153.55 272.14 206.29 272.14 215.73 252.59 205.43 272.14 227.87 272.14 237.29 231.77 193.75"/>
      <path class="cls-37" d="m259.85,165.21l-8.12-11.98v-17.8l15.78,25.08c2.04,6.27,3.4,11.04,4.11,14.42.7,3.35,1.05,6.57,1.05,9.68,0,3.83-.63,6.06-1.9,6.7-1.3.65-3.28-.14-5.99-2.46-2.82-2.41-6.2-6.24-10.21-11.64-4.46-6-8.55-12.38-12.2-19.1-3.82-7.02-6.84-13.88-8.96-20.45-1.68-5.21-2.53-10.28-2.53-15.12s.53-7.36,1.57-8.06c1.03-.69,2.61-.13,4.71,1.66,2.05,1.75,4.57,4.65,7.53,8.61l2.36,15.19c-1.67-2.05-2.96-3.2-3.88-3.42s-1.39.57-1.39,2.37c0,2.69,1.09,6.4,3.23,11.05,2.08,4.53,5.27,9.83,9.43,15.74s7.04,9.29,8.7,10.25,2.42.16,2.42-2.31c0-1.17-.17-2.55-.52-4.13-.35-1.59-.94-3.72-1.79-6.4l-3.4-5.19v7.3Z"/>
    </g>
    <g>
      <path class="cls-40" d="m273.12,665.08v-39.49l9.81-16.44v12.34l23.08-40.8v10.02l-23.08,42.88v12.34l-9.81,19.14Z"/>
      <path class="cls-31" d="m273.12,619.74v-34.81l8.57-11.93v20.49l5.74-8.87v-18.2l6.69-9.39v17.26l5.84-9.02v-18.23l6.06-8.41v27.33l-32.89,53.77Z"/>
      <path class="cls-38" d="m273.12,577.24v-32.12l8.62-9.61v17.93l6.28-7.83v-14.6l6.57-7.45v13.85l11.43-14.27v10.06l-32.89,44.04Z"/>
      <path class="cls-69" d="m295.42,499.47l-12.03,15.66,12.03-7.87v-7.8Zm6.24-8.05v11.82l4.35-2.89v10.22l-32.89,21.52v-14.17l32.89-42.63v10.49l-4.35,5.65Z"/>
      <path class="cls-70" d="m273.12,497.9v-12.13l20.27-27.83-20.27,12v-12.24l32.89-16.67v9.44l-15.93,23.31,15.93-11.17v9.42l-32.89,25.87Z"/>
      <path class="cls-67" d="m273.12,448.98v-12.13l20.27-20.92-20.27,5.1v-12.24l32.89-5.46v9.44l-15.93,17.89,15.93-5.75v9.42l-32.89,14.67Z"/>
      <path class="cls-68" d="m273.12,404.39v-14.43l13.08-8.16-13.08-8.8v-14.35l21.14,17.81,11.75.81v10.04l-11.75.25-21.14,16.83Z"/>
      <path class="cls-63" d="m273.12,339.13v-14.43l13.08-2.21-13.08-14.74v-14.35l21.14,27.41,11.75,6.15v10.04l-11.75-5.08-21.14,7.22Z"/>
      <path class="cls-61" d="m291.76,294.82c3.18,2.29,5.36,3.21,6.66,2.85,1.26-.35,1.89-1.63,1.89-3.83s-.61-4.51-1.85-6.78c-1.26-2.32-3.6-4.93-7.14-7.91-3.14-2.65-5.53-3.94-7.09-3.77-1.6.17-2.41,1.54-2.41,4.11s.83,5.05,2.45,7.73c1.58,2.61,4.12,5.16,7.5,7.6Zm-.04,11.28c-5.51-3.47-10.15-8.2-13.68-14.16-3.72-6.28-5.65-12.98-5.65-19.84s1.9-10.8,5.55-11.29c3.47-.46,8.05,2.03,13.51,7.12,3.68,3.44,6.55,6.8,8.69,10.13,2.07,3.21,3.62,6.5,4.71,9.9,1.07,3.34,1.59,6.77,1.59,10.35s-.45,6.33-1.37,8.07c-.93,1.78-2.45,2.75-4.58,2.9s-5.11-.88-8.78-3.19Z"/>
      <path class="cls-62" d="m273.12,216.46v-12.96l21.6,27.28c1.79,2.26,3.44,4.66,4.94,7.19,1.47,2.47,2.72,5,3.78,7.61,1.03,2.56,1.75,4.78,2.16,6.68.57,2.62.85,5.28.85,7.99,0,1.57-.09,3.19-.26,4.86-.17,1.68-.52,2.87-1.04,3.59-.52.72-1.28,1.12-2.27,1.18-1.01.06-2.07-.25-3.18-.95-1.83-1.15-3.5-2.46-4.99-3.92l-21.6-21.22v-12.96l22.03,23.64c1.64,1.76,2.9,2.59,3.79,2.5.87-.09,1.31-1.04,1.31-2.87s-.43-3.73-1.29-5.76c-.87-2.06-2.13-4.07-3.81-6.03l-22.03-25.84Z"/>
      <path class="cls-66" d="m273.12,194.81v-12.13l20.27,14.95-20.27-30.78v-12.24l32.89,52.74v9.44l-15.93-10.3,15.93,22.44v9.42l-32.89-43.54Z"/>
      <path class="cls-64" d="m296,166.27l-6.62-11.98v-17.8l12.86,25.08c1.66,6.27,2.77,11.04,3.35,14.42s.86,6.57.86,9.68c0,3.83-.51,6.06-1.55,6.7-1.06.65-2.67-.14-4.88-2.46-2.3-2.41-5.05-6.24-8.32-11.64-3.63-6-6.97-12.38-9.94-19.1-3.11-7.02-5.57-13.88-7.3-20.45-1.36-5.21-2.06-10.28-2.06-15.12s.43-7.36,1.28-8.06c.84-.69,2.13-.13,3.84,1.66,1.67,1.75,3.72,4.65,6.13,8.61l1.92,15.19c-1.36-2.05-2.41-3.2-3.16-3.42s-1.13.57-1.13,2.37c0,2.69.89,6.4,2.63,11.05,1.7,4.53,4.29,9.83,7.68,15.74s5.74,9.29,7.09,10.25,1.97.16,1.97-2.31c0-1.17-.14-2.55-.42-4.13-.28-1.59-.76-3.72-1.45-6.4l-2.77-5.19v7.3Z"/>
    </g>
  </g>
  <g>
    <g>
      <path class="cls-65" d="m471.64,644.34v-12.34s-38.83-42.88-38.83-42.88v-10.02s38.83,40.8,38.83,40.8v-12.34s16.51,16.44,16.51,16.44v39.49s-16.51-19.14-16.51-19.14Z"/>
      <path class="cls-79" d="m432.82,564.38v-27.33s10.19,8.41,10.19,8.41v18.23s9.82,9.02,9.82,9.02v-17.26s11.25,9.39,11.25,9.39v18.2s9.66,8.87,9.66,8.87v-20.49s14.41,11.93,14.41,11.93v34.81s-55.34-53.77-55.34-53.77Z"/>
      <path class="cls-77" d="m432.82,531.62v-10.06s19.23,14.27,19.23,14.27v-13.85s11.05,7.45,11.05,7.45v14.6s10.56,7.83,10.56,7.83v-17.93s14.5,9.61,14.5,9.61v32.12s-55.34-44.04-55.34-44.04Z"/>
      <path class="cls-78" d="m450.64,505.68l20.24,7.87-20.24-15.66v7.8Zm-17.83-21.5v-10.49s55.34,42.63,55.34,42.63v14.17s-55.34-21.52-55.34-21.52v-10.22s7.32,2.89,7.32,2.89v-11.82s-7.32-5.65-7.32-5.65Z"/>
      <path class="cls-76" d="m432.82,470.44v-9.42s26.8,11.17,26.8,11.17l-26.8-23.31v-9.44s55.34,16.67,55.34,16.67v12.24s-34.1-12-34.1-12l34.1,27.83v12.13s-55.34-25.87-55.34-25.87Z"/>
      <path class="cls-80" d="m432.82,432.73v-9.42s26.8,5.75,26.8,5.75l-26.8-17.89v-9.44s55.34,5.46,55.34,5.46v12.24s-34.1-5.1-34.1-5.1l34.1,20.92v12.13s-55.34-14.67-55.34-14.67Z"/>
      <path class="cls-74" d="m452.58,385.98l-19.77-.25v-10.04s19.77-.81,19.77-.81l35.57-17.81v14.35s-22.01,8.8-22.01,8.8l22.01,8.16v14.43s-35.57-16.83-35.57-16.83Z"/>
      <path class="cls-75" d="m452.58,330.32l-19.77,5.08v-10.04s19.77-6.15,19.77-6.15l35.57-27.41v14.35s-22.01,14.74-22.01,14.74l22.01,2.21v14.43s-35.57-7.22-35.57-7.22Z"/>
      <path class="cls-72" d="m469.41,285.63c2.73-2.68,4.12-5.27,4.12-7.73s-1.37-3.94-4.05-4.11c-2.62-.17-6.65,1.13-11.93,3.77-5.95,2.98-9.88,5.59-12.01,7.91-2.08,2.27-3.11,4.52-3.11,6.78s1.05,3.48,3.17,3.83c2.17.36,5.85-.56,11.2-2.85,5.69-2.44,9.95-4.99,12.62-7.6Zm-27.31,22.07c-3.59-.15-6.13-1.12-7.7-2.9-1.55-1.75-2.31-4.43-2.31-8.07s.88-7.02,2.68-10.35c1.83-3.4,4.45-6.69,7.93-9.9,3.6-3.33,8.42-6.69,14.62-10.13,9.18-5.09,16.88-7.59,22.72-7.12,6.15.49,9.34,4.26,9.34,11.29,0,6.86-3.25,13.56-9.5,19.84-5.93,5.96-13.74,10.69-23.01,14.16-6.17,2.31-11.04,3.34-14.77,3.19Z"/>
      <path class="cls-73" d="m451.09,240.71c-2.81,1.96-4.93,3.96-6.4,6.03-1.45,2.03-2.16,3.95-2.16,5.76s.73,2.79,2.2,2.87c1.49.09,3.6-.73,6.37-2.5l37.07-23.64v12.96s-36.33,21.22-36.33,21.22c-2.51,1.47-5.32,2.78-8.4,3.92-1.87.7-3.65,1.01-5.34.95-1.67-.06-2.93-.45-3.81-1.18-.87-.72-1.45-1.91-1.74-3.59-.29-1.67-.43-3.29-.43-4.86,0-2.72.47-5.37,1.43-7.99.69-1.9,1.89-4.12,3.63-6.68,1.77-2.61,3.88-5.15,6.36-7.61,2.54-2.53,5.3-4.93,8.32-7.19l36.33-27.28v12.96s-37.07,25.84-37.07,25.84Z"/>
      <path class="cls-71" d="m432.82,236.76v-9.42s26.8-22.44,26.8-22.44l-26.8,10.3v-9.44s55.34-52.74,55.34-52.74v12.24s-34.1,30.78-34.1,30.78l34.1-14.95v12.13s-55.34,43.54-55.34,43.54Z"/>
      <path class="cls-81" d="m449.67,157.37l-4.67,5.19c-1.16,2.68-1.97,4.81-2.45,6.4-.47,1.58-.71,2.96-.71,4.13,0,2.47,1.09,3.25,3.32,2.31s6.19-4.3,11.93-10.25c5.7-5.91,10.07-11.21,12.92-15.74,2.93-4.65,4.42-8.36,4.42-11.05,0-1.8-.64-2.59-1.9-2.37s-3.03,1.37-5.31,3.42l3.23-15.19c4.05-3.97,7.51-6.86,10.32-8.61,2.87-1.79,5.04-2.36,6.45-1.66,1.43.7,2.16,3.39,2.16,8.06,0,4.84-1.17,9.91-3.46,15.12-2.91,6.57-7.05,13.43-12.29,20.45-5.01,6.72-10.62,13.1-16.73,19.1-5.49,5.4-10.13,9.23-14,11.64-3.72,2.32-6.43,3.11-8.21,2.46-1.75-.64-2.61-2.87-2.61-6.7,0-3.11.48-6.33,1.44-9.68.97-3.38,2.83-8.15,5.63-14.42l21.63-25.08v17.8s-11.13,11.98-11.13,11.98v-7.3Z"/>
    </g>
    <g>
      <polygon class="cls-82" points="430.94 664.55 430.94 625.06 416.66 608.62 416.66 620.96 383.08 580.16 383.08 590.18 416.66 633.06 416.66 645.4 430.94 664.55"/>
      <polygon class="cls-83" points="430.94 619.21 430.94 584.4 418.47 572.47 418.47 592.97 410.12 584.1 410.12 565.9 400.39 556.51 400.39 573.77 391.89 564.75 391.89 546.52 383.08 538.11 383.08 565.44 430.94 619.21"/>
      <polygon class="cls-94" points="430.94 576.72 430.94 544.6 418.4 534.99 418.4 552.91 409.27 545.08 409.27 530.48 399.71 523.03 399.71 536.88 383.08 522.62 383.08 532.67 430.94 576.72"/>
      <path class="cls-96" d="m398.5,506.74l17.5,7.87-17.5-15.66v7.8Zm-15.42-21.5v-10.49s47.86,42.63,47.86,42.63v14.17s-47.86-21.52-47.86-21.52v-10.22s6.33,2.89,6.33,2.89v-11.82s-6.33-5.65-6.33-5.65Z"/>
      <polygon class="cls-84" points="430.94 497.37 430.94 485.24 401.44 457.42 430.94 469.41 430.94 457.17 383.08 440.5 383.08 449.95 406.25 473.26 383.08 462.08 383.08 471.5 430.94 497.37"/>
      <polygon class="cls-93" points="430.94 448.45 430.94 436.32 401.44 415.4 430.94 420.5 430.94 408.25 383.08 402.79 383.08 412.23 406.25 430.12 383.08 424.37 383.08 433.78 430.94 448.45"/>
      <polygon class="cls-91" points="430.94 403.87 430.94 389.44 411.9 381.28 430.94 372.48 430.94 358.13 400.17 375.93 383.08 376.75 383.08 386.78 400.17 387.04 430.94 403.87"/>
      <polygon class="cls-92" points="430.94 338.6 430.94 324.17 411.9 321.96 430.94 307.22 430.94 292.87 400.17 320.28 383.08 326.43 383.08 336.46 400.17 331.38 430.94 338.6"/>
      <path class="cls-95" d="m414.73,286.69c2.36-2.68,3.56-5.27,3.56-7.73,0-2.57-1.18-3.94-3.51-4.11-2.27-.17-5.75,1.13-10.32,3.77-5.15,2.98-8.55,5.59-10.39,7.91-1.8,2.27-2.69,4.52-2.69,6.78s.9,3.48,2.74,3.83c1.88.36,5.06-.56,9.68-2.85,4.92-2.44,8.61-4.99,10.91-7.6Zm-23.62,22.07c-3.1-.15-5.3-1.12-6.66-2.9-1.34-1.75-2-4.43-2-8.07s.77-7.02,2.32-10.35c1.58-3.4,3.85-6.69,6.86-9.9,3.12-3.33,7.28-6.69,12.64-10.13,7.94-5.09,14.6-7.59,19.65-7.12,5.32.49,8.08,4.26,8.08,11.29,0,6.86-2.81,13.56-8.22,19.84-5.13,5.96-11.88,10.69-19.9,14.16-5.34,2.31-9.55,3.34-12.77,3.19Z"/>
      <path class="cls-99" d="m430.94,215.93v-12.96s-31.42,27.28-31.42,27.28c-2.61,2.26-5,4.66-7.19,7.19-2.14,2.47-3.96,5-5.5,7.61-1.5,2.56-2.55,4.78-3.14,6.68-.82,2.62-1.23,5.28-1.23,7.99,0,1.57.12,3.19.38,4.86.25,1.68.75,2.87,1.51,3.59.76.72,1.86,1.12,3.3,1.18,1.47.06,3.01-.25,4.62-.95,2.66-1.15,5.09-2.46,7.26-3.92l31.42-21.22v-12.96s-32.05,23.64-32.05,23.64c-2.39,1.76-4.22,2.59-5.51,2.5-1.27-.09-1.9-1.04-1.9-2.87s.62-3.73,1.87-5.76c1.27-2.06,3.1-4.07,5.54-6.03l32.05-25.84Z"/>
      <polygon class="cls-97" points="430.94 194.28 430.94 182.15 401.44 197.1 430.94 166.32 430.94 154.08 383.08 206.82 383.08 216.26 406.25 205.96 383.08 228.4 383.08 237.82 430.94 194.28"/>
      <path class="cls-98" d="m397.65,165.74l9.63-11.98v-17.8s-18.71,25.08-18.71,25.08c-2.42,6.27-4.03,11.04-4.87,14.42s-1.25,6.57-1.25,9.68c0,3.83.74,6.06,2.25,6.7,1.54.65,3.88-.14,7.1-2.46,3.35-2.41,7.35-6.24,12.11-11.64,5.28-6,10.14-12.38,14.47-19.1,4.53-7.02,8.11-13.88,10.63-20.45,1.99-5.21,2.99-10.28,2.99-15.12,0-4.67-.63-7.36-1.87-8.06-1.23-.69-3.1-.13-5.58,1.66-2.43,1.75-5.42,4.65-8.92,8.61l-2.8,15.19c1.97-2.05,3.51-3.2,4.59-3.42s1.64.57,1.64,2.37c0,2.69-1.29,6.4-3.82,11.05-2.47,4.53-6.25,9.83-11.18,15.74-4.96,5.95-8.35,9.29-10.31,10.25s-2.87.16-2.87-2.31c0-1.17.2-2.55.61-4.13.41-1.59,1.11-3.72,2.12-6.4l4.04-5.19v7.3Z"/>
    </g>
    <g>
      <polygon class="cls-100" points="381.12 665.6 381.12 626.12 369.07 609.67 369.07 622.02 340.75 581.22 340.75 591.24 369.07 634.12 369.07 646.46 381.12 665.6"/>
      <polygon class="cls-90" points="381.12 620.27 381.12 585.46 370.61 573.53 370.61 594.03 363.56 585.16 363.56 566.96 355.35 557.57 355.35 574.83 348.18 565.81 348.18 547.58 340.75 539.17 340.75 566.5 381.12 620.27"/>
      <polygon class="cls-88" points="381.12 577.77 381.12 545.66 370.54 536.05 370.54 553.97 362.84 546.14 362.84 531.54 354.78 524.09 354.78 537.94 340.75 523.67 340.75 533.73 381.12 577.77"/>
      <path class="cls-89" d="m353.75,507.8l14.77,7.87-14.77-15.66v7.8Zm-13.01-21.5v-10.49s40.37,42.63,40.37,42.63v14.17s-40.37-21.52-40.37-21.52v-10.22s5.34,2.89,5.34,2.89v-11.82s-5.34-5.65-5.34-5.65Z"/>
      <polygon class="cls-87" points="381.12 498.43 381.12 486.3 356.24 458.47 381.12 470.47 381.12 458.23 340.75 441.56 340.75 451 360.3 474.32 340.75 463.14 340.75 472.56 381.12 498.43"/>
      <polygon class="cls-86" points="381.12 449.51 381.12 437.38 356.24 416.46 381.12 421.55 381.12 409.31 340.75 403.85 340.75 413.29 360.3 431.17 340.75 425.43 340.75 434.84 381.12 449.51"/>
      <polygon class="cls-85" points="381.12 404.92 381.12 390.49 365.06 382.34 381.12 373.54 381.12 359.19 355.17 376.99 340.75 377.8 340.75 387.84 355.17 388.09 381.12 404.92"/>
      <polygon class="cls-109" points="381.12 339.66 381.12 325.23 365.06 323.02 381.12 308.28 381.12 293.92 355.17 321.34 340.75 327.49 340.75 337.52 355.17 332.44 381.12 339.66"/>
      <path class="cls-110" d="m367.45,287.75c1.99-2.68,3-5.27,3-7.73,0-2.57-1-3.94-2.96-4.11-1.91-.17-4.85,1.13-8.71,3.77-4.34,2.98-7.21,5.59-8.76,7.91-1.52,2.27-2.27,4.52-2.27,6.78,0,2.2.76,3.48,2.31,3.83,1.58.36,4.27-.56,8.17-2.85,4.15-2.44,7.26-4.99,9.2-7.6Zm-19.92,22.07c-2.62-.15-4.47-1.12-5.62-2.9-1.13-1.75-1.69-4.43-1.69-8.07s.65-7.02,1.96-10.35c1.34-3.4,3.25-6.69,5.78-9.9,2.63-3.33,6.14-6.69,10.66-10.13,6.69-5.09,12.32-7.59,16.58-7.12,4.49.49,6.82,4.26,6.82,11.29s-2.37,13.56-6.93,19.84c-4.33,5.96-10.02,10.69-16.79,14.16-4.5,2.31-8.05,3.34-10.77,3.19Z"/>
      <path class="cls-103" d="m381.12,216.99v-12.96s-26.51,27.28-26.51,27.28c-2.2,2.26-4.22,4.66-6.07,7.19-1.8,2.47-3.34,5-4.64,7.61-1.27,2.56-2.15,4.78-2.65,6.68-.69,2.62-1.04,5.28-1.04,7.99,0,1.57.11,3.19.32,4.86.21,1.68.63,2.87,1.27,3.59.64.72,1.57,1.12,2.78,1.18,1.24.06,2.54-.25,3.9-.95,2.25-1.15,4.3-2.46,6.13-3.92l26.51-21.22v-12.96s-27.04,23.64-27.04,23.64c-2.02,1.76-3.56,2.59-4.65,2.5-1.07-.09-1.6-1.04-1.6-2.87,0-1.81.52-3.73,1.58-5.76,1.07-2.06,2.62-4.07,4.67-6.03l27.04-25.84Z"/>
      <polygon class="cls-104" points="381.12 195.34 381.12 183.21 356.24 198.16 381.12 167.38 381.12 155.14 340.75 207.88 340.75 217.32 360.3 207.02 340.75 229.46 340.75 238.88 381.12 195.34"/>
      <path class="cls-101" d="m353.04,166.8l8.12-11.98v-17.8s-15.78,25.08-15.78,25.08c-2.04,6.27-3.4,11.04-4.11,14.42s-1.05,6.57-1.05,9.68c0,3.83.63,6.06,1.9,6.7,1.3.65,3.28-.14,5.99-2.46,2.82-2.41,6.2-6.24,10.21-11.64,4.46-6,8.55-12.38,12.2-19.1,3.82-7.02,6.84-13.88,8.96-20.45,1.68-5.21,2.53-10.28,2.53-15.12,0-4.67-.53-7.36-1.57-8.06-1.03-.69-2.61-.13-4.71,1.66-2.05,1.75-4.57,4.65-7.53,8.61l-2.36,15.19c1.67-2.05,2.96-3.2,3.88-3.42s1.39.57,1.39,2.37c0,2.69-1.09,6.4-3.23,11.05-2.08,4.53-5.27,9.83-9.43,15.74-4.19,5.95-7.04,9.29-8.7,10.25s-2.42.16-2.42-2.31c0-1.17.17-2.55.52-4.13.35-1.59.94-3.72,1.79-6.4l3.4-5.19v7.3Z"/>
    </g>
    <g>
      <path class="cls-102" d="m329.95,647.52v-12.34s-23.08-42.88-23.08-42.88v-10.02s23.08,40.8,23.08,40.8v-12.34s9.81,16.44,9.81,16.44v39.49s-9.81-19.14-9.81-19.14Z"/>
      <path class="cls-107" d="m306.87,567.56v-27.33s6.06,8.41,6.06,8.41v18.23s5.84,9.02,5.84,9.02v-17.26s6.69,9.39,6.69,9.39v18.2s5.74,8.87,5.74,8.87v-20.49s8.57,11.93,8.57,11.93v34.81s-32.89-53.77-32.89-53.77Z"/>
      <path class="cls-108" d="m306.87,534.79v-10.06s11.43,14.27,11.43,14.27v-13.85s6.57,7.45,6.57,7.45v14.6s6.28,7.83,6.28,7.83v-17.93s8.62,9.61,8.62,9.61v32.12s-32.89-44.04-32.89-44.04Z"/>
      <path class="cls-106" d="m317.47,508.86l12.03,7.87-12.03-15.66v7.8Zm-10.6-21.5v-10.49s32.89,42.63,32.89,42.63v14.17s-32.89-21.52-32.89-21.52v-10.22s4.35,2.89,4.35,2.89v-11.82s-4.35-5.65-4.35-5.65Z"/>
      <path class="cls-105" d="m306.87,473.62v-9.42s15.93,11.17,15.93,11.17l-15.93-23.31v-9.44s32.89,16.67,32.89,16.67v12.24s-20.27-12-20.27-12l20.27,27.83v12.13s-32.89-25.87-32.89-25.87Z"/>
      <path class="cls-114" d="m306.87,435.9v-9.42s15.93,5.75,15.93,5.75l-15.93-17.89v-9.44s32.89,5.46,32.89,5.46v12.24s-20.27-5.1-20.27-5.1l20.27,20.92v12.13s-32.89-14.67-32.89-14.67Z"/>
      <path class="cls-111" d="m318.62,389.15l-11.75-.25v-10.04s11.75-.81,11.75-.81l21.14-17.81v14.35s-13.08,8.8-13.08,8.8l13.08,8.16v14.43s-21.14-16.83-21.14-16.83Z"/>
      <path class="cls-112" d="m318.62,333.5l-11.75,5.08v-10.04s11.75-6.15,11.75-6.15l21.14-27.41v14.35s-13.08,14.74-13.08,14.74l13.08,2.21v14.43s-21.14-7.22-21.14-7.22Z"/>
      <path class="cls-113" d="m328.63,288.8c1.62-2.68,2.45-5.27,2.45-7.73,0-2.57-.81-3.94-2.41-4.11-1.56-.17-3.95,1.13-7.09,3.77-3.54,2.98-5.87,5.59-7.14,7.91-1.24,2.27-1.85,4.52-1.85,6.78s.62,3.48,1.89,3.83c1.29.36,3.48-.56,6.66-2.85,3.38-2.44,5.92-4.99,7.5-7.6Zm-16.23,22.07c-2.13-.15-3.64-1.12-4.58-2.9-.92-1.75-1.37-4.43-1.37-8.07s.53-7.02,1.59-10.35c1.09-3.4,2.65-6.69,4.71-9.9,2.14-3.33,5-6.69,8.69-10.13,5.45-5.09,10.03-7.59,13.51-7.12,3.65.49,5.55,4.26,5.55,11.29,0,6.86-1.93,13.56-5.65,19.84-3.53,5.96-8.17,10.69-13.68,14.16-3.67,2.31-6.56,3.34-8.78,3.19Z"/>
      <path class="cls-116" d="m317.74,243.89c-1.67,1.96-2.93,3.96-3.81,6.03-.86,2.03-1.29,3.95-1.29,5.76s.43,2.79,1.31,2.87c.89.09,2.14-.73,3.79-2.5l22.03-23.64v12.96s-21.6,21.22-21.6,21.22c-1.49,1.47-3.16,2.78-4.99,3.92-1.11.7-2.17,1.01-3.18.95-.99-.06-1.74-.45-2.27-1.18-.52-.72-.86-1.91-1.04-3.59-.17-1.67-.26-3.29-.26-4.86,0-2.72.28-5.37.85-7.99.41-1.9,1.12-4.12,2.16-6.68,1.05-2.61,2.31-5.15,3.78-7.61,1.51-2.53,3.15-4.93,4.94-7.19l21.6-27.28v12.96s-22.03,25.84-22.03,25.84Z"/>
      <path class="cls-117" d="m306.87,239.94v-9.42s15.93-22.44,15.93-22.44l-15.93,10.3v-9.44s32.89-52.74,32.89-52.74v12.24s-20.27,30.78-20.27,30.78l20.27-14.95v12.13s-32.89,43.54-32.89,43.54Z"/>
      <path class="cls-115" d="m316.89,160.55l-2.77,5.19c-.69,2.68-1.17,4.81-1.45,6.4-.28,1.58-.42,2.96-.42,4.13,0,2.47.65,3.25,1.97,2.31s3.68-4.3,7.09-10.25,5.99-11.21,7.68-15.74c1.74-4.65,2.63-8.36,2.63-11.05,0-1.8-.38-2.59-1.13-2.37s-1.8,1.37-3.16,3.42l1.92-15.19c2.41-3.97,4.46-6.86,6.13-8.61,1.71-1.79,2.99-2.36,3.84-1.66.85.7,1.28,3.39,1.28,8.06,0,4.84-.69,9.91-2.06,15.12-1.73,6.57-4.19,13.43-7.3,20.45-2.98,6.72-6.31,13.1-9.94,19.1-3.27,5.4-6.02,9.23-8.32,11.64-2.21,2.32-3.82,3.11-4.88,2.46-1.04-.64-1.55-2.87-1.55-6.7,0-3.11.28-6.33.86-9.68.58-3.38,1.68-8.15,3.35-14.42l12.86-25.08v17.8s-6.62,11.98-6.62,11.98v-7.3Z"/>
    </g>
  </g>
  <text class="cls-17" transform="translate(22.85 40.98) scale(.88 1)"><tspan x="0" y="0">TE</tspan><tspan class="cls-150" x="31.75" y="0">F</tspan><tspan x="46.11" y="0">ANNY </tspan><tspan class="cls-148" x="125.54" y="0">Y</tspan><tspan x="141.61" y="0">OUNG</tspan></text>
  <text class="cls-17" transform="translate(23.33 730.24)"><tspan class="cls-136" x="0" y="0">S</tspan><tspan x="15.43" y="0">TRING</tspan></text>
  <text class="cls-145" transform="translate(24.58 752.6) scale(.82 1)"><tspan class="cls-5"><tspan x="0" y="0">is t</tspan><tspan class="cls-146" x="18.26" y="0">r</tspan><tspan class="cls-131" x="23.56" y="0">aditiona</tspan><tspan class="cls-127" x="74.26" y="0">l</tspan><tspan class="cls-141" x="78.02" y="0">ly a </tspan><tspan class="cls-126" x="101.72" y="0">s</tspan><tspan class="cls-131" x="108.32" y="0">equen</tspan><tspan class="cls-137" x="146.46" y="0">c</tspan><tspan x="152.86" y="0">e of cha</tspan><tspan class="cls-146" x="200.88" y="0">r</tspan><tspan x="206.18" y="0">ac</tspan><tspan class="cls-2" x="220.01" y="0">t</tspan><tspan x="225.24" y="0">er</tspan><tspan class="cls-143" x="238.07" y="0">s</tspan><tspan x="244.68" y="0">, either as a li</tspan><tspan class="cls-128" x="324.04" y="0">t</tspan><tspan class="cls-141" x="329.27" y="0">e</tspan><tspan class="cls-152" x="336.62" y="0">r</tspan><tspan x="341.92" y="0">al </tspan><tspan class="cls-137" x="355.62" y="0">c</tspan><tspan x="362.02" y="0">ons</tspan><tspan class="cls-127" x="384.21" y="0">t</tspan><tspan class="cls-134" x="389.53" y="0">ant or as </tspan><tspan class="cls-153" x="445.11" y="0">s</tspan><tspan x="451.72" y="0">ome kind of </tspan><tspan class="cls-22" x="526.69" y="0">v</tspan><tspan x="533.8" y="0">ariable. The la</tspan><tspan class="cls-132" x="618.45" y="0">tt</tspan><tspan x="628.9" y="0">er </tspan></tspan><tspan class="cls-5"><tspan x="0" y="16.24">m</tspan><tspan class="cls-130" x="11.38" y="16.24">a</tspan><tspan x="18.46" y="16.24">y a</tspan><tspan class="cls-127" x="35.7" y="16.24">l</tspan><tspan x="39.46" y="16.24">l</tspan><tspan class="cls-2" x="43.21" y="16.24">o</tspan><tspan class="cls-141" x="50.98" y="16.24">w i</tspan><tspan class="cls-127" x="67.94" y="16.24">t</tspan><tspan x="73.26" y="16.24">s elemen</tspan><tspan class="cls-154" x="127.48" y="16.24">t</tspan><tspan class="cls-141" x="132.8" y="16.24">s </tspan><tspan class="cls-128" x="142.05" y="16.24">t</tspan><tspan class="cls-131" x="147.27" y="16.24">o be mu</tspan><tspan class="cls-154" x="194.93" y="16.24">t</tspan><tspan x="200.25" y="16.24">a</tspan><tspan class="cls-128" x="207.49" y="16.24">t</tspan><tspan class="cls-131" x="212.72" y="16.24">ed and the length changed, or it m</tspan><tspan class="cls-129" x="418.85" y="16.24">a</tspan><tspan x="425.92" y="16.24">y be fi</tspan><tspan class="cls-151" x="463.28" y="16.24">x</tspan><tspan x="470.18" y="16.24">ed (a</tspan><tspan class="cls-142" x="499.3" y="16.24">f</tspan><tspan class="cls-132" x="504.95" y="16.24">t</tspan><tspan x="510.17" y="16.24">er c</tspan><tspan class="cls-149" x="532.3" y="16.24">r</tspan><tspan x="537.55" y="16.24">eation). A string is </tspan></tspan><tspan class="cls-5"><tspan x="0" y="32.48">gene</tspan><tspan class="cls-146" x="30.09" y="32.48">r</tspan><tspan x="35.39" y="32.48">a</tspan><tspan class="cls-127" x="42.63" y="32.48">l</tspan><tspan x="46.39" y="32.48">ly </tspan><tspan class="cls-137" x="60.14" y="32.48">c</tspan><tspan x="66.54" y="32.48">onside</tspan><tspan class="cls-147" x="107.63" y="32.48">r</tspan><tspan class="cls-131" x="112.88" y="32.48">ed as a da</tspan><tspan class="cls-127" x="172.28" y="32.48">t</tspan><tspan x="177.6" y="32.48">a </tspan><tspan class="cls-127" x="187.55" y="32.48">t</tspan><tspan class="cls-140" x="192.86" y="32.48">y</tspan><tspan x="200.06" y="32.48">pe and is o</tspan><tspan class="cls-140" x="264.33" y="32.48">f</tspan><tspan class="cls-2" x="269.98" y="32.48">t</tspan><tspan x="275.2" y="32.48">en implemen</tspan><tspan class="cls-2" x="353.61" y="32.48">t</tspan><tspan x="358.84" y="32.48">ed as an a</tspan><tspan class="cls-133" x="418.21" y="32.48">r</tspan><tspan class="cls-152" x="423.57" y="32.48">r</tspan><tspan class="cls-129" x="428.87" y="32.48">a</tspan><tspan x="435.95" y="32.48">y da</tspan><tspan class="cls-127" x="461.03" y="32.48">t</tspan><tspan x="466.35" y="32.48">a struc</tspan><tspan class="cls-139" x="508" y="32.48">t</tspan><tspan class="cls-134" x="513.3" y="32.48">u</tspan><tspan class="cls-147" x="521.09" y="32.48">r</tspan><tspan class="cls-134" x="526.34" y="32.48">e of </tspan><tspan class="cls-152" x="552.69" y="32.48">b</tspan><tspan x="560.39" y="32.48">y</tspan><tspan class="cls-2" x="567.69" y="32.48">t</tspan><tspan class="cls-127" x="572.91" y="32.48">e</tspan><tspan x="580.27" y="32.48">s </tspan><tspan class="cls-135" x="589.52" y="32.48">(</tspan><tspan class="cls-144" x="593.4" y="32.48">or </tspan><tspan class="cls-138" x="609.44" y="32.48">w</tspan><tspan x="619.95" y="32.48">o</tspan><tspan class="cls-147" x="627.8" y="32.48">r</tspan><tspan x="633.05" y="32.48">ds) </tspan></tspan><tspan class="cls-5"><tspan x="0" y="48.72">that s</tspan><tspan class="cls-128" x="34.93" y="48.72">t</tspan><tspan class="cls-131" x="40.15" y="48.72">o</tspan><tspan class="cls-147" x="48" y="48.72">r</tspan><tspan class="cls-127" x="53.25" y="48.72">e</tspan><tspan x="60.62" y="48.72">s a </tspan><tspan class="cls-126" x="79.81" y="48.72">s</tspan><tspan x="86.41" y="48.72">equen</tspan><tspan class="cls-137" x="124.55" y="48.72">c</tspan><tspan class="cls-131" x="130.95" y="48.72">e of elemen</tspan><tspan class="cls-127" x="202.28" y="48.72">t</tspan><tspan class="cls-143" x="207.6" y="48.72">s</tspan><tspan x="214.22" y="48.72">, </tspan><tspan class="cls-127" x="219.96" y="48.72">t</tspan><tspan class="cls-140" x="225.28" y="48.72">y</tspan><tspan x="232.48" y="48.72">pi</tspan><tspan class="cls-154" x="244.01" y="48.72">c</tspan><tspan x="250.61" y="48.72">a</tspan><tspan class="cls-127" x="257.85" y="48.72">l</tspan><tspan x="261.61" y="48.72">ly cha</tspan><tspan class="cls-146" x="297.03" y="48.72">r</tspan><tspan x="302.34" y="48.72">ac</tspan><tspan class="cls-128" x="316.17" y="48.72">t</tspan><tspan x="321.39" y="48.72">er</tspan><tspan class="cls-143" x="334.22" y="48.72">s</tspan><tspan x="340.84" y="48.72">, using </tspan><tspan class="cls-153" x="382.71" y="48.72">s</tspan><tspan class="cls-144" x="389.32" y="48.72">ome cha</tspan><tspan class="cls-152" x="440.27" y="48.72">r</tspan><tspan x="445.57" y="48.72">ac</tspan><tspan class="cls-2" x="459.41" y="48.72">t</tspan><tspan class="cls-134" x="464.63" y="48.72">er en</tspan><tspan class="cls-137" x="495.32" y="48.72">c</tspan><tspan x="501.73" y="48.72">oding. String m</tspan><tspan class="cls-129" x="593.55" y="48.72">a</tspan><tspan x="600.63" y="48.72">y al</tspan><tspan class="cls-153" x="621.62" y="48.72">s</tspan><tspan x="628.22" y="48.72">o </tspan></tspan><tspan class="cls-1" x="0" y="64.96">v</tspan><tspan class="cls-5" x="7.16" y="64.96">deno</tspan><tspan class="cls-8" x="38" y="64.96">t</tspan><tspan class="cls-9" x="43.23" y="64.96">e mo</tspan><tspan class="cls-19" x="72.51" y="64.96">r</tspan><tspan class="cls-5" x="77.76" y="64.96">e gene</tspan><tspan class="cls-18" x="117.9" y="64.96">r</tspan><tspan class="cls-5" x="123.21" y="64.96">al a</tspan><tspan class="cls-11" x="144.15" y="64.96">r</tspan><tspan class="cls-18" x="149.5" y="64.96">r</tspan><tspan class="cls-10" x="154.81" y="64.96">a</tspan><tspan class="cls-5" x="161.89" y="64.96">ys or other </tspan><tspan class="cls-4" x="230.99" y="64.96">s</tspan><tspan class="cls-5" x="237.59" y="64.96">equen</tspan><tspan class="cls-15" x="275.73" y="64.96">c</tspan><tspan class="cls-5" x="282.13" y="64.96">e </tspan><tspan class="cls-14" x="292.19" y="64.96">(</tspan><tspan class="cls-9" x="296.07" y="64.96">or list) da</tspan><tspan class="cls-6" x="353.18" y="64.96">t</tspan><tspan class="cls-13" x="358.5" y="64.96">a </tspan><tspan class="cls-12" x="368.45" y="64.96">t</tspan><tspan class="cls-7" x="373.77" y="64.96">y</tspan><tspan class="cls-5" x="380.97" y="64.96">p</tspan><tspan class="cls-12" x="388.79" y="64.96">e</tspan><tspan class="cls-21" x="396.15" y="64.96">s and struc</tspan><tspan class="cls-16" x="462.7" y="64.96">t</tspan><tspan class="cls-5" x="467.99" y="64.96">u</tspan><tspan class="cls-20" x="475.78" y="64.96">r</tspan><tspan class="cls-12" x="481.03" y="64.96">e</tspan><tspan class="cls-3" x="488.39" y="64.96">s</tspan><tspan class="cls-5" x="495.01" y="64.96">.</tspan><tspan class="cls-23" x="497.99" y="64.96">L</tspan><tspan class="cls-24" x="504.77" y="64.96">o</tspan><tspan class="cls-27" x="512.62" y="64.96">r</tspan><tspan class="cls-25" x="517.87" y="64.96">em ipsum</tspan><tspan class="cls-23" x="576.55" y="64.96">L</tspan><tspan class="cls-29" x="583.33" y="64.96">o</tspan><tspan class="cls-28" x="591.18" y="64.96">r</tspan><tspan class="cls-24" x="596.43" y="64.96">em ipsum</tspan></text>
</svg>